<mxfile host="app.diagrams.net" modified="2021-05-23T18:24:39.621Z" agent="5.0 (Macintosh; Intel Mac OS X 10_12_6) AppleWebKit/537.36 (KHTML, like Gecko) Chrome/90.0.4430.212 Safari/537.36" etag="ONjRQ9jt8AQNn7XpOqmv" version="14.6.13" type="github" pages="5">
  <diagram id="CbljgcHZ5IRi_M4uxEZv" name="Page-1">
    <mxGraphModel dx="1710" dy="910" grid="1" gridSize="10" guides="1" tooltips="1" connect="1" arrows="1" fold="1" page="1" pageScale="1" pageWidth="827" pageHeight="1169" math="0" shadow="0">
      <root>
        <mxCell id="0" />
        <mxCell id="1" parent="0" />
        <mxCell id="1cghVQ-aD5FAPNCG-Nsp-1" value="&lt;b&gt;rdfs : Class&lt;/b&gt;" style="ellipse;whiteSpace=wrap;html=1;fillColor=#d5e8d4;strokeColor=#82b366;" parent="1" vertex="1">
          <mxGeometry x="649" y="264" width="120" height="80" as="geometry" />
        </mxCell>
        <mxCell id="1cghVQ-aD5FAPNCG-Nsp-2" value="&lt;b&gt;jeux : Jeu_de_sport&amp;nbsp;&lt;/b&gt;" style="ellipse;whiteSpace=wrap;html=1;fillColor=#dae8fc;strokeColor=#6c8ebf;" parent="1" vertex="1">
          <mxGeometry x="279" y="654" width="120" height="80" as="geometry" />
        </mxCell>
        <mxCell id="1cghVQ-aD5FAPNCG-Nsp-3" value="&lt;b&gt;jeux&lt;/b&gt;&lt;b&gt;: Jeu_d&#39;aventure&amp;nbsp;&lt;/b&gt;" style="ellipse;whiteSpace=wrap;html=1;fillColor=#dae8fc;strokeColor=#6c8ebf;" parent="1" vertex="1">
          <mxGeometry x="669" y="654" width="120" height="80" as="geometry" />
        </mxCell>
        <mxCell id="1cghVQ-aD5FAPNCG-Nsp-4" value="&lt;b&gt;jeux&lt;/b&gt;&lt;b&gt;&amp;nbsp;: Jeu_simulation&amp;nbsp;&lt;/b&gt;" style="ellipse;whiteSpace=wrap;html=1;fillColor=#dae8fc;strokeColor=#6c8ebf;" parent="1" vertex="1">
          <mxGeometry x="1039" y="664" width="120" height="80" as="geometry" />
        </mxCell>
        <mxCell id="1cghVQ-aD5FAPNCG-Nsp-5" value="&lt;b&gt;jeux&lt;/b&gt;&lt;b&gt;&amp;nbsp;: Sims IV&lt;/b&gt;" style="ellipse;whiteSpace=wrap;html=1;fillColor=#f8cecc;strokeColor=#b85450;" parent="1" vertex="1">
          <mxGeometry x="1206" y="801" width="110" height="75" as="geometry" />
        </mxCell>
        <mxCell id="1cghVQ-aD5FAPNCG-Nsp-6" value="&lt;b&gt;jeux :Jeux_videos&lt;/b&gt;" style="ellipse;whiteSpace=wrap;html=1;fillColor=#ffe6cc;strokeColor=#d79b00;" parent="1" vertex="1">
          <mxGeometry x="654" y="464" width="120" height="80" as="geometry" />
        </mxCell>
        <mxCell id="1cghVQ-aD5FAPNCG-Nsp-7" value="" style="endArrow=classic;html=1;entryX=0.5;entryY=1;entryDx=0;entryDy=0;exitX=0.45;exitY=-0.025;exitDx=0;exitDy=0;exitPerimeter=0;" parent="1" source="1cghVQ-aD5FAPNCG-Nsp-6" target="1cghVQ-aD5FAPNCG-Nsp-1" edge="1">
          <mxGeometry width="50" height="50" relative="1" as="geometry">
            <mxPoint x="718.5" y="474" as="sourcePoint" />
            <mxPoint x="718.5" y="404" as="targetPoint" />
          </mxGeometry>
        </mxCell>
        <mxCell id="1cghVQ-aD5FAPNCG-Nsp-8" value="&lt;b&gt;&lt;font color=&quot;#999999&quot;&gt;rdfs : SubClassOf&lt;/font&gt;&lt;/b&gt;" style="text;html=1;align=center;verticalAlign=middle;resizable=0;points=[];autosize=1;" parent="1" vertex="1">
          <mxGeometry x="774" y="404" width="120" height="20" as="geometry" />
        </mxCell>
        <mxCell id="1cghVQ-aD5FAPNCG-Nsp-9" value="" style="endArrow=classic;html=1;" parent="1" edge="1">
          <mxGeometry width="50" height="50" relative="1" as="geometry">
            <mxPoint x="719" y="657" as="sourcePoint" />
            <mxPoint x="719" y="545" as="targetPoint" />
          </mxGeometry>
        </mxCell>
        <mxCell id="1cghVQ-aD5FAPNCG-Nsp-10" value="&lt;b&gt;&lt;font color=&quot;#999999&quot;&gt;rdfs : SubClassOf&lt;/font&gt;&lt;/b&gt;" style="text;html=1;align=center;verticalAlign=middle;resizable=0;points=[];autosize=1;" parent="1" vertex="1">
          <mxGeometry x="724" y="574" width="120" height="20" as="geometry" />
        </mxCell>
        <mxCell id="1cghVQ-aD5FAPNCG-Nsp-11" value="" style="endArrow=classic;html=1;exitX=0.643;exitY=0.034;exitDx=0;exitDy=0;exitPerimeter=0;" parent="1" source="1cghVQ-aD5FAPNCG-Nsp-2" target="1cghVQ-aD5FAPNCG-Nsp-6" edge="1">
          <mxGeometry width="50" height="50" relative="1" as="geometry">
            <mxPoint x="469" y="665" as="sourcePoint" />
            <mxPoint x="469" y="554" as="targetPoint" />
          </mxGeometry>
        </mxCell>
        <mxCell id="1cghVQ-aD5FAPNCG-Nsp-12" value="" style="endArrow=classic;html=1;exitX=0.242;exitY=0.088;exitDx=0;exitDy=0;exitPerimeter=0;" parent="1" source="1cghVQ-aD5FAPNCG-Nsp-4" target="1cghVQ-aD5FAPNCG-Nsp-6" edge="1">
          <mxGeometry width="50" height="50" relative="1" as="geometry">
            <mxPoint x="1008" y="665" as="sourcePoint" />
            <mxPoint x="1008" y="554" as="targetPoint" />
          </mxGeometry>
        </mxCell>
        <mxCell id="1cghVQ-aD5FAPNCG-Nsp-13" value="&lt;b&gt;&lt;font color=&quot;#999999&quot;&gt;rdfs : SubClassOf&lt;/font&gt;&lt;/b&gt;" style="text;html=1;align=center;verticalAlign=middle;resizable=0;points=[];autosize=1;" parent="1" vertex="1">
          <mxGeometry x="959" y="574" width="120" height="20" as="geometry" />
        </mxCell>
        <mxCell id="1cghVQ-aD5FAPNCG-Nsp-14" value="&lt;b&gt;&lt;font color=&quot;#999999&quot;&gt;rdfs : SubClassOf&lt;/font&gt;&lt;/b&gt;" style="text;html=1;align=center;verticalAlign=middle;resizable=0;points=[];autosize=1;" parent="1" vertex="1">
          <mxGeometry x="389" y="574" width="120" height="20" as="geometry" />
        </mxCell>
        <mxCell id="1cghVQ-aD5FAPNCG-Nsp-15" value="&lt;b&gt;jeux&lt;/b&gt;&lt;b&gt;&amp;nbsp;: Simcity&lt;/b&gt;" style="ellipse;whiteSpace=wrap;html=1;fillColor=#f8cecc;strokeColor=#b85450;" parent="1" vertex="1">
          <mxGeometry x="999" y="801" width="110" height="75" as="geometry" />
        </mxCell>
        <mxCell id="1cghVQ-aD5FAPNCG-Nsp-16" value="&lt;b&gt;jeux&lt;/b&gt;&lt;b&gt;&amp;nbsp;: Uncharted IV&lt;/b&gt;" style="ellipse;whiteSpace=wrap;html=1;fillColor=#f8cecc;strokeColor=#b85450;" parent="1" vertex="1">
          <mxGeometry x="811" y="801" width="110" height="75" as="geometry" />
        </mxCell>
        <mxCell id="1cghVQ-aD5FAPNCG-Nsp-17" value="&lt;b&gt;jeux&lt;/b&gt;&lt;b&gt;&amp;nbsp;: The legend of Zelda BOW II&amp;nbsp;&lt;/b&gt;" style="ellipse;whiteSpace=wrap;html=1;fillColor=#f8cecc;strokeColor=#b85450;" parent="1" vertex="1">
          <mxGeometry x="569" y="799" width="110" height="75" as="geometry" />
        </mxCell>
        <mxCell id="1cghVQ-aD5FAPNCG-Nsp-18" value="&lt;b&gt;jeux : NBA2K21&amp;nbsp;&lt;/b&gt;" style="ellipse;whiteSpace=wrap;html=1;fillColor=#f8cecc;strokeColor=#b85450;" parent="1" vertex="1">
          <mxGeometry x="149" y="794" width="110" height="75" as="geometry" />
        </mxCell>
        <mxCell id="1cghVQ-aD5FAPNCG-Nsp-19" value="&lt;b&gt;jeux&lt;/b&gt;&lt;b&gt;&amp;nbsp;: Fifa21&amp;nbsp;&lt;/b&gt;" style="ellipse;whiteSpace=wrap;html=1;fillColor=#f8cecc;strokeColor=#b85450;" parent="1" vertex="1">
          <mxGeometry x="349" y="799" width="110" height="75" as="geometry" />
        </mxCell>
        <mxCell id="1cghVQ-aD5FAPNCG-Nsp-20" value="" style="endArrow=classic;html=1;exitX=0.364;exitY=0.036;exitDx=0;exitDy=0;exitPerimeter=0;" parent="1" source="1cghVQ-aD5FAPNCG-Nsp-19" target="1cghVQ-aD5FAPNCG-Nsp-2" edge="1">
          <mxGeometry width="50" height="50" relative="1" as="geometry">
            <mxPoint x="548.5" y="805" as="sourcePoint" />
            <mxPoint x="548.5" y="694" as="targetPoint" />
          </mxGeometry>
        </mxCell>
        <mxCell id="1cghVQ-aD5FAPNCG-Nsp-21" value="" style="endArrow=classic;html=1;exitX=0.675;exitY=0.057;exitDx=0;exitDy=0;exitPerimeter=0;" parent="1" source="1cghVQ-aD5FAPNCG-Nsp-18" target="1cghVQ-aD5FAPNCG-Nsp-2" edge="1">
          <mxGeometry width="50" height="50" relative="1" as="geometry">
            <mxPoint x="379" y="804" as="sourcePoint" />
            <mxPoint x="379" y="693" as="targetPoint" />
          </mxGeometry>
        </mxCell>
        <mxCell id="1cghVQ-aD5FAPNCG-Nsp-22" value="" style="endArrow=classic;html=1;exitX=0.5;exitY=0;exitDx=0;exitDy=0;" parent="1" source="1cghVQ-aD5FAPNCG-Nsp-17" target="1cghVQ-aD5FAPNCG-Nsp-3" edge="1">
          <mxGeometry width="50" height="50" relative="1" as="geometry">
            <mxPoint x="689" y="804" as="sourcePoint" />
            <mxPoint x="689" y="693" as="targetPoint" />
          </mxGeometry>
        </mxCell>
        <mxCell id="1cghVQ-aD5FAPNCG-Nsp-23" value="" style="endArrow=classic;html=1;exitX=0;exitY=0;exitDx=0;exitDy=0;" parent="1" source="1cghVQ-aD5FAPNCG-Nsp-16" target="1cghVQ-aD5FAPNCG-Nsp-3" edge="1">
          <mxGeometry width="50" height="50" relative="1" as="geometry">
            <mxPoint x="863.5" y="801" as="sourcePoint" />
            <mxPoint x="863.5" y="690" as="targetPoint" />
          </mxGeometry>
        </mxCell>
        <mxCell id="1cghVQ-aD5FAPNCG-Nsp-24" value="" style="endArrow=classic;html=1;exitX=0.5;exitY=0;exitDx=0;exitDy=0;" parent="1" source="1cghVQ-aD5FAPNCG-Nsp-15" target="1cghVQ-aD5FAPNCG-Nsp-4" edge="1">
          <mxGeometry width="50" height="50" relative="1" as="geometry">
            <mxPoint x="1029" y="801" as="sourcePoint" />
            <mxPoint x="1029" y="690" as="targetPoint" />
          </mxGeometry>
        </mxCell>
        <mxCell id="1cghVQ-aD5FAPNCG-Nsp-25" value="" style="endArrow=classic;html=1;entryX=1;entryY=1;entryDx=0;entryDy=0;" parent="1" source="1cghVQ-aD5FAPNCG-Nsp-5" target="1cghVQ-aD5FAPNCG-Nsp-4" edge="1">
          <mxGeometry width="50" height="50" relative="1" as="geometry">
            <mxPoint x="1223.5" y="801" as="sourcePoint" />
            <mxPoint x="1223.5" y="690" as="targetPoint" />
          </mxGeometry>
        </mxCell>
        <mxCell id="1cghVQ-aD5FAPNCG-Nsp-26" value="&lt;b&gt;&lt;font color=&quot;#67ab9f&quot;&gt;rdf:type&lt;/font&gt;&lt;/b&gt;" style="text;html=1;align=center;verticalAlign=middle;resizable=0;points=[];autosize=1;" parent="1" vertex="1">
          <mxGeometry x="249" y="764" width="60" height="20" as="geometry" />
        </mxCell>
        <mxCell id="1cghVQ-aD5FAPNCG-Nsp-27" value="&lt;b&gt;&lt;font color=&quot;#67ab9f&quot;&gt;rdf : type&lt;/font&gt;&lt;/b&gt;" style="text;html=1;align=center;verticalAlign=middle;resizable=0;points=[];autosize=1;" parent="1" vertex="1">
          <mxGeometry x="379" y="764" width="70" height="20" as="geometry" />
        </mxCell>
        <mxCell id="1cghVQ-aD5FAPNCG-Nsp-28" value="&lt;b&gt;&lt;font color=&quot;#67ab9f&quot;&gt;rdf: type&lt;/font&gt;&lt;/b&gt;" style="text;html=1;align=center;verticalAlign=middle;resizable=0;points=[];autosize=1;" parent="1" vertex="1">
          <mxGeometry x="654" y="764" width="60" height="20" as="geometry" />
        </mxCell>
        <mxCell id="1cghVQ-aD5FAPNCG-Nsp-29" value="&lt;b&gt;&lt;font color=&quot;#67ab9f&quot;&gt;rdf: type&lt;/font&gt;&lt;/b&gt;" style="text;html=1;align=center;verticalAlign=middle;resizable=0;points=[];autosize=1;" parent="1" vertex="1">
          <mxGeometry x="799" y="764" width="60" height="20" as="geometry" />
        </mxCell>
        <mxCell id="1cghVQ-aD5FAPNCG-Nsp-30" value="&lt;b&gt;&lt;font color=&quot;#67ab9f&quot;&gt;rdf: type&lt;/font&gt;&lt;/b&gt;" style="text;html=1;align=center;verticalAlign=middle;resizable=0;points=[];autosize=1;" parent="1" vertex="1">
          <mxGeometry x="999" y="764" width="60" height="20" as="geometry" />
        </mxCell>
        <mxCell id="1cghVQ-aD5FAPNCG-Nsp-31" value="&lt;b&gt;&lt;font color=&quot;#67ab9f&quot;&gt;rdf: type&lt;/font&gt;&lt;/b&gt;" style="text;html=1;align=center;verticalAlign=middle;resizable=0;points=[];autosize=1;" parent="1" vertex="1">
          <mxGeometry x="1206" y="764" width="60" height="20" as="geometry" />
        </mxCell>
        <mxCell id="1cghVQ-aD5FAPNCG-Nsp-32" value="" style="endArrow=classic;html=1;entryX=0;entryY=1;entryDx=0;entryDy=0;exitX=0.5;exitY=0;exitDx=0;exitDy=0;" parent="1" source="1cghVQ-aD5FAPNCG-Nsp-58" target="1cghVQ-aD5FAPNCG-Nsp-19" edge="1">
          <mxGeometry width="50" height="50" relative="1" as="geometry">
            <mxPoint x="419" y="1024" as="sourcePoint" />
            <mxPoint x="498.9992456811393" y="893.8008874339534" as="targetPoint" />
          </mxGeometry>
        </mxCell>
        <mxCell id="1cghVQ-aD5FAPNCG-Nsp-33" value="" style="endArrow=classic;html=1;exitX=0.417;exitY=-0.05;exitDx=0;exitDy=0;exitPerimeter=0;entryX=1;entryY=1;entryDx=0;entryDy=0;" parent="1" source="1cghVQ-aD5FAPNCG-Nsp-59" target="1cghVQ-aD5FAPNCG-Nsp-19" edge="1">
          <mxGeometry width="50" height="50" relative="1" as="geometry">
            <mxPoint x="549" y="1014" as="sourcePoint" />
            <mxPoint x="519" y="876" as="targetPoint" />
          </mxGeometry>
        </mxCell>
        <mxCell id="1cghVQ-aD5FAPNCG-Nsp-34" value="" style="endArrow=classic;html=1;" parent="1" target="1cghVQ-aD5FAPNCG-Nsp-16" edge="1">
          <mxGeometry width="50" height="50" relative="1" as="geometry">
            <mxPoint x="809" y="1034" as="sourcePoint" />
            <mxPoint x="844.4192456811393" y="894.0008874339535" as="targetPoint" />
          </mxGeometry>
        </mxCell>
        <mxCell id="1cghVQ-aD5FAPNCG-Nsp-35" value="" style="endArrow=classic;html=1;exitX=0.25;exitY=0;exitDx=0;exitDy=0;" parent="1" source="1cghVQ-aD5FAPNCG-Nsp-63" target="1cghVQ-aD5FAPNCG-Nsp-16" edge="1">
          <mxGeometry width="50" height="50" relative="1" as="geometry">
            <mxPoint x="919" y="1024" as="sourcePoint" />
            <mxPoint x="1024.4192456811393" y="893.8008874339534" as="targetPoint" />
          </mxGeometry>
        </mxCell>
        <mxCell id="1cghVQ-aD5FAPNCG-Nsp-36" value="" style="endArrow=classic;html=1;entryX=0.309;entryY=0.973;entryDx=0;entryDy=0;entryPerimeter=0;exitX=0.333;exitY=-0.033;exitDx=0;exitDy=0;exitPerimeter=0;" parent="1" source="1cghVQ-aD5FAPNCG-Nsp-66" target="1cghVQ-aD5FAPNCG-Nsp-5" edge="1">
          <mxGeometry width="50" height="50" relative="1" as="geometry">
            <mxPoint x="1240" y="1024" as="sourcePoint" />
            <mxPoint x="1204.4192456811393" y="893.8008874339534" as="targetPoint" />
          </mxGeometry>
        </mxCell>
        <mxCell id="1cghVQ-aD5FAPNCG-Nsp-37" value="" style="endArrow=classic;html=1;entryX=0.773;entryY=0.92;entryDx=0;entryDy=0;entryPerimeter=0;" parent="1" target="1cghVQ-aD5FAPNCG-Nsp-5" edge="1">
          <mxGeometry width="50" height="50" relative="1" as="geometry">
            <mxPoint x="1349" y="1034" as="sourcePoint" />
            <mxPoint x="1384.4192456811393" y="893.8008874339534" as="targetPoint" />
          </mxGeometry>
        </mxCell>
        <mxCell id="1cghVQ-aD5FAPNCG-Nsp-38" value="&lt;b&gt;jeux :&lt;br&gt;&lt;/b&gt;&lt;b&gt;developpé_par&lt;/b&gt;" style="text;html=1;align=center;verticalAlign=middle;resizable=0;points=[];autosize=1;" parent="1" vertex="1">
          <mxGeometry x="249" y="954" width="100" height="30" as="geometry" />
        </mxCell>
        <mxCell id="1cghVQ-aD5FAPNCG-Nsp-39" value="&lt;b&gt;jeux&lt;/b&gt;&lt;b&gt;&amp;nbsp;:&lt;br&gt;date_de_sortie&lt;/b&gt;" style="text;html=1;align=center;verticalAlign=middle;resizable=0;points=[];autosize=1;" parent="1" vertex="1">
          <mxGeometry x="439" y="879" width="100" height="30" as="geometry" />
        </mxCell>
        <mxCell id="1cghVQ-aD5FAPNCG-Nsp-40" value="&lt;b&gt;jeux:&amp;nbsp;&lt;br&gt;&lt;/b&gt;&lt;b&gt;developpé_par&lt;/b&gt;" style="text;html=1;align=center;verticalAlign=middle;resizable=0;points=[];autosize=1;" parent="1" vertex="1">
          <mxGeometry x="734" y="876" width="100" height="30" as="geometry" />
        </mxCell>
        <mxCell id="1cghVQ-aD5FAPNCG-Nsp-41" value="&lt;b&gt;jeux:&lt;br&gt;&lt;/b&gt;&lt;b&gt;&amp;nbsp;date_de_sortie&lt;/b&gt;" style="text;html=1;align=center;verticalAlign=middle;resizable=0;points=[];autosize=1;" parent="1" vertex="1">
          <mxGeometry x="884" y="879" width="100" height="30" as="geometry" />
        </mxCell>
        <mxCell id="1cghVQ-aD5FAPNCG-Nsp-42" value="&lt;b&gt;jeux :&lt;br&gt;&lt;/b&gt;&lt;b&gt;developpé_par&lt;/b&gt;" style="text;html=1;align=center;verticalAlign=middle;resizable=0;points=[];autosize=1;" parent="1" vertex="1">
          <mxGeometry x="1139" y="894" width="100" height="30" as="geometry" />
        </mxCell>
        <mxCell id="1cghVQ-aD5FAPNCG-Nsp-43" value="&lt;b&gt;jeux:&lt;br&gt;&amp;nbsp;date_de_sortie&lt;/b&gt;" style="text;html=1;align=center;verticalAlign=middle;resizable=0;points=[];autosize=1;" parent="1" vertex="1">
          <mxGeometry x="1309" y="909" width="100" height="30" as="geometry" />
        </mxCell>
        <mxCell id="1cghVQ-aD5FAPNCG-Nsp-44" value="" style="endArrow=classic;html=1;entryX=0;entryY=1;entryDx=0;entryDy=0;exitX=0.658;exitY=-0.033;exitDx=0;exitDy=0;exitPerimeter=0;" parent="1" source="1cghVQ-aD5FAPNCG-Nsp-56" target="1cghVQ-aD5FAPNCG-Nsp-18" edge="1">
          <mxGeometry width="50" height="50" relative="1" as="geometry">
            <mxPoint x="169" y="1034" as="sourcePoint" />
            <mxPoint x="250.59729668150194" y="874.0029022705517" as="targetPoint" />
            <Array as="points" />
          </mxGeometry>
        </mxCell>
        <mxCell id="1cghVQ-aD5FAPNCG-Nsp-45" value="" style="endArrow=classic;html=1;exitX=0.65;exitY=0;exitDx=0;exitDy=0;exitPerimeter=0;entryX=0.6;entryY=0.987;entryDx=0;entryDy=0;entryPerimeter=0;" parent="1" source="1cghVQ-aD5FAPNCG-Nsp-57" target="1cghVQ-aD5FAPNCG-Nsp-18" edge="1">
          <mxGeometry width="50" height="50" relative="1" as="geometry">
            <mxPoint x="329" y="1034" as="sourcePoint" />
            <mxPoint x="309" y="876" as="targetPoint" />
          </mxGeometry>
        </mxCell>
        <mxCell id="1cghVQ-aD5FAPNCG-Nsp-46" value="&lt;b&gt;jeux :&lt;br&gt;developpé_par&lt;/b&gt;" style="text;html=1;align=center;verticalAlign=middle;resizable=0;points=[];autosize=1;" parent="1" vertex="1">
          <mxGeometry x="39" y="876" width="100" height="30" as="geometry" />
        </mxCell>
        <mxCell id="1cghVQ-aD5FAPNCG-Nsp-47" value="" style="endArrow=classic;html=1;entryX=0.264;entryY=0.987;entryDx=0;entryDy=0;exitX=0.2;exitY=-0.067;exitDx=0;exitDy=0;exitPerimeter=0;entryPerimeter=0;" parent="1" source="1cghVQ-aD5FAPNCG-Nsp-60" target="1cghVQ-aD5FAPNCG-Nsp-17" edge="1">
          <mxGeometry width="50" height="50" relative="1" as="geometry">
            <mxPoint x="649" y="1024" as="sourcePoint" />
            <mxPoint x="658.9972966814951" y="874.0029022705564" as="targetPoint" />
          </mxGeometry>
        </mxCell>
        <mxCell id="1cghVQ-aD5FAPNCG-Nsp-48" value="" style="endArrow=classic;html=1;entryX=0;entryY=1;entryDx=0;entryDy=0;" parent="1" edge="1">
          <mxGeometry width="50" height="50" relative="1" as="geometry">
            <mxPoint x="699" y="1034" as="sourcePoint" />
            <mxPoint x="653.9972966814951" y="869.0029022705564" as="targetPoint" />
          </mxGeometry>
        </mxCell>
        <mxCell id="1cghVQ-aD5FAPNCG-Nsp-49" value="" style="endArrow=classic;html=1;entryX=0;entryY=1;entryDx=0;entryDy=0;exitX=0.25;exitY=0;exitDx=0;exitDy=0;" parent="1" source="1cghVQ-aD5FAPNCG-Nsp-64" edge="1">
          <mxGeometry width="50" height="50" relative="1" as="geometry">
            <mxPoint x="999" y="1014" as="sourcePoint" />
            <mxPoint x="1025.1772966814951" y="871.0329022705564" as="targetPoint" />
          </mxGeometry>
        </mxCell>
        <mxCell id="1cghVQ-aD5FAPNCG-Nsp-50" value="" style="endArrow=classic;html=1;exitX=0.25;exitY=0;exitDx=0;exitDy=0;" parent="1" source="1cghVQ-aD5FAPNCG-Nsp-65" edge="1">
          <mxGeometry width="50" height="50" relative="1" as="geometry">
            <mxPoint x="1114" y="1024" as="sourcePoint" />
            <mxPoint x="1084" y="874" as="targetPoint" />
          </mxGeometry>
        </mxCell>
        <mxCell id="1cghVQ-aD5FAPNCG-Nsp-51" value="&lt;b&gt;jeux:&lt;br&gt;&lt;/b&gt;&lt;b&gt;&amp;nbsp;date_de_sortie&lt;/b&gt;" style="text;html=1;align=center;verticalAlign=middle;resizable=0;points=[];autosize=1;" parent="1" vertex="1">
          <mxGeometry x="219" y="879" width="100" height="30" as="geometry" />
        </mxCell>
        <mxCell id="1cghVQ-aD5FAPNCG-Nsp-52" value="&lt;b&gt;jeux :&lt;br&gt;&lt;/b&gt;&lt;b&gt;developpé_par&lt;/b&gt;" style="text;html=1;align=center;verticalAlign=middle;resizable=0;points=[];autosize=1;" parent="1" vertex="1">
          <mxGeometry x="469" y="954" width="100" height="30" as="geometry" />
        </mxCell>
        <mxCell id="1cghVQ-aD5FAPNCG-Nsp-53" value="&lt;b&gt;jeux&lt;/b&gt;&lt;b&gt;&amp;nbsp;&lt;br&gt;date_de_sortie&lt;/b&gt;" style="text;html=1;align=center;verticalAlign=middle;resizable=0;points=[];autosize=1;" parent="1" vertex="1">
          <mxGeometry x="684" y="959" width="100" height="30" as="geometry" />
        </mxCell>
        <mxCell id="1cghVQ-aD5FAPNCG-Nsp-54" value="&lt;b&gt;jeux:&amp;nbsp;&lt;br&gt;&lt;/b&gt;&lt;b&gt;developpé_par&lt;/b&gt;" style="text;html=1;align=center;verticalAlign=middle;resizable=0;points=[];autosize=1;" parent="1" vertex="1">
          <mxGeometry x="921" y="954" width="100" height="30" as="geometry" />
        </mxCell>
        <mxCell id="1cghVQ-aD5FAPNCG-Nsp-55" value="&lt;b&gt;jeux:&lt;br&gt;&lt;/b&gt;&lt;b&gt;&amp;nbsp;date_de_sortie&lt;/b&gt;" style="text;html=1;align=center;verticalAlign=middle;resizable=0;points=[];autosize=1;" parent="1" vertex="1">
          <mxGeometry x="1099" y="974" width="100" height="30" as="geometry" />
        </mxCell>
        <mxCell id="1cghVQ-aD5FAPNCG-Nsp-56" value="&quot;2K_Sports&quot;@en" style="rounded=0;whiteSpace=wrap;html=1;" parent="1" vertex="1">
          <mxGeometry x="9" y="1034" width="100" height="60" as="geometry" />
        </mxCell>
        <mxCell id="1cghVQ-aD5FAPNCG-Nsp-57" value="&quot;2020&quot;^^xsd:int" style="rounded=0;whiteSpace=wrap;html=1;" parent="1" vertex="1">
          <mxGeometry x="159" y="1034" width="100" height="60" as="geometry" />
        </mxCell>
        <mxCell id="1cghVQ-aD5FAPNCG-Nsp-58" value="&quot;EA_Sports&quot;@en" style="rounded=0;whiteSpace=wrap;html=1;" parent="1" vertex="1">
          <mxGeometry x="279" y="1034" width="110" height="60" as="geometry" />
        </mxCell>
        <mxCell id="1cghVQ-aD5FAPNCG-Nsp-59" value="&quot;2020&quot;^^xsd:int" style="rounded=0;whiteSpace=wrap;html=1;" parent="1" vertex="1">
          <mxGeometry x="414" y="1034" width="95" height="60" as="geometry" />
        </mxCell>
        <mxCell id="1cghVQ-aD5FAPNCG-Nsp-60" value="&quot;Nitendo_Entertainment&lt;br&gt;@en" style="rounded=0;whiteSpace=wrap;html=1;" parent="1" vertex="1">
          <mxGeometry x="529" y="1034" width="135" height="60" as="geometry" />
        </mxCell>
        <mxCell id="1cghVQ-aD5FAPNCG-Nsp-61" value="&quot;2019&quot;^^xsd:int" style="rounded=0;whiteSpace=wrap;html=1;" parent="1" vertex="1">
          <mxGeometry x="679" y="1034" width="90" height="60" as="geometry" />
        </mxCell>
        <mxCell id="1cghVQ-aD5FAPNCG-Nsp-62" value="&quot;Naughty_dog&quot; &lt;br&gt;@en" style="rounded=0;whiteSpace=wrap;html=1;" parent="1" vertex="1">
          <mxGeometry x="784" y="1034" width="100" height="60" as="geometry" />
        </mxCell>
        <mxCell id="1cghVQ-aD5FAPNCG-Nsp-63" value="&quot;2016&quot;^^xsd:int" style="rounded=0;whiteSpace=wrap;html=1;" parent="1" vertex="1">
          <mxGeometry x="894" y="1034" width="95" height="60" as="geometry" />
        </mxCell>
        <mxCell id="1cghVQ-aD5FAPNCG-Nsp-64" value="&quot;Maxis&quot;@en" style="rounded=0;whiteSpace=wrap;html=1;" parent="1" vertex="1">
          <mxGeometry x="994" y="1034" width="85" height="60" as="geometry" />
        </mxCell>
        <mxCell id="1cghVQ-aD5FAPNCG-Nsp-65" value="&quot;1989&quot;^^xsd:int" style="rounded=0;whiteSpace=wrap;html=1;" parent="1" vertex="1">
          <mxGeometry x="1089" y="1034" width="90" height="60" as="geometry" />
        </mxCell>
        <mxCell id="1cghVQ-aD5FAPNCG-Nsp-66" value="&quot;The_Sims_Studio&quot;&lt;br&gt;@en" style="rounded=0;whiteSpace=wrap;html=1;" parent="1" vertex="1">
          <mxGeometry x="1187" y="1034" width="112" height="60" as="geometry" />
        </mxCell>
        <mxCell id="1cghVQ-aD5FAPNCG-Nsp-67" value="&quot;2014&quot;^^xsd:int" style="rounded=0;whiteSpace=wrap;html=1;" parent="1" vertex="1">
          <mxGeometry x="1316" y="1034" width="120" height="60" as="geometry" />
        </mxCell>
        <mxCell id="1cghVQ-aD5FAPNCG-Nsp-68" value="&lt;p style=&quot;margin: 0px ; font-stretch: normal ; line-height: normal ; font-family: &amp;#34;menlo&amp;#34; ; color: rgb(78 , 144 , 114)&quot;&gt;&lt;b&gt;&lt;span style=&quot;text-decoration: underline ; color: #777777&quot;&gt;@&lt;/span&gt;&lt;span style=&quot;text-decoration: underline ; color: #000000&quot;&gt;prefix rdf:&amp;lt;&lt;/span&gt;&lt;span style=&quot;color: #000000&quot;&gt;http:&lt;/span&gt;//www.w3.&lt;span style=&quot;text-decoration: underline&quot;&gt;org&lt;/span&gt;/1999/02/22-&lt;span style=&quot;text-decoration: underline&quot;&gt;rdf&lt;/span&gt;-syntax-&lt;span style=&quot;text-decoration: underline&quot;&gt;ns&lt;/span&gt;#&amp;gt;&amp;nbsp;&lt;/b&gt;&lt;/p&gt;&lt;p style=&quot;margin: 0px ; font-stretch: normal ; line-height: normal ; font-family: &amp;#34;menlo&amp;#34; ; color: rgb(78 , 144 , 114)&quot;&gt;&lt;b&gt;&lt;span style=&quot;text-decoration: underline ; color: rgb(119 , 119 , 119)&quot;&gt;@&lt;/span&gt;&lt;span style=&quot;text-decoration: underline ; color: rgb(0 , 0 , 0)&quot;&gt;prefix xsd:&amp;lt;&lt;/span&gt;&lt;span style=&quot;color: rgb(0 , 0 , 0)&quot;&gt;http:&lt;/span&gt;//www.w3.&lt;span style=&quot;text-decoration: underline&quot;&gt;org&lt;/span&gt;/2001/XMLSchema#&amp;gt;&amp;nbsp;&lt;/b&gt;&lt;/p&gt;&lt;p style=&quot;margin: 0px ; font-stretch: normal ; line-height: normal ; font-family: &amp;#34;menlo&amp;#34; ; color: rgb(78 , 144 , 114)&quot;&gt;&lt;b&gt;&lt;span style=&quot;text-decoration: underline ; color: #777777&quot;&gt;@&lt;/span&gt;&lt;span style=&quot;text-decoration: underline ; color: #000000&quot;&gt;prefix rdfs:&amp;lt;&lt;/span&gt;&lt;span style=&quot;color: #000000&quot;&gt;http:&lt;/span&gt;//www.w3.&lt;span style=&quot;text-decoration: underline&quot;&gt;org&lt;/span&gt;/2000/01/&lt;span style=&quot;text-decoration: underline&quot;&gt;rdf&lt;/span&gt;-schema#&amp;gt;&amp;nbsp;&lt;/b&gt;&lt;/p&gt;&lt;p style=&quot;margin: 0px ; font-stretch: normal ; line-height: normal ; font-family: &amp;#34;menlo&amp;#34; ; color: rgb(78 , 144 , 114)&quot;&gt;&lt;b&gt;&lt;span style=&quot;text-decoration: underline ; color: #777777&quot;&gt;@&lt;/span&gt;&lt;span style=&quot;text-decoration: underline ; color: #000000&quot;&gt;prefix jeux:&amp;lt;&lt;/span&gt;&lt;span style=&quot;color: #000000&quot;&gt;http&lt;/span&gt;&lt;span style=&quot;text-decoration: underline ; color: #000000&quot;&gt;:&lt;/span&gt;//www.jeux.fr/&lt;span style=&quot;text-decoration: underline&quot;&gt;jeux&lt;/span&gt;#&amp;gt;&amp;nbsp;&lt;/b&gt;&lt;/p&gt;" style="text;html=1;align=center;verticalAlign=middle;resizable=0;points=[];autosize=1;" parent="1" vertex="1">
          <mxGeometry x="149" y="374" width="430" height="60" as="geometry" />
        </mxCell>
      </root>
    </mxGraphModel>
  </diagram>
  <diagram name="Page-1" id="VIYWqsEMyBJD7VkfNQ44">
    <mxGraphModel dx="3364" dy="910" grid="1" gridSize="10" guides="1" tooltips="1" connect="1" arrows="1" fold="1" page="1" pageScale="1" pageWidth="827" pageHeight="1169" math="0" shadow="0">
      <root>
        <mxCell id="0" />
        <mxCell id="1" parent="0" />
        <mxCell id="Df8TM-Ac5vUf3CZMcfcd-4" style="edgeStyle=orthogonalEdgeStyle;rounded=0;orthogonalLoop=1;jettySize=auto;html=1;entryX=0.5;entryY=0;entryDx=0;entryDy=0;endArrow=none;endFill=0;startArrow=classic;startFill=1;" parent="1" source="Df8TM-Ac5vUf3CZMcfcd-1" target="Df8TM-Ac5vUf3CZMcfcd-3" edge="1">
          <mxGeometry relative="1" as="geometry">
            <Array as="points">
              <mxPoint x="660" y="300" />
              <mxPoint x="660" y="300" />
            </Array>
          </mxGeometry>
        </mxCell>
        <mxCell id="Df8TM-Ac5vUf3CZMcfcd-1" value="rdfs:Class" style="ellipse;whiteSpace=wrap;html=1;" parent="1" vertex="1">
          <mxGeometry x="600" y="210" width="120" height="60" as="geometry" />
        </mxCell>
        <mxCell id="Df8TM-Ac5vUf3CZMcfcd-8" style="orthogonalLoop=1;jettySize=auto;html=1;entryX=0.5;entryY=0;entryDx=0;entryDy=0;endArrow=none;endFill=0;startArrow=classic;startFill=1;rounded=0;" parent="1" source="Df8TM-Ac5vUf3CZMcfcd-3" target="Df8TM-Ac5vUf3CZMcfcd-7" edge="1">
          <mxGeometry relative="1" as="geometry" />
        </mxCell>
        <mxCell id="Df8TM-Ac5vUf3CZMcfcd-67" style="edgeStyle=orthogonalEdgeStyle;rounded=0;orthogonalLoop=1;jettySize=auto;html=1;startArrow=classic;startFill=1;endArrow=none;endFill=0;" parent="1" source="Df8TM-Ac5vUf3CZMcfcd-3" target="Df8TM-Ac5vUf3CZMcfcd-66" edge="1">
          <mxGeometry relative="1" as="geometry" />
        </mxCell>
        <mxCell id="m4CxWfa9VkB4OniPkrt8-12" style="rounded=0;orthogonalLoop=1;jettySize=auto;html=1;entryX=0.5;entryY=0;entryDx=0;entryDy=0;strokeColor=#000000;endArrow=none;endFill=0;startArrow=classic;startFill=1;" parent="1" source="Df8TM-Ac5vUf3CZMcfcd-3" target="m4CxWfa9VkB4OniPkrt8-2" edge="1">
          <mxGeometry relative="1" as="geometry" />
        </mxCell>
        <mxCell id="Df8TM-Ac5vUf3CZMcfcd-3" value="jeux_video:Jeu_video" style="ellipse;whiteSpace=wrap;html=1;" parent="1" vertex="1">
          <mxGeometry x="600" y="320" width="120" height="60" as="geometry" />
        </mxCell>
        <mxCell id="Df8TM-Ac5vUf3CZMcfcd-6" value="rdfs:subClassOf" style="text;html=1;align=center;verticalAlign=middle;resizable=0;points=[];autosize=1;" parent="1" vertex="1">
          <mxGeometry x="660" y="280" width="100" height="20" as="geometry" />
        </mxCell>
        <mxCell id="Df8TM-Ac5vUf3CZMcfcd-16" style="rounded=0;orthogonalLoop=1;jettySize=auto;html=1;entryX=0.5;entryY=0;entryDx=0;entryDy=0;startArrow=classic;startFill=1;endArrow=none;endFill=0;" parent="1" source="Df8TM-Ac5vUf3CZMcfcd-7" target="Df8TM-Ac5vUf3CZMcfcd-15" edge="1">
          <mxGeometry relative="1" as="geometry" />
        </mxCell>
        <mxCell id="Df8TM-Ac5vUf3CZMcfcd-7" value="jeux_video:Jeux_de_sport" style="ellipse;whiteSpace=wrap;html=1;" parent="1" vertex="1">
          <mxGeometry x="-474" y="430" width="120" height="60" as="geometry" />
        </mxCell>
        <mxCell id="Df8TM-Ac5vUf3CZMcfcd-9" value="rdfs:subClassOf" style="text;html=1;align=center;verticalAlign=middle;resizable=0;points=[];autosize=1;" parent="1" vertex="1">
          <mxGeometry x="40" y="360" width="100" height="20" as="geometry" />
        </mxCell>
        <mxCell id="Df8TM-Ac5vUf3CZMcfcd-24" style="rounded=0;orthogonalLoop=1;jettySize=auto;html=1;entryX=0.567;entryY=0.02;entryDx=0;entryDy=0;entryPerimeter=0;startArrow=none;startFill=0;endArrow=classic;endFill=1;" parent="1" source="Df8TM-Ac5vUf3CZMcfcd-10" target="Df8TM-Ac5vUf3CZMcfcd-23" edge="1">
          <mxGeometry relative="1" as="geometry" />
        </mxCell>
        <mxCell id="Df8TM-Ac5vUf3CZMcfcd-51" style="edgeStyle=orthogonalEdgeStyle;rounded=0;orthogonalLoop=1;jettySize=auto;html=1;entryX=0;entryY=0.5;entryDx=0;entryDy=0;startArrow=classic;startFill=1;endArrow=classic;endFill=1;" parent="1" source="Df8TM-Ac5vUf3CZMcfcd-10" target="Df8TM-Ac5vUf3CZMcfcd-29" edge="1">
          <mxGeometry relative="1" as="geometry" />
        </mxCell>
        <mxCell id="Df8TM-Ac5vUf3CZMcfcd-10" value="jeux_video:Fifa21" style="ellipse;whiteSpace=wrap;html=1;" parent="1" vertex="1">
          <mxGeometry x="-340" y="675" width="120" height="60" as="geometry" />
        </mxCell>
        <mxCell id="Df8TM-Ac5vUf3CZMcfcd-14" value="rdf:type" style="text;html=1;align=center;verticalAlign=middle;resizable=0;points=[];autosize=1;" parent="1" vertex="1">
          <mxGeometry x="-250" y="615" width="60" height="20" as="geometry" />
        </mxCell>
        <mxCell id="Df8TM-Ac5vUf3CZMcfcd-15" value="jeux_video:Football" style="ellipse;whiteSpace=wrap;html=1;" parent="1" vertex="1">
          <mxGeometry x="-130" y="515" width="120" height="60" as="geometry" />
        </mxCell>
        <mxCell id="Df8TM-Ac5vUf3CZMcfcd-17" value="rdfs:subClassOf" style="text;html=1;align=center;verticalAlign=middle;resizable=0;points=[];autosize=1;" parent="1" vertex="1">
          <mxGeometry x="-240" y="470" width="100" height="20" as="geometry" />
        </mxCell>
        <mxCell id="Df8TM-Ac5vUf3CZMcfcd-20" value="&quot;EA_Sports&quot;@en" style="rounded=0;whiteSpace=wrap;html=1;" parent="1" vertex="1">
          <mxGeometry x="-413.5" y="862.5" width="120" height="50" as="geometry" />
        </mxCell>
        <mxCell id="Df8TM-Ac5vUf3CZMcfcd-23" value="&quot;2020&quot;^^xsd:int" style="rounded=0;whiteSpace=wrap;html=1;" parent="1" vertex="1">
          <mxGeometry x="-260" y="862.5" width="120" height="50" as="geometry" />
        </mxCell>
        <mxCell id="Df8TM-Ac5vUf3CZMcfcd-26" style="rounded=0;orthogonalLoop=1;jettySize=auto;html=1;startArrow=none;startFill=0;endArrow=classic;endFill=1;entryX=0.7;entryY=1;entryDx=0;entryDy=0;exitX=0.5;exitY=0;exitDx=0;exitDy=0;entryPerimeter=0;" parent="1" source="Df8TM-Ac5vUf3CZMcfcd-29" target="Df8TM-Ac5vUf3CZMcfcd-15" edge="1">
          <mxGeometry relative="1" as="geometry">
            <mxPoint x="150" y="640" as="targetPoint" />
          </mxGeometry>
        </mxCell>
        <mxCell id="Df8TM-Ac5vUf3CZMcfcd-27" style="rounded=0;orthogonalLoop=1;jettySize=auto;html=1;entryX=0.5;entryY=0;entryDx=0;entryDy=0;startArrow=none;startFill=0;endArrow=classic;endFill=1;" parent="1" source="Df8TM-Ac5vUf3CZMcfcd-29" target="Df8TM-Ac5vUf3CZMcfcd-31" edge="1">
          <mxGeometry relative="1" as="geometry" />
        </mxCell>
        <mxCell id="Df8TM-Ac5vUf3CZMcfcd-28" style="rounded=0;orthogonalLoop=1;jettySize=auto;html=1;entryX=0.567;entryY=0.02;entryDx=0;entryDy=0;entryPerimeter=0;startArrow=none;startFill=0;endArrow=classic;endFill=1;" parent="1" source="Df8TM-Ac5vUf3CZMcfcd-29" target="Df8TM-Ac5vUf3CZMcfcd-32" edge="1">
          <mxGeometry relative="1" as="geometry" />
        </mxCell>
        <mxCell id="Df8TM-Ac5vUf3CZMcfcd-29" value="jeux_video:Fifa20" style="ellipse;whiteSpace=wrap;html=1;" parent="1" vertex="1">
          <mxGeometry x="50" y="675" width="120" height="60" as="geometry" />
        </mxCell>
        <mxCell id="Df8TM-Ac5vUf3CZMcfcd-30" value="rdf:type" style="text;html=1;align=center;verticalAlign=middle;resizable=0;points=[];autosize=1;" parent="1" vertex="1">
          <mxGeometry x="40" y="615" width="60" height="20" as="geometry" />
        </mxCell>
        <mxCell id="Df8TM-Ac5vUf3CZMcfcd-31" value="&quot;EA_Sports&quot;@en" style="rounded=0;whiteSpace=wrap;html=1;" parent="1" vertex="1">
          <mxGeometry x="-30" y="865" width="120" height="50" as="geometry" />
        </mxCell>
        <mxCell id="Df8TM-Ac5vUf3CZMcfcd-32" value="&quot;2019&quot;^^xsd:int" style="rounded=0;whiteSpace=wrap;html=1;" parent="1" vertex="1">
          <mxGeometry x="130" y="865" width="120" height="50" as="geometry" />
        </mxCell>
        <mxCell id="Df8TM-Ac5vUf3CZMcfcd-33" value="jeux_video:developpe_par" style="text;html=1;align=center;verticalAlign=middle;resizable=0;points=[];autosize=1;" parent="1" vertex="1">
          <mxGeometry x="-70" y="780" width="160" height="20" as="geometry" />
        </mxCell>
        <mxCell id="Df8TM-Ac5vUf3CZMcfcd-52" value="jeux_video:meme_type_de_jeu_que" style="text;html=1;align=center;verticalAlign=middle;resizable=0;points=[];autosize=1;" parent="1" vertex="1">
          <mxGeometry x="-200" y="680" width="210" height="20" as="geometry" />
        </mxCell>
        <mxCell id="RDTe6__JQuTidJs4tcVA-9" style="rounded=0;orthogonalLoop=1;jettySize=auto;html=1;exitX=0.686;exitY=0.972;exitDx=0;exitDy=0;entryX=0.5;entryY=0;entryDx=0;entryDy=0;strokeColor=#000000;endArrow=none;endFill=0;startArrow=classic;startFill=1;exitPerimeter=0;" parent="1" source="Df8TM-Ac5vUf3CZMcfcd-66" target="RDTe6__JQuTidJs4tcVA-3" edge="1">
          <mxGeometry relative="1" as="geometry" />
        </mxCell>
        <mxCell id="Df8TM-Ac5vUf3CZMcfcd-66" value="jeux_video:Jeux_d_aventure" style="ellipse;whiteSpace=wrap;html=1;" parent="1" vertex="1">
          <mxGeometry x="600" y="420" width="120" height="60" as="geometry" />
        </mxCell>
        <mxCell id="Df8TM-Ac5vUf3CZMcfcd-68" value="rdfs:subClassOf" style="text;html=1;align=center;verticalAlign=middle;resizable=0;points=[];autosize=1;" parent="1" vertex="1">
          <mxGeometry x="660" y="390" width="100" height="20" as="geometry" />
        </mxCell>
        <mxCell id="Df8TM-Ac5vUf3CZMcfcd-71" style="rounded=0;orthogonalLoop=1;jettySize=auto;html=1;entryX=0.5;entryY=0;entryDx=0;entryDy=0;startArrow=none;startFill=0;endArrow=classic;endFill=1;" parent="1" source="Df8TM-Ac5vUf3CZMcfcd-73" target="Df8TM-Ac5vUf3CZMcfcd-75" edge="1">
          <mxGeometry relative="1" as="geometry" />
        </mxCell>
        <mxCell id="Df8TM-Ac5vUf3CZMcfcd-72" style="rounded=0;orthogonalLoop=1;jettySize=auto;html=1;entryX=0.567;entryY=0.02;entryDx=0;entryDy=0;entryPerimeter=0;startArrow=none;startFill=0;endArrow=classic;endFill=1;" parent="1" source="Df8TM-Ac5vUf3CZMcfcd-73" target="Df8TM-Ac5vUf3CZMcfcd-76" edge="1">
          <mxGeometry relative="1" as="geometry" />
        </mxCell>
        <mxCell id="Df8TM-Ac5vUf3CZMcfcd-79" style="rounded=0;orthogonalLoop=1;jettySize=auto;html=1;startArrow=none;startFill=0;endArrow=classic;endFill=1;exitX=0.5;exitY=0;exitDx=0;exitDy=0;" parent="1" source="Df8TM-Ac5vUf3CZMcfcd-73" target="Df8TM-Ac5vUf3CZMcfcd-66" edge="1">
          <mxGeometry relative="1" as="geometry" />
        </mxCell>
        <mxCell id="Df8TM-Ac5vUf3CZMcfcd-73" value="jeux_video:GTA_V" style="ellipse;whiteSpace=wrap;html=1;" parent="1" vertex="1">
          <mxGeometry x="400" y="675" width="120" height="60" as="geometry" />
        </mxCell>
        <mxCell id="Df8TM-Ac5vUf3CZMcfcd-74" value="rdf:type" style="text;html=1;align=center;verticalAlign=middle;resizable=0;points=[];autosize=1;" parent="1" vertex="1">
          <mxGeometry x="440" y="615" width="60" height="20" as="geometry" />
        </mxCell>
        <mxCell id="Df8TM-Ac5vUf3CZMcfcd-75" value="&quot;Rockstar_Games&quot;@en" style="rounded=0;whiteSpace=wrap;html=1;" parent="1" vertex="1">
          <mxGeometry x="325" y="860" width="120" height="50" as="geometry" />
        </mxCell>
        <mxCell id="Df8TM-Ac5vUf3CZMcfcd-76" value="&quot;2013&quot;^^xsd:int" style="rounded=0;whiteSpace=wrap;html=1;" parent="1" vertex="1">
          <mxGeometry x="470" y="862.5" width="120" height="50" as="geometry" />
        </mxCell>
        <mxCell id="Df8TM-Ac5vUf3CZMcfcd-77" value="jeux_video:developpe_par" style="text;html=1;align=center;verticalAlign=middle;resizable=0;points=[];autosize=1;" parent="1" vertex="1">
          <mxGeometry x="300" y="820" width="160" height="20" as="geometry" />
        </mxCell>
        <mxCell id="Dd9eRvJQNFfVFxGSySjW-26" style="rounded=0;orthogonalLoop=1;jettySize=auto;html=1;entryX=0;entryY=0.5;entryDx=0;entryDy=0;startArrow=none;startFill=0;endArrow=classic;endFill=1;exitX=0.5;exitY=0;exitDx=0;exitDy=0;" parent="1" source="Dd9eRvJQNFfVFxGSySjW-25" target="Df8TM-Ac5vUf3CZMcfcd-7" edge="1">
          <mxGeometry relative="1" as="geometry" />
        </mxCell>
        <mxCell id="Dd9eRvJQNFfVFxGSySjW-25" value="jeux_video:Basketball" style="ellipse;whiteSpace=wrap;html=1;" parent="1" vertex="1">
          <mxGeometry x="-820" y="525" width="120" height="60" as="geometry" />
        </mxCell>
        <mxCell id="Dd9eRvJQNFfVFxGSySjW-27" value="rdfs:subClassOf" style="text;html=1;align=center;verticalAlign=middle;resizable=0;points=[];autosize=1;" parent="1" vertex="1">
          <mxGeometry x="-710" y="470" width="100" height="20" as="geometry" />
        </mxCell>
        <mxCell id="Dd9eRvJQNFfVFxGSySjW-29" style="rounded=0;orthogonalLoop=1;jettySize=auto;html=1;entryX=0.5;entryY=0;entryDx=0;entryDy=0;startArrow=none;startFill=0;endArrow=classic;endFill=1;" parent="1" source="Dd9eRvJQNFfVFxGSySjW-30" target="Dd9eRvJQNFfVFxGSySjW-33" edge="1">
          <mxGeometry relative="1" as="geometry" />
        </mxCell>
        <mxCell id="Dd9eRvJQNFfVFxGSySjW-35" style="rounded=0;orthogonalLoop=1;jettySize=auto;html=1;entryX=0.644;entryY=0.972;entryDx=0;entryDy=0;startArrow=none;startFill=0;endArrow=classic;endFill=1;entryPerimeter=0;" parent="1" source="Dd9eRvJQNFfVFxGSySjW-30" target="Dd9eRvJQNFfVFxGSySjW-25" edge="1">
          <mxGeometry relative="1" as="geometry" />
        </mxCell>
        <mxCell id="Dd9eRvJQNFfVFxGSySjW-30" value="jeux_video:Nba2k21" style="ellipse;whiteSpace=wrap;html=1;" parent="1" vertex="1">
          <mxGeometry x="-640" y="675" width="120" height="60" as="geometry" />
        </mxCell>
        <mxCell id="Dd9eRvJQNFfVFxGSySjW-31" value="&quot;2k_Games&quot;@en" style="rounded=0;whiteSpace=wrap;html=1;" parent="1" vertex="1">
          <mxGeometry x="-740" y="862.5" width="120" height="50" as="geometry" />
        </mxCell>
        <mxCell id="Dd9eRvJQNFfVFxGSySjW-32" value="jeux_video:developpe_par" style="text;html=1;align=center;verticalAlign=middle;resizable=0;points=[];autosize=1;" parent="1" vertex="1">
          <mxGeometry x="-770" y="785" width="160" height="20" as="geometry" />
        </mxCell>
        <mxCell id="Dd9eRvJQNFfVFxGSySjW-33" value="&quot;2020&quot;^^xsd:int" style="rounded=0;whiteSpace=wrap;html=1;" parent="1" vertex="1">
          <mxGeometry x="-570" y="862.5" width="120" height="50" as="geometry" />
        </mxCell>
        <mxCell id="Dd9eRvJQNFfVFxGSySjW-36" value="rdf:type" style="text;html=1;align=center;verticalAlign=middle;resizable=0;points=[];autosize=1;" parent="1" vertex="1">
          <mxGeometry x="-570" y="610" width="60" height="20" as="geometry" />
        </mxCell>
        <mxCell id="Dd9eRvJQNFfVFxGSySjW-37" style="rounded=0;orthogonalLoop=1;jettySize=auto;html=1;entryX=0.5;entryY=0;entryDx=0;entryDy=0;startArrow=none;startFill=0;endArrow=classic;endFill=1;exitX=0.311;exitY=0.972;exitDx=0;exitDy=0;exitPerimeter=0;" parent="1" source="Dd9eRvJQNFfVFxGSySjW-39" target="Dd9eRvJQNFfVFxGSySjW-40" edge="1">
          <mxGeometry relative="1" as="geometry" />
        </mxCell>
        <mxCell id="Dd9eRvJQNFfVFxGSySjW-38" style="rounded=0;orthogonalLoop=1;jettySize=auto;html=1;entryX=0.5;entryY=0;entryDx=0;entryDy=0;startArrow=none;startFill=0;endArrow=classic;endFill=1;exitX=0.672;exitY=1;exitDx=0;exitDy=0;exitPerimeter=0;" parent="1" source="Dd9eRvJQNFfVFxGSySjW-39" target="Dd9eRvJQNFfVFxGSySjW-41" edge="1">
          <mxGeometry relative="1" as="geometry" />
        </mxCell>
        <mxCell id="Dd9eRvJQNFfVFxGSySjW-44" style="rounded=0;orthogonalLoop=1;jettySize=auto;html=1;entryX=0.311;entryY=0.972;entryDx=0;entryDy=0;startArrow=none;startFill=0;endArrow=classic;endFill=1;entryPerimeter=0;" parent="1" source="Dd9eRvJQNFfVFxGSySjW-39" target="Dd9eRvJQNFfVFxGSySjW-25" edge="1">
          <mxGeometry relative="1" as="geometry" />
        </mxCell>
        <mxCell id="Dd9eRvJQNFfVFxGSySjW-46" style="edgeStyle=orthogonalEdgeStyle;rounded=0;orthogonalLoop=1;jettySize=auto;html=1;entryX=0;entryY=0.5;entryDx=0;entryDy=0;startArrow=classic;startFill=1;endArrow=classic;endFill=1;exitX=1;exitY=0.5;exitDx=0;exitDy=0;" parent="1" source="Dd9eRvJQNFfVFxGSySjW-39" target="Dd9eRvJQNFfVFxGSySjW-30" edge="1">
          <mxGeometry relative="1" as="geometry">
            <Array as="points">
              <mxPoint x="-680" y="705" />
              <mxPoint x="-680" y="705" />
            </Array>
          </mxGeometry>
        </mxCell>
        <mxCell id="Dd9eRvJQNFfVFxGSySjW-39" value="jeux_video:Nba2k20" style="ellipse;whiteSpace=wrap;html=1;" parent="1" vertex="1">
          <mxGeometry x="-1030" y="675" width="120" height="60" as="geometry" />
        </mxCell>
        <mxCell id="Dd9eRvJQNFfVFxGSySjW-40" value="&quot;2k_Games&quot;@en" style="rounded=0;whiteSpace=wrap;html=1;" parent="1" vertex="1">
          <mxGeometry x="-1120" y="865" width="120" height="50" as="geometry" />
        </mxCell>
        <mxCell id="Dd9eRvJQNFfVFxGSySjW-41" value="&quot;2019&quot;^^xsd:int" style="rounded=0;whiteSpace=wrap;html=1;" parent="1" vertex="1">
          <mxGeometry x="-970" y="865" width="120" height="50" as="geometry" />
        </mxCell>
        <mxCell id="Dd9eRvJQNFfVFxGSySjW-42" value="jeux_video:annee_de_sortie" style="text;html=1;align=center;verticalAlign=middle;resizable=0;points=[];autosize=1;" parent="1" vertex="1">
          <mxGeometry x="-995" y="765" width="170" height="20" as="geometry" />
        </mxCell>
        <mxCell id="Dd9eRvJQNFfVFxGSySjW-43" value="rdf:type" style="text;html=1;align=center;verticalAlign=middle;resizable=0;points=[];autosize=1;" parent="1" vertex="1">
          <mxGeometry x="-930" y="610" width="60" height="20" as="geometry" />
        </mxCell>
        <mxCell id="Dd9eRvJQNFfVFxGSySjW-45" value="jeux_video:developpe_par" style="text;html=1;align=center;verticalAlign=middle;resizable=0;points=[];autosize=1;" parent="1" vertex="1">
          <mxGeometry x="-1190" y="765" width="160" height="20" as="geometry" />
        </mxCell>
        <mxCell id="Dd9eRvJQNFfVFxGSySjW-47" value="jeux_video:meme_type_de_jeu_que" style="text;html=1;align=center;verticalAlign=middle;resizable=0;points=[];autosize=1;" parent="1" vertex="1">
          <mxGeometry x="-890" y="680" width="210" height="20" as="geometry" />
        </mxCell>
        <mxCell id="RDTe6__JQuTidJs4tcVA-1" style="rounded=0;orthogonalLoop=1;jettySize=auto;html=1;entryX=0.5;entryY=0;entryDx=0;entryDy=0;startArrow=none;startFill=0;endArrow=classic;endFill=1;" parent="1" source="RDTe6__JQuTidJs4tcVA-3" target="RDTe6__JQuTidJs4tcVA-5" edge="1">
          <mxGeometry relative="1" as="geometry" />
        </mxCell>
        <mxCell id="RDTe6__JQuTidJs4tcVA-2" style="rounded=0;orthogonalLoop=1;jettySize=auto;html=1;entryX=0.567;entryY=0.02;entryDx=0;entryDy=0;entryPerimeter=0;startArrow=none;startFill=0;endArrow=classic;endFill=1;" parent="1" source="RDTe6__JQuTidJs4tcVA-3" target="RDTe6__JQuTidJs4tcVA-6" edge="1">
          <mxGeometry relative="1" as="geometry" />
        </mxCell>
        <mxCell id="RDTe6__JQuTidJs4tcVA-3" value="jeux_video:Uncharted_IV" style="ellipse;whiteSpace=wrap;html=1;" parent="1" vertex="1">
          <mxGeometry x="730" y="670" width="150" height="60" as="geometry" />
        </mxCell>
        <mxCell id="RDTe6__JQuTidJs4tcVA-4" value="rdf:type" style="text;html=1;align=center;verticalAlign=middle;resizable=0;points=[];autosize=1;" parent="1" vertex="1">
          <mxGeometry x="810" y="630" width="60" height="20" as="geometry" />
        </mxCell>
        <mxCell id="RDTe6__JQuTidJs4tcVA-5" value="&quot;Naughty_Dog&quot;@en" style="rounded=0;whiteSpace=wrap;html=1;" parent="1" vertex="1">
          <mxGeometry x="670" y="860" width="120" height="50" as="geometry" />
        </mxCell>
        <mxCell id="RDTe6__JQuTidJs4tcVA-6" value="&quot;2016&quot;^^xsd:int" style="rounded=0;whiteSpace=wrap;html=1;" parent="1" vertex="1">
          <mxGeometry x="820" y="860" width="120" height="50" as="geometry" />
        </mxCell>
        <mxCell id="RDTe6__JQuTidJs4tcVA-7" value="jeux_video:developpe_par" style="text;html=1;align=center;verticalAlign=middle;resizable=0;points=[];autosize=1;" parent="1" vertex="1">
          <mxGeometry x="610" y="760" width="160" height="20" as="geometry" />
        </mxCell>
        <mxCell id="m4CxWfa9VkB4OniPkrt8-1" style="rounded=0;orthogonalLoop=1;jettySize=auto;html=1;entryX=0.5;entryY=0;entryDx=0;entryDy=0;strokeColor=#000000;endArrow=none;endFill=0;startArrow=classic;startFill=1;" parent="1" source="m4CxWfa9VkB4OniPkrt8-2" target="m4CxWfa9VkB4OniPkrt8-6" edge="1">
          <mxGeometry relative="1" as="geometry" />
        </mxCell>
        <mxCell id="m4CxWfa9VkB4OniPkrt8-2" value="jeux_video:Jeux_de_simulation" style="ellipse;whiteSpace=wrap;html=1;" parent="1" vertex="1">
          <mxGeometry x="1220" y="420" width="120" height="60" as="geometry" />
        </mxCell>
        <mxCell id="m4CxWfa9VkB4OniPkrt8-3" value="rdfs:subClassOf" style="text;html=1;align=center;verticalAlign=middle;resizable=0;points=[];autosize=1;" parent="1" vertex="1">
          <mxGeometry x="980" y="360" width="100" height="20" as="geometry" />
        </mxCell>
        <mxCell id="m4CxWfa9VkB4OniPkrt8-4" style="rounded=0;orthogonalLoop=1;jettySize=auto;html=1;entryX=0.5;entryY=0;entryDx=0;entryDy=0;startArrow=none;startFill=0;endArrow=classic;endFill=1;" parent="1" source="m4CxWfa9VkB4OniPkrt8-6" target="m4CxWfa9VkB4OniPkrt8-8" edge="1">
          <mxGeometry relative="1" as="geometry" />
        </mxCell>
        <mxCell id="m4CxWfa9VkB4OniPkrt8-5" style="rounded=0;orthogonalLoop=1;jettySize=auto;html=1;entryX=0.567;entryY=0.02;entryDx=0;entryDy=0;entryPerimeter=0;startArrow=none;startFill=0;endArrow=classic;endFill=1;" parent="1" source="m4CxWfa9VkB4OniPkrt8-6" target="m4CxWfa9VkB4OniPkrt8-9" edge="1">
          <mxGeometry relative="1" as="geometry" />
        </mxCell>
        <mxCell id="m4CxWfa9VkB4OniPkrt8-6" value="jeux_video:Sims_IV" style="ellipse;whiteSpace=wrap;html=1;" parent="1" vertex="1">
          <mxGeometry x="1091" y="685" width="150" height="60" as="geometry" />
        </mxCell>
        <mxCell id="m4CxWfa9VkB4OniPkrt8-7" value="rdf:type" style="text;html=1;align=center;verticalAlign=middle;resizable=0;points=[];autosize=1;" parent="1" vertex="1">
          <mxGeometry x="1150" y="590" width="60" height="20" as="geometry" />
        </mxCell>
        <mxCell id="m4CxWfa9VkB4OniPkrt8-8" value="&quot;The_Sims_Studio&quot;&lt;br&gt;@en" style="rounded=0;whiteSpace=wrap;html=1;" parent="1" vertex="1">
          <mxGeometry x="1040" y="860" width="120" height="50" as="geometry" />
        </mxCell>
        <mxCell id="m4CxWfa9VkB4OniPkrt8-9" value="&quot;2014&quot;^^xsd:int" style="rounded=0;whiteSpace=wrap;html=1;" parent="1" vertex="1">
          <mxGeometry x="1190" y="860" width="120" height="50" as="geometry" />
        </mxCell>
        <mxCell id="m4CxWfa9VkB4OniPkrt8-10" value="jeux_video:developpe_par" style="text;html=1;align=center;verticalAlign=middle;resizable=0;points=[];autosize=1;" parent="1" vertex="1">
          <mxGeometry x="1000" y="820" width="160" height="20" as="geometry" />
        </mxCell>
        <mxCell id="-kbj7ohh_1DFdS67fRo2-2" value="jeux_video:annee_de_sortie" style="text;html=1;align=center;verticalAlign=middle;resizable=0;points=[];autosize=1;" parent="1" vertex="1">
          <mxGeometry x="490" y="820" width="170" height="20" as="geometry" />
        </mxCell>
        <mxCell id="-kbj7ohh_1DFdS67fRo2-3" value="jeux_video:annee_de_sortie" style="text;html=1;align=center;verticalAlign=middle;resizable=0;points=[];autosize=1;" parent="1" vertex="1">
          <mxGeometry x="850" y="760" width="170" height="20" as="geometry" />
        </mxCell>
        <mxCell id="-kbj7ohh_1DFdS67fRo2-4" value="jeux_video:annee_de_sortie" style="text;html=1;align=center;verticalAlign=middle;resizable=0;points=[];autosize=1;" parent="1" vertex="1">
          <mxGeometry x="105" y="780" width="170" height="20" as="geometry" />
        </mxCell>
        <mxCell id="-kbj7ohh_1DFdS67fRo2-5" value="jeux_video:annee_de_sortie" style="text;html=1;align=center;verticalAlign=middle;resizable=0;points=[];autosize=1;" parent="1" vertex="1">
          <mxGeometry x="-250" y="820" width="170" height="20" as="geometry" />
        </mxCell>
        <mxCell id="-kbj7ohh_1DFdS67fRo2-6" value="jeux_video:annee_de_sortie" style="text;html=1;align=center;verticalAlign=middle;resizable=0;points=[];autosize=1;" parent="1" vertex="1">
          <mxGeometry x="-595" y="780" width="170" height="20" as="geometry" />
        </mxCell>
        <mxCell id="-kbj7ohh_1DFdS67fRo2-7" value="jeux_video:annee_de_sortie" style="text;html=1;align=center;verticalAlign=middle;resizable=0;points=[];autosize=1;" parent="1" vertex="1">
          <mxGeometry x="1195" y="820" width="170" height="20" as="geometry" />
        </mxCell>
        <mxCell id="vuvPqKMNn0rrg6_CQ6qr-2" style="rounded=0;orthogonalLoop=1;jettySize=auto;html=1;entryX=0.5;entryY=0;entryDx=0;entryDy=0;startArrow=none;startFill=0;endArrow=classic;endFill=1;exitX=0.311;exitY=1;exitDx=0;exitDy=0;exitPerimeter=0;" parent="1" source="Dd9eRvJQNFfVFxGSySjW-30" target="Dd9eRvJQNFfVFxGSySjW-31" edge="1">
          <mxGeometry relative="1" as="geometry">
            <mxPoint x="-622.4264068711927" y="726.2132034355964" as="sourcePoint" />
            <mxPoint x="-720" y="775" as="targetPoint" />
          </mxGeometry>
        </mxCell>
        <mxCell id="vuvPqKMNn0rrg6_CQ6qr-3" style="rounded=0;orthogonalLoop=1;jettySize=auto;html=1;startArrow=none;startFill=0;endArrow=classic;endFill=1;entryX=0.311;entryY=0.972;entryDx=0;entryDy=0;entryPerimeter=0;" parent="1" target="Df8TM-Ac5vUf3CZMcfcd-15" edge="1">
          <mxGeometry relative="1" as="geometry">
            <mxPoint x="-160" y="550" as="targetPoint" />
            <mxPoint x="-250" y="679.0192378864667" as="sourcePoint" />
          </mxGeometry>
        </mxCell>
        <mxCell id="Df8TM-Ac5vUf3CZMcfcd-22" value="jeux_video:developpe_par" style="text;html=1;align=center;verticalAlign=middle;resizable=0;points=[];autosize=1;" parent="1" vertex="1">
          <mxGeometry x="-425" y="820" width="160" height="20" as="geometry" />
        </mxCell>
        <mxCell id="vuvPqKMNn0rrg6_CQ6qr-6" style="rounded=0;orthogonalLoop=1;jettySize=auto;html=1;startArrow=none;startFill=0;endArrow=classic;endFill=1;" parent="1" edge="1">
          <mxGeometry relative="1" as="geometry">
            <mxPoint x="-303" y="730" as="sourcePoint" />
            <mxPoint x="-350" y="860" as="targetPoint" />
          </mxGeometry>
        </mxCell>
        <mxCell id="tCfmnpLWgwzHZ3dGZG4X-1" value="&lt;p style=&quot;margin: 0px ; font-stretch: normal ; line-height: normal ; font-family: &amp;#34;menlo&amp;#34; ; color: rgb(78 , 144 , 114) ; font-size: 24px&quot;&gt;&lt;b&gt;&lt;font style=&quot;font-size: 24px&quot;&gt;&lt;span style=&quot;text-decoration: underline ; color: rgb(119 , 119 , 119)&quot;&gt;@&lt;/span&gt;&lt;span style=&quot;text-decoration: underline ; color: rgb(0 , 0 , 0)&quot;&gt;prefix rdf:&amp;lt;&lt;/span&gt;&lt;span style=&quot;color: rgb(0 , 0 , 0)&quot;&gt;http:&lt;/span&gt;//www.w3.&lt;span style=&quot;text-decoration: underline&quot;&gt;org&lt;/span&gt;/1999/02/22-&lt;span style=&quot;text-decoration: underline&quot;&gt;rdf&lt;/span&gt;-syntax-&lt;span style=&quot;text-decoration: underline&quot;&gt;ns&lt;/span&gt;#&amp;gt;&amp;nbsp;&lt;/font&gt;&lt;/b&gt;&lt;/p&gt;&lt;p style=&quot;margin: 0px ; font-stretch: normal ; line-height: normal ; font-family: &amp;#34;menlo&amp;#34; ; color: rgb(78 , 144 , 114) ; font-size: 24px&quot;&gt;&lt;b&gt;&lt;font style=&quot;font-size: 24px&quot;&gt;&lt;span style=&quot;text-decoration: underline ; color: rgb(119 , 119 , 119)&quot;&gt;@&lt;/span&gt;&lt;span style=&quot;text-decoration: underline ; color: rgb(0 , 0 , 0)&quot;&gt;prefix xsd:&amp;lt;&lt;/span&gt;&lt;span style=&quot;color: rgb(0 , 0 , 0)&quot;&gt;http:&lt;/span&gt;//www.w3.&lt;span style=&quot;text-decoration: underline&quot;&gt;org&lt;/span&gt;/2001/XMLSchema#&amp;gt;&amp;nbsp;&lt;/font&gt;&lt;/b&gt;&lt;/p&gt;&lt;p style=&quot;margin: 0px ; font-stretch: normal ; line-height: normal ; font-family: &amp;#34;menlo&amp;#34; ; color: rgb(78 , 144 , 114) ; font-size: 24px&quot;&gt;&lt;b&gt;&lt;font style=&quot;font-size: 24px&quot;&gt;&lt;span style=&quot;text-decoration: underline ; color: #777777&quot;&gt;@&lt;/span&gt;&lt;span style=&quot;text-decoration: underline ; color: #000000&quot;&gt;prefix rdfs:&amp;lt;&lt;/span&gt;&lt;span style=&quot;color: #000000&quot;&gt;http:&lt;/span&gt;//www.w3.&lt;span style=&quot;text-decoration: underline&quot;&gt;org&lt;/span&gt;/2000/01/&lt;span style=&quot;text-decoration: underline&quot;&gt;rdf&lt;/span&gt;-schema#&amp;gt;&amp;nbsp;&lt;/font&gt;&lt;/b&gt;&lt;/p&gt;&lt;p style=&quot;margin: 0px ; font-stretch: normal ; line-height: normal&quot;&gt;&lt;font&gt;&lt;span style=&quot;color: rgb(119 , 119 , 119) ; font-family: &amp;#34;menlo&amp;#34; ; font-size: 24px ; font-weight: bold ; text-decoration: underline&quot;&gt;@&lt;/span&gt;&lt;span style=&quot;color: rgb(0 , 0 , 0) ; font-family: &amp;#34;menlo&amp;#34; ; font-size: 24px ; font-weight: bold ; text-decoration: underline&quot;&gt;prefix jeux_video:&amp;lt;&lt;/span&gt;&lt;span style=&quot;color: rgb(0 , 0 , 0) ; font-family: &amp;#34;menlo&amp;#34; ; font-size: 24px ; font-weight: bold&quot;&gt;http&lt;/span&gt;&lt;span style=&quot;color: rgb(0 , 0 , 0) ; font-family: &amp;#34;menlo&amp;#34; ; font-size: 24px ; font-weight: bold ; text-decoration: underline&quot;&gt;:&lt;/span&gt;&lt;b style=&quot;color: rgb(78 , 144 , 114) ; font-family: &amp;#34;menlo&amp;#34; ; font-size: 24px&quot;&gt;//&lt;/b&gt;&lt;font color=&quot;#4e9072&quot; face=&quot;menlo&quot;&gt;&lt;span style=&quot;font-size: 24px&quot;&gt;&lt;b&gt;/www.ex.fr&lt;/b&gt;&lt;/span&gt;&lt;/font&gt;&lt;b style=&quot;color: rgb(78 , 144 , 114) ; font-family: &amp;#34;menlo&amp;#34; ; font-size: 24px&quot;&gt;/&lt;/b&gt;&lt;span style=&quot;color: rgb(78 , 144 , 114) ; font-family: &amp;#34;menlo&amp;#34; ; font-size: 24px ; font-weight: bold ; text-decoration: underline&quot;&gt;jeux_video&lt;/span&gt;&lt;b style=&quot;color: rgb(78 , 144 , 114) ; font-family: &amp;#34;menlo&amp;#34; ; font-size: 24px&quot;&gt;#&amp;gt;&amp;nbsp;&lt;/b&gt;&lt;/font&gt;&lt;/p&gt;" style="text;html=1;align=center;verticalAlign=middle;resizable=0;points=[];autosize=1;labelBorderColor=none;" parent="1" vertex="1">
          <mxGeometry x="-668" y="63" width="640" height="110" as="geometry" />
        </mxCell>
      </root>
    </mxGraphModel>
  </diagram>
  <diagram name="Page-3" id="GhWA81aWfEwv3o9od64e">
    <mxGraphModel dx="2680" dy="546" grid="1" gridSize="10" guides="1" tooltips="1" connect="1" arrows="1" fold="1" page="1" pageScale="1" pageWidth="827" pageHeight="1169" math="0" shadow="0">
      <root>
        <mxCell id="C6R63PBGMa6tpTrgzs1n-0" />
        <mxCell id="C6R63PBGMa6tpTrgzs1n-1" parent="C6R63PBGMa6tpTrgzs1n-0" />
        <mxCell id="AXxpOQXNzuFp9G2y0jri-1" value="rdfs:Class" style="ellipse;whiteSpace=wrap;html=1;fillColor=#f8cecc;strokeColor=#b85450;" parent="C6R63PBGMa6tpTrgzs1n-1" vertex="1">
          <mxGeometry x="130" y="160" width="120" height="60" as="geometry" />
        </mxCell>
        <mxCell id="AXxpOQXNzuFp9G2y0jri-2" style="orthogonalLoop=1;jettySize=auto;html=1;entryX=0.5;entryY=0;entryDx=0;entryDy=0;endArrow=none;endFill=0;startArrow=classic;startFill=1;rounded=0;" parent="C6R63PBGMa6tpTrgzs1n-1" source="AXxpOQXNzuFp9G2y0jri-5" target="AXxpOQXNzuFp9G2y0jri-8" edge="1">
          <mxGeometry relative="1" as="geometry" />
        </mxCell>
        <mxCell id="AXxpOQXNzuFp9G2y0jri-87" style="edgeStyle=none;rounded=0;orthogonalLoop=1;jettySize=auto;html=1;entryX=0.5;entryY=1;entryDx=0;entryDy=0;startArrow=none;startFill=0;endArrow=classic;endFill=1;" parent="C6R63PBGMa6tpTrgzs1n-1" source="AXxpOQXNzuFp9G2y0jri-5" target="AXxpOQXNzuFp9G2y0jri-1" edge="1">
          <mxGeometry relative="1" as="geometry" />
        </mxCell>
        <mxCell id="AXxpOQXNzuFp9G2y0jri-5" value="jeux_video:Jeu_video" style="ellipse;whiteSpace=wrap;html=1;fillColor=#dae8fc;strokeColor=#6c8ebf;" parent="C6R63PBGMa6tpTrgzs1n-1" vertex="1">
          <mxGeometry x="130" y="280" width="120" height="60" as="geometry" />
        </mxCell>
        <mxCell id="AXxpOQXNzuFp9G2y0jri-6" value="rdfs:subClassOf" style="text;html=1;align=center;verticalAlign=middle;resizable=0;points=[];autosize=1;" parent="C6R63PBGMa6tpTrgzs1n-1" vertex="1">
          <mxGeometry x="200" y="240" width="100" height="20" as="geometry" />
        </mxCell>
        <mxCell id="AXxpOQXNzuFp9G2y0jri-7" style="rounded=0;orthogonalLoop=1;jettySize=auto;html=1;entryX=0.5;entryY=0;entryDx=0;entryDy=0;startArrow=classic;startFill=1;endArrow=none;endFill=0;" parent="C6R63PBGMa6tpTrgzs1n-1" source="AXxpOQXNzuFp9G2y0jri-8" target="AXxpOQXNzuFp9G2y0jri-14" edge="1">
          <mxGeometry relative="1" as="geometry" />
        </mxCell>
        <mxCell id="AXxpOQXNzuFp9G2y0jri-8" value="jeux_video:Jeux_de_sport" style="ellipse;whiteSpace=wrap;html=1;fillColor=#fff2cc;strokeColor=#d6b656;" parent="C6R63PBGMa6tpTrgzs1n-1" vertex="1">
          <mxGeometry x="-474" y="430" width="120" height="60" as="geometry" />
        </mxCell>
        <mxCell id="AXxpOQXNzuFp9G2y0jri-9" value="rdfs:subClassOf" style="text;html=1;align=center;verticalAlign=middle;resizable=0;points=[];autosize=1;" parent="C6R63PBGMa6tpTrgzs1n-1" vertex="1">
          <mxGeometry x="-128" y="330" width="100" height="20" as="geometry" />
        </mxCell>
        <mxCell id="AXxpOQXNzuFp9G2y0jri-10" style="rounded=0;orthogonalLoop=1;jettySize=auto;html=1;entryX=0.567;entryY=0.02;entryDx=0;entryDy=0;entryPerimeter=0;startArrow=none;startFill=0;endArrow=classic;endFill=1;" parent="C6R63PBGMa6tpTrgzs1n-1" source="AXxpOQXNzuFp9G2y0jri-12" target="AXxpOQXNzuFp9G2y0jri-17" edge="1">
          <mxGeometry relative="1" as="geometry" />
        </mxCell>
        <mxCell id="AXxpOQXNzuFp9G2y0jri-11" style="edgeStyle=orthogonalEdgeStyle;rounded=0;orthogonalLoop=1;jettySize=auto;html=1;entryX=0;entryY=0.5;entryDx=0;entryDy=0;startArrow=classic;startFill=1;endArrow=classic;endFill=1;" parent="C6R63PBGMa6tpTrgzs1n-1" source="AXxpOQXNzuFp9G2y0jri-12" target="AXxpOQXNzuFp9G2y0jri-21" edge="1">
          <mxGeometry relative="1" as="geometry" />
        </mxCell>
        <mxCell id="AXxpOQXNzuFp9G2y0jri-12" value="jeux_video:Fifa21" style="ellipse;whiteSpace=wrap;html=1;" parent="C6R63PBGMa6tpTrgzs1n-1" vertex="1">
          <mxGeometry x="-340" y="675" width="120" height="60" as="geometry" />
        </mxCell>
        <mxCell id="AXxpOQXNzuFp9G2y0jri-13" value="rdf:type" style="text;html=1;align=center;verticalAlign=middle;resizable=0;points=[];autosize=1;" parent="C6R63PBGMa6tpTrgzs1n-1" vertex="1">
          <mxGeometry x="-250" y="615" width="60" height="20" as="geometry" />
        </mxCell>
        <mxCell id="AXxpOQXNzuFp9G2y0jri-14" value="jeux_video:Football" style="ellipse;whiteSpace=wrap;html=1;fillColor=#d5e8d4;strokeColor=#82b366;" parent="C6R63PBGMa6tpTrgzs1n-1" vertex="1">
          <mxGeometry x="-130" y="515" width="120" height="60" as="geometry" />
        </mxCell>
        <mxCell id="AXxpOQXNzuFp9G2y0jri-15" value="rdfs:subClassOf" style="text;html=1;align=center;verticalAlign=middle;resizable=0;points=[];autosize=1;" parent="C6R63PBGMa6tpTrgzs1n-1" vertex="1">
          <mxGeometry x="-240" y="470" width="100" height="20" as="geometry" />
        </mxCell>
        <mxCell id="AXxpOQXNzuFp9G2y0jri-16" value="&quot;EA_Sports&quot;@en" style="rounded=0;whiteSpace=wrap;html=1;" parent="C6R63PBGMa6tpTrgzs1n-1" vertex="1">
          <mxGeometry x="-413.5" y="862.5" width="120" height="50" as="geometry" />
        </mxCell>
        <mxCell id="AXxpOQXNzuFp9G2y0jri-17" value="&quot;2020&quot;^^xsd:int" style="rounded=0;whiteSpace=wrap;html=1;" parent="C6R63PBGMa6tpTrgzs1n-1" vertex="1">
          <mxGeometry x="-260" y="862.5" width="120" height="50" as="geometry" />
        </mxCell>
        <mxCell id="AXxpOQXNzuFp9G2y0jri-18" style="rounded=0;orthogonalLoop=1;jettySize=auto;html=1;startArrow=none;startFill=0;endArrow=classic;endFill=1;entryX=0.7;entryY=1;entryDx=0;entryDy=0;exitX=0.5;exitY=0;exitDx=0;exitDy=0;entryPerimeter=0;" parent="C6R63PBGMa6tpTrgzs1n-1" source="AXxpOQXNzuFp9G2y0jri-21" target="AXxpOQXNzuFp9G2y0jri-14" edge="1">
          <mxGeometry relative="1" as="geometry">
            <mxPoint x="150" y="640" as="targetPoint" />
          </mxGeometry>
        </mxCell>
        <mxCell id="AXxpOQXNzuFp9G2y0jri-19" style="rounded=0;orthogonalLoop=1;jettySize=auto;html=1;entryX=0.5;entryY=0;entryDx=0;entryDy=0;startArrow=none;startFill=0;endArrow=classic;endFill=1;" parent="C6R63PBGMa6tpTrgzs1n-1" source="AXxpOQXNzuFp9G2y0jri-21" target="AXxpOQXNzuFp9G2y0jri-23" edge="1">
          <mxGeometry relative="1" as="geometry" />
        </mxCell>
        <mxCell id="AXxpOQXNzuFp9G2y0jri-20" style="rounded=0;orthogonalLoop=1;jettySize=auto;html=1;entryX=0.567;entryY=0.02;entryDx=0;entryDy=0;entryPerimeter=0;startArrow=none;startFill=0;endArrow=classic;endFill=1;" parent="C6R63PBGMa6tpTrgzs1n-1" source="AXxpOQXNzuFp9G2y0jri-21" target="AXxpOQXNzuFp9G2y0jri-24" edge="1">
          <mxGeometry relative="1" as="geometry" />
        </mxCell>
        <mxCell id="AXxpOQXNzuFp9G2y0jri-21" value="jeux_video:Fifa20" style="ellipse;whiteSpace=wrap;html=1;" parent="C6R63PBGMa6tpTrgzs1n-1" vertex="1">
          <mxGeometry x="50" y="675" width="120" height="60" as="geometry" />
        </mxCell>
        <mxCell id="AXxpOQXNzuFp9G2y0jri-22" value="rdf:type" style="text;html=1;align=center;verticalAlign=middle;resizable=0;points=[];autosize=1;" parent="C6R63PBGMa6tpTrgzs1n-1" vertex="1">
          <mxGeometry x="40" y="615" width="60" height="20" as="geometry" />
        </mxCell>
        <mxCell id="AXxpOQXNzuFp9G2y0jri-23" value="&quot;EA_Sports&quot;@en" style="rounded=0;whiteSpace=wrap;html=1;" parent="C6R63PBGMa6tpTrgzs1n-1" vertex="1">
          <mxGeometry x="-30" y="865" width="120" height="50" as="geometry" />
        </mxCell>
        <mxCell id="AXxpOQXNzuFp9G2y0jri-24" value="&quot;2019&quot;^^xsd:int" style="rounded=0;whiteSpace=wrap;html=1;" parent="C6R63PBGMa6tpTrgzs1n-1" vertex="1">
          <mxGeometry x="130" y="865" width="120" height="50" as="geometry" />
        </mxCell>
        <mxCell id="AXxpOQXNzuFp9G2y0jri-25" value="jeux_video:developpe_par" style="text;html=1;align=center;verticalAlign=middle;resizable=0;points=[];autosize=1;" parent="C6R63PBGMa6tpTrgzs1n-1" vertex="1">
          <mxGeometry x="-70" y="780" width="160" height="20" as="geometry" />
        </mxCell>
        <mxCell id="AXxpOQXNzuFp9G2y0jri-26" value="jeux_video:meme_type_de_jeu_que" style="text;html=1;align=center;verticalAlign=middle;resizable=0;points=[];autosize=1;" parent="C6R63PBGMa6tpTrgzs1n-1" vertex="1">
          <mxGeometry x="-200" y="680" width="210" height="20" as="geometry" />
        </mxCell>
        <mxCell id="AXxpOQXNzuFp9G2y0jri-27" style="rounded=0;orthogonalLoop=1;jettySize=auto;html=1;exitX=0.686;exitY=0.972;exitDx=0;exitDy=0;entryX=0.5;entryY=0;entryDx=0;entryDy=0;strokeColor=#000000;endArrow=none;endFill=0;startArrow=classic;startFill=1;exitPerimeter=0;" parent="C6R63PBGMa6tpTrgzs1n-1" source="AXxpOQXNzuFp9G2y0jri-28" target="AXxpOQXNzuFp9G2y0jri-61" edge="1">
          <mxGeometry relative="1" as="geometry" />
        </mxCell>
        <mxCell id="AXxpOQXNzuFp9G2y0jri-88" style="edgeStyle=none;rounded=0;orthogonalLoop=1;jettySize=auto;html=1;entryX=0.964;entryY=0.694;entryDx=0;entryDy=0;entryPerimeter=0;startArrow=none;startFill=0;endArrow=classic;endFill=1;" parent="C6R63PBGMa6tpTrgzs1n-1" source="AXxpOQXNzuFp9G2y0jri-28" target="AXxpOQXNzuFp9G2y0jri-5" edge="1">
          <mxGeometry relative="1" as="geometry" />
        </mxCell>
        <mxCell id="AXxpOQXNzuFp9G2y0jri-28" value="jeux_video:Jeux_d_aventure" style="ellipse;whiteSpace=wrap;html=1;fillColor=#fff2cc;strokeColor=#d6b656;" parent="C6R63PBGMa6tpTrgzs1n-1" vertex="1">
          <mxGeometry x="600" y="420" width="120" height="60" as="geometry" />
        </mxCell>
        <mxCell id="AXxpOQXNzuFp9G2y0jri-29" value="rdfs:subClassOf" style="text;html=1;align=center;verticalAlign=middle;resizable=0;points=[];autosize=1;" parent="C6R63PBGMa6tpTrgzs1n-1" vertex="1">
          <mxGeometry x="414" y="350" width="100" height="20" as="geometry" />
        </mxCell>
        <mxCell id="AXxpOQXNzuFp9G2y0jri-30" style="rounded=0;orthogonalLoop=1;jettySize=auto;html=1;entryX=0.5;entryY=0;entryDx=0;entryDy=0;startArrow=none;startFill=0;endArrow=classic;endFill=1;" parent="C6R63PBGMa6tpTrgzs1n-1" source="AXxpOQXNzuFp9G2y0jri-33" target="AXxpOQXNzuFp9G2y0jri-35" edge="1">
          <mxGeometry relative="1" as="geometry" />
        </mxCell>
        <mxCell id="AXxpOQXNzuFp9G2y0jri-31" style="rounded=0;orthogonalLoop=1;jettySize=auto;html=1;entryX=0.567;entryY=0.02;entryDx=0;entryDy=0;entryPerimeter=0;startArrow=none;startFill=0;endArrow=classic;endFill=1;" parent="C6R63PBGMa6tpTrgzs1n-1" source="AXxpOQXNzuFp9G2y0jri-33" target="AXxpOQXNzuFp9G2y0jri-36" edge="1">
          <mxGeometry relative="1" as="geometry" />
        </mxCell>
        <mxCell id="AXxpOQXNzuFp9G2y0jri-32" style="rounded=0;orthogonalLoop=1;jettySize=auto;html=1;startArrow=none;startFill=0;endArrow=classic;endFill=1;exitX=0.5;exitY=0;exitDx=0;exitDy=0;" parent="C6R63PBGMa6tpTrgzs1n-1" source="AXxpOQXNzuFp9G2y0jri-33" target="AXxpOQXNzuFp9G2y0jri-28" edge="1">
          <mxGeometry relative="1" as="geometry" />
        </mxCell>
        <mxCell id="AXxpOQXNzuFp9G2y0jri-33" value="jeux_video:GTA_V" style="ellipse;whiteSpace=wrap;html=1;" parent="C6R63PBGMa6tpTrgzs1n-1" vertex="1">
          <mxGeometry x="400" y="675" width="120" height="60" as="geometry" />
        </mxCell>
        <mxCell id="AXxpOQXNzuFp9G2y0jri-34" value="rdf:type" style="text;html=1;align=center;verticalAlign=middle;resizable=0;points=[];autosize=1;" parent="C6R63PBGMa6tpTrgzs1n-1" vertex="1">
          <mxGeometry x="440" y="615" width="60" height="20" as="geometry" />
        </mxCell>
        <mxCell id="AXxpOQXNzuFp9G2y0jri-35" value="&quot;Rockstar_Games&quot;@en" style="rounded=0;whiteSpace=wrap;html=1;" parent="C6R63PBGMa6tpTrgzs1n-1" vertex="1">
          <mxGeometry x="325" y="860" width="120" height="50" as="geometry" />
        </mxCell>
        <mxCell id="AXxpOQXNzuFp9G2y0jri-36" value="&quot;2013&quot;^^xsd:int" style="rounded=0;whiteSpace=wrap;html=1;" parent="C6R63PBGMa6tpTrgzs1n-1" vertex="1">
          <mxGeometry x="470" y="862.5" width="120" height="50" as="geometry" />
        </mxCell>
        <mxCell id="AXxpOQXNzuFp9G2y0jri-37" value="jeux_video:developpe_par" style="text;html=1;align=center;verticalAlign=middle;resizable=0;points=[];autosize=1;" parent="C6R63PBGMa6tpTrgzs1n-1" vertex="1">
          <mxGeometry x="300" y="820" width="160" height="20" as="geometry" />
        </mxCell>
        <mxCell id="AXxpOQXNzuFp9G2y0jri-38" style="rounded=0;orthogonalLoop=1;jettySize=auto;html=1;entryX=0;entryY=0.5;entryDx=0;entryDy=0;startArrow=none;startFill=0;endArrow=classic;endFill=1;exitX=0.5;exitY=0;exitDx=0;exitDy=0;" parent="C6R63PBGMa6tpTrgzs1n-1" source="AXxpOQXNzuFp9G2y0jri-39" target="AXxpOQXNzuFp9G2y0jri-8" edge="1">
          <mxGeometry relative="1" as="geometry" />
        </mxCell>
        <mxCell id="AXxpOQXNzuFp9G2y0jri-39" value="jeux_video:Basketball" style="ellipse;whiteSpace=wrap;html=1;fillColor=#d5e8d4;strokeColor=#82b366;" parent="C6R63PBGMa6tpTrgzs1n-1" vertex="1">
          <mxGeometry x="-820" y="525" width="120" height="60" as="geometry" />
        </mxCell>
        <mxCell id="AXxpOQXNzuFp9G2y0jri-40" value="rdfs:subClassOf" style="text;html=1;align=center;verticalAlign=middle;resizable=0;points=[];autosize=1;" parent="C6R63PBGMa6tpTrgzs1n-1" vertex="1">
          <mxGeometry x="-710" y="470" width="100" height="20" as="geometry" />
        </mxCell>
        <mxCell id="AXxpOQXNzuFp9G2y0jri-41" style="rounded=0;orthogonalLoop=1;jettySize=auto;html=1;entryX=0.5;entryY=0;entryDx=0;entryDy=0;startArrow=none;startFill=0;endArrow=classic;endFill=1;" parent="C6R63PBGMa6tpTrgzs1n-1" source="AXxpOQXNzuFp9G2y0jri-43" target="AXxpOQXNzuFp9G2y0jri-46" edge="1">
          <mxGeometry relative="1" as="geometry" />
        </mxCell>
        <mxCell id="AXxpOQXNzuFp9G2y0jri-42" style="rounded=0;orthogonalLoop=1;jettySize=auto;html=1;entryX=0.644;entryY=0.972;entryDx=0;entryDy=0;startArrow=none;startFill=0;endArrow=classic;endFill=1;entryPerimeter=0;" parent="C6R63PBGMa6tpTrgzs1n-1" source="AXxpOQXNzuFp9G2y0jri-43" target="AXxpOQXNzuFp9G2y0jri-39" edge="1">
          <mxGeometry relative="1" as="geometry" />
        </mxCell>
        <mxCell id="AXxpOQXNzuFp9G2y0jri-43" value="jeux_video:Nba2k21" style="ellipse;whiteSpace=wrap;html=1;" parent="C6R63PBGMa6tpTrgzs1n-1" vertex="1">
          <mxGeometry x="-640" y="675" width="120" height="60" as="geometry" />
        </mxCell>
        <mxCell id="AXxpOQXNzuFp9G2y0jri-44" value="&quot;2k_Games&quot;@en" style="rounded=0;whiteSpace=wrap;html=1;" parent="C6R63PBGMa6tpTrgzs1n-1" vertex="1">
          <mxGeometry x="-740" y="862.5" width="120" height="50" as="geometry" />
        </mxCell>
        <mxCell id="AXxpOQXNzuFp9G2y0jri-45" value="jeux_video:developpe_par" style="text;html=1;align=center;verticalAlign=middle;resizable=0;points=[];autosize=1;" parent="C6R63PBGMa6tpTrgzs1n-1" vertex="1">
          <mxGeometry x="-770" y="785" width="160" height="20" as="geometry" />
        </mxCell>
        <mxCell id="AXxpOQXNzuFp9G2y0jri-46" value="&quot;2020&quot;^^xsd:int" style="rounded=0;whiteSpace=wrap;html=1;" parent="C6R63PBGMa6tpTrgzs1n-1" vertex="1">
          <mxGeometry x="-570" y="862.5" width="120" height="50" as="geometry" />
        </mxCell>
        <mxCell id="AXxpOQXNzuFp9G2y0jri-47" value="rdf:type" style="text;html=1;align=center;verticalAlign=middle;resizable=0;points=[];autosize=1;" parent="C6R63PBGMa6tpTrgzs1n-1" vertex="1">
          <mxGeometry x="-570" y="610" width="60" height="20" as="geometry" />
        </mxCell>
        <mxCell id="AXxpOQXNzuFp9G2y0jri-48" style="rounded=0;orthogonalLoop=1;jettySize=auto;html=1;entryX=0.5;entryY=0;entryDx=0;entryDy=0;startArrow=none;startFill=0;endArrow=classic;endFill=1;exitX=0.311;exitY=0.972;exitDx=0;exitDy=0;exitPerimeter=0;" parent="C6R63PBGMa6tpTrgzs1n-1" source="AXxpOQXNzuFp9G2y0jri-52" target="AXxpOQXNzuFp9G2y0jri-53" edge="1">
          <mxGeometry relative="1" as="geometry" />
        </mxCell>
        <mxCell id="AXxpOQXNzuFp9G2y0jri-49" style="rounded=0;orthogonalLoop=1;jettySize=auto;html=1;entryX=0.5;entryY=0;entryDx=0;entryDy=0;startArrow=none;startFill=0;endArrow=classic;endFill=1;exitX=0.672;exitY=1;exitDx=0;exitDy=0;exitPerimeter=0;" parent="C6R63PBGMa6tpTrgzs1n-1" source="AXxpOQXNzuFp9G2y0jri-52" target="AXxpOQXNzuFp9G2y0jri-54" edge="1">
          <mxGeometry relative="1" as="geometry" />
        </mxCell>
        <mxCell id="AXxpOQXNzuFp9G2y0jri-50" style="rounded=0;orthogonalLoop=1;jettySize=auto;html=1;entryX=0.311;entryY=0.972;entryDx=0;entryDy=0;startArrow=none;startFill=0;endArrow=classic;endFill=1;entryPerimeter=0;" parent="C6R63PBGMa6tpTrgzs1n-1" source="AXxpOQXNzuFp9G2y0jri-52" target="AXxpOQXNzuFp9G2y0jri-39" edge="1">
          <mxGeometry relative="1" as="geometry" />
        </mxCell>
        <mxCell id="AXxpOQXNzuFp9G2y0jri-51" style="edgeStyle=orthogonalEdgeStyle;rounded=0;orthogonalLoop=1;jettySize=auto;html=1;entryX=0;entryY=0.5;entryDx=0;entryDy=0;startArrow=classic;startFill=1;endArrow=classic;endFill=1;exitX=1;exitY=0.5;exitDx=0;exitDy=0;" parent="C6R63PBGMa6tpTrgzs1n-1" source="AXxpOQXNzuFp9G2y0jri-52" target="AXxpOQXNzuFp9G2y0jri-43" edge="1">
          <mxGeometry relative="1" as="geometry">
            <Array as="points">
              <mxPoint x="-680" y="705" />
              <mxPoint x="-680" y="705" />
            </Array>
          </mxGeometry>
        </mxCell>
        <mxCell id="AXxpOQXNzuFp9G2y0jri-52" value="jeux_video:Nba2k20" style="ellipse;whiteSpace=wrap;html=1;" parent="C6R63PBGMa6tpTrgzs1n-1" vertex="1">
          <mxGeometry x="-1030" y="675" width="120" height="60" as="geometry" />
        </mxCell>
        <mxCell id="AXxpOQXNzuFp9G2y0jri-53" value="&quot;2k_Games&quot;@en" style="rounded=0;whiteSpace=wrap;html=1;" parent="C6R63PBGMa6tpTrgzs1n-1" vertex="1">
          <mxGeometry x="-1120" y="865" width="120" height="50" as="geometry" />
        </mxCell>
        <mxCell id="AXxpOQXNzuFp9G2y0jri-54" value="&quot;2019&quot;^^xsd:int" style="rounded=0;whiteSpace=wrap;html=1;" parent="C6R63PBGMa6tpTrgzs1n-1" vertex="1">
          <mxGeometry x="-970" y="865" width="120" height="50" as="geometry" />
        </mxCell>
        <mxCell id="AXxpOQXNzuFp9G2y0jri-55" value="jeux_video:annee_de_sortie" style="text;html=1;align=center;verticalAlign=middle;resizable=0;points=[];autosize=1;" parent="C6R63PBGMa6tpTrgzs1n-1" vertex="1">
          <mxGeometry x="-995" y="765" width="170" height="20" as="geometry" />
        </mxCell>
        <mxCell id="AXxpOQXNzuFp9G2y0jri-56" value="rdf:type" style="text;html=1;align=center;verticalAlign=middle;resizable=0;points=[];autosize=1;" parent="C6R63PBGMa6tpTrgzs1n-1" vertex="1">
          <mxGeometry x="-930" y="610" width="60" height="20" as="geometry" />
        </mxCell>
        <mxCell id="AXxpOQXNzuFp9G2y0jri-57" value="jeux_video:developpe_par" style="text;html=1;align=center;verticalAlign=middle;resizable=0;points=[];autosize=1;" parent="C6R63PBGMa6tpTrgzs1n-1" vertex="1">
          <mxGeometry x="-1190" y="765" width="160" height="20" as="geometry" />
        </mxCell>
        <mxCell id="AXxpOQXNzuFp9G2y0jri-58" value="jeux_video:meme_type_de_jeu_que" style="text;html=1;align=center;verticalAlign=middle;resizable=0;points=[];autosize=1;" parent="C6R63PBGMa6tpTrgzs1n-1" vertex="1">
          <mxGeometry x="-890" y="680" width="210" height="20" as="geometry" />
        </mxCell>
        <mxCell id="AXxpOQXNzuFp9G2y0jri-59" style="rounded=0;orthogonalLoop=1;jettySize=auto;html=1;entryX=0.5;entryY=0;entryDx=0;entryDy=0;startArrow=none;startFill=0;endArrow=classic;endFill=1;" parent="C6R63PBGMa6tpTrgzs1n-1" source="AXxpOQXNzuFp9G2y0jri-61" target="AXxpOQXNzuFp9G2y0jri-63" edge="1">
          <mxGeometry relative="1" as="geometry" />
        </mxCell>
        <mxCell id="AXxpOQXNzuFp9G2y0jri-60" style="rounded=0;orthogonalLoop=1;jettySize=auto;html=1;entryX=0.567;entryY=0.02;entryDx=0;entryDy=0;entryPerimeter=0;startArrow=none;startFill=0;endArrow=classic;endFill=1;" parent="C6R63PBGMa6tpTrgzs1n-1" source="AXxpOQXNzuFp9G2y0jri-61" target="AXxpOQXNzuFp9G2y0jri-64" edge="1">
          <mxGeometry relative="1" as="geometry" />
        </mxCell>
        <mxCell id="AXxpOQXNzuFp9G2y0jri-61" value="jeux_video:Uncharted_IV" style="ellipse;whiteSpace=wrap;html=1;" parent="C6R63PBGMa6tpTrgzs1n-1" vertex="1">
          <mxGeometry x="730" y="670" width="150" height="60" as="geometry" />
        </mxCell>
        <mxCell id="AXxpOQXNzuFp9G2y0jri-62" value="rdf:type" style="text;html=1;align=center;verticalAlign=middle;resizable=0;points=[];autosize=1;" parent="C6R63PBGMa6tpTrgzs1n-1" vertex="1">
          <mxGeometry x="810" y="630" width="60" height="20" as="geometry" />
        </mxCell>
        <mxCell id="AXxpOQXNzuFp9G2y0jri-63" value="&quot;Naughty_Dog&quot;@en" style="rounded=0;whiteSpace=wrap;html=1;" parent="C6R63PBGMa6tpTrgzs1n-1" vertex="1">
          <mxGeometry x="670" y="860" width="120" height="50" as="geometry" />
        </mxCell>
        <mxCell id="AXxpOQXNzuFp9G2y0jri-64" value="&quot;2016&quot;^^xsd:int" style="rounded=0;whiteSpace=wrap;html=1;" parent="C6R63PBGMa6tpTrgzs1n-1" vertex="1">
          <mxGeometry x="820" y="860" width="120" height="50" as="geometry" />
        </mxCell>
        <mxCell id="AXxpOQXNzuFp9G2y0jri-65" value="jeux_video:developpe_par" style="text;html=1;align=center;verticalAlign=middle;resizable=0;points=[];autosize=1;" parent="C6R63PBGMa6tpTrgzs1n-1" vertex="1">
          <mxGeometry x="610" y="760" width="160" height="20" as="geometry" />
        </mxCell>
        <mxCell id="AXxpOQXNzuFp9G2y0jri-76" value="jeux_video:annee_de_sortie" style="text;html=1;align=center;verticalAlign=middle;resizable=0;points=[];autosize=1;" parent="C6R63PBGMa6tpTrgzs1n-1" vertex="1">
          <mxGeometry x="490" y="820" width="170" height="20" as="geometry" />
        </mxCell>
        <mxCell id="AXxpOQXNzuFp9G2y0jri-77" value="jeux_video:annee_de_sortie" style="text;html=1;align=center;verticalAlign=middle;resizable=0;points=[];autosize=1;" parent="C6R63PBGMa6tpTrgzs1n-1" vertex="1">
          <mxGeometry x="850" y="760" width="170" height="20" as="geometry" />
        </mxCell>
        <mxCell id="AXxpOQXNzuFp9G2y0jri-78" value="jeux_video:annee_de_sortie" style="text;html=1;align=center;verticalAlign=middle;resizable=0;points=[];autosize=1;" parent="C6R63PBGMa6tpTrgzs1n-1" vertex="1">
          <mxGeometry x="105" y="780" width="170" height="20" as="geometry" />
        </mxCell>
        <mxCell id="AXxpOQXNzuFp9G2y0jri-79" value="jeux_video:annee_de_sortie" style="text;html=1;align=center;verticalAlign=middle;resizable=0;points=[];autosize=1;" parent="C6R63PBGMa6tpTrgzs1n-1" vertex="1">
          <mxGeometry x="-250" y="820" width="170" height="20" as="geometry" />
        </mxCell>
        <mxCell id="AXxpOQXNzuFp9G2y0jri-80" value="jeux_video:annee_de_sortie" style="text;html=1;align=center;verticalAlign=middle;resizable=0;points=[];autosize=1;" parent="C6R63PBGMa6tpTrgzs1n-1" vertex="1">
          <mxGeometry x="-595" y="780" width="170" height="20" as="geometry" />
        </mxCell>
        <mxCell id="AXxpOQXNzuFp9G2y0jri-82" style="rounded=0;orthogonalLoop=1;jettySize=auto;html=1;entryX=0.5;entryY=0;entryDx=0;entryDy=0;startArrow=none;startFill=0;endArrow=classic;endFill=1;exitX=0.311;exitY=1;exitDx=0;exitDy=0;exitPerimeter=0;" parent="C6R63PBGMa6tpTrgzs1n-1" source="AXxpOQXNzuFp9G2y0jri-43" target="AXxpOQXNzuFp9G2y0jri-44" edge="1">
          <mxGeometry relative="1" as="geometry">
            <mxPoint x="-622.4264068711927" y="726.2132034355964" as="sourcePoint" />
            <mxPoint x="-720" y="775" as="targetPoint" />
          </mxGeometry>
        </mxCell>
        <mxCell id="AXxpOQXNzuFp9G2y0jri-83" style="rounded=0;orthogonalLoop=1;jettySize=auto;html=1;startArrow=none;startFill=0;endArrow=classic;endFill=1;entryX=0.311;entryY=0.972;entryDx=0;entryDy=0;entryPerimeter=0;" parent="C6R63PBGMa6tpTrgzs1n-1" target="AXxpOQXNzuFp9G2y0jri-14" edge="1">
          <mxGeometry relative="1" as="geometry">
            <mxPoint x="-160" y="550" as="targetPoint" />
            <mxPoint x="-250" y="679.0192378864667" as="sourcePoint" />
          </mxGeometry>
        </mxCell>
        <mxCell id="AXxpOQXNzuFp9G2y0jri-84" value="jeux_video:developpe_par" style="text;html=1;align=center;verticalAlign=middle;resizable=0;points=[];autosize=1;" parent="C6R63PBGMa6tpTrgzs1n-1" vertex="1">
          <mxGeometry x="-425" y="820" width="160" height="20" as="geometry" />
        </mxCell>
        <mxCell id="AXxpOQXNzuFp9G2y0jri-85" style="rounded=0;orthogonalLoop=1;jettySize=auto;html=1;startArrow=none;startFill=0;endArrow=classic;endFill=1;" parent="C6R63PBGMa6tpTrgzs1n-1" edge="1">
          <mxGeometry relative="1" as="geometry">
            <mxPoint x="-303" y="730" as="sourcePoint" />
            <mxPoint x="-350" y="860" as="targetPoint" />
          </mxGeometry>
        </mxCell>
        <mxCell id="AXxpOQXNzuFp9G2y0jri-86" value="&lt;p style=&quot;margin: 0px ; font-stretch: normal ; line-height: normal ; font-family: &amp;#34;menlo&amp;#34; ; color: rgb(78 , 144 , 114) ; font-size: 24px&quot;&gt;&lt;b&gt;&lt;font style=&quot;font-size: 24px&quot;&gt;&lt;span style=&quot;text-decoration: underline ; color: rgb(119 , 119 , 119)&quot;&gt;@&lt;/span&gt;&lt;span style=&quot;text-decoration: underline ; color: rgb(0 , 0 , 0)&quot;&gt;prefix rdf:&amp;lt;&lt;/span&gt;&lt;span style=&quot;color: rgb(0 , 0 , 0)&quot;&gt;http:&lt;/span&gt;//www.w3.&lt;span style=&quot;text-decoration: underline&quot;&gt;org&lt;/span&gt;/1999/02/22-&lt;span style=&quot;text-decoration: underline&quot;&gt;rdf&lt;/span&gt;-syntax-&lt;span style=&quot;text-decoration: underline&quot;&gt;ns&lt;/span&gt;#&amp;gt;&amp;nbsp;&lt;/font&gt;&lt;/b&gt;&lt;/p&gt;&lt;p style=&quot;margin: 0px ; font-stretch: normal ; line-height: normal ; font-family: &amp;#34;menlo&amp;#34; ; color: rgb(78 , 144 , 114) ; font-size: 24px&quot;&gt;&lt;b&gt;&lt;font style=&quot;font-size: 24px&quot;&gt;&lt;span style=&quot;text-decoration: underline ; color: rgb(119 , 119 , 119)&quot;&gt;@&lt;/span&gt;&lt;span style=&quot;text-decoration: underline ; color: rgb(0 , 0 , 0)&quot;&gt;prefix xsd:&amp;lt;&lt;/span&gt;&lt;span style=&quot;color: rgb(0 , 0 , 0)&quot;&gt;http:&lt;/span&gt;//www.w3.&lt;span style=&quot;text-decoration: underline&quot;&gt;org&lt;/span&gt;/2001/XMLSchema#&amp;gt;&amp;nbsp;&lt;/font&gt;&lt;/b&gt;&lt;/p&gt;&lt;p style=&quot;margin: 0px ; font-stretch: normal ; line-height: normal ; font-family: &amp;#34;menlo&amp;#34; ; color: rgb(78 , 144 , 114) ; font-size: 24px&quot;&gt;&lt;b&gt;&lt;font style=&quot;font-size: 24px&quot;&gt;&lt;span style=&quot;text-decoration: underline ; color: #777777&quot;&gt;@&lt;/span&gt;&lt;span style=&quot;text-decoration: underline ; color: #000000&quot;&gt;prefix rdfs:&amp;lt;&lt;/span&gt;&lt;span style=&quot;color: #000000&quot;&gt;http:&lt;/span&gt;//www.w3.&lt;span style=&quot;text-decoration: underline&quot;&gt;org&lt;/span&gt;/2000/01/&lt;span style=&quot;text-decoration: underline&quot;&gt;rdf&lt;/span&gt;-schema#&amp;gt;&amp;nbsp;&lt;/font&gt;&lt;/b&gt;&lt;/p&gt;&lt;p style=&quot;margin: 0px ; font-stretch: normal ; line-height: normal&quot;&gt;&lt;font&gt;&lt;span style=&quot;color: rgb(119 , 119 , 119) ; font-family: &amp;#34;menlo&amp;#34; ; font-size: 24px ; font-weight: bold ; text-decoration: underline&quot;&gt;@&lt;/span&gt;&lt;span style=&quot;color: rgb(0 , 0 , 0) ; font-family: &amp;#34;menlo&amp;#34; ; font-size: 24px ; font-weight: bold ; text-decoration: underline&quot;&gt;prefix jeux_video:&amp;lt;&lt;/span&gt;&lt;span style=&quot;color: rgb(0 , 0 , 0) ; font-family: &amp;#34;menlo&amp;#34; ; font-size: 24px ; font-weight: bold&quot;&gt;http&lt;/span&gt;&lt;span style=&quot;color: rgb(0 , 0 , 0) ; font-family: &amp;#34;menlo&amp;#34; ; font-size: 24px ; font-weight: bold ; text-decoration: underline&quot;&gt;:&lt;/span&gt;&lt;b style=&quot;color: rgb(78 , 144 , 114) ; font-family: &amp;#34;menlo&amp;#34; ; font-size: 24px&quot;&gt;//&lt;/b&gt;&lt;font color=&quot;#4e9072&quot; face=&quot;menlo&quot;&gt;&lt;span style=&quot;font-size: 24px&quot;&gt;&lt;b&gt;/www.ex.fr&lt;/b&gt;&lt;/span&gt;&lt;/font&gt;&lt;b style=&quot;color: rgb(78 , 144 , 114) ; font-family: &amp;#34;menlo&amp;#34; ; font-size: 24px&quot;&gt;/&lt;/b&gt;&lt;span style=&quot;color: rgb(78 , 144 , 114) ; font-family: &amp;#34;menlo&amp;#34; ; font-size: 24px ; font-weight: bold ; text-decoration: underline&quot;&gt;jeux_video&lt;/span&gt;&lt;b style=&quot;color: rgb(78 , 144 , 114) ; font-family: &amp;#34;menlo&amp;#34; ; font-size: 24px&quot;&gt;#&amp;gt;&amp;nbsp;&lt;/b&gt;&lt;/font&gt;&lt;/p&gt;" style="text;html=1;align=center;verticalAlign=middle;resizable=0;points=[];autosize=1;labelBorderColor=none;" parent="C6R63PBGMa6tpTrgzs1n-1" vertex="1">
          <mxGeometry x="-668" y="63" width="640" height="110" as="geometry" />
        </mxCell>
      </root>
    </mxGraphModel>
  </diagram>
  <diagram name="Graphe v1" id="hksq1aPMnGbJuUh0P9jb">
    <mxGraphModel dx="3120" dy="1949" grid="1" gridSize="10" guides="1" tooltips="1" connect="1" arrows="1" fold="1" page="1" pageScale="1" pageWidth="827" pageHeight="1169" math="0" shadow="0">
      <root>
        <mxCell id="wPTKJEdPMzPVCPXyaWyH-0" />
        <mxCell id="wPTKJEdPMzPVCPXyaWyH-1" parent="wPTKJEdPMzPVCPXyaWyH-0" />
        <mxCell id="wPTKJEdPMzPVCPXyaWyH-2" value="&lt;b&gt;rdfs : Class&lt;/b&gt;" style="ellipse;whiteSpace=wrap;html=1;fillColor=#d5e8d4;strokeColor=#82b366;" parent="wPTKJEdPMzPVCPXyaWyH-1" vertex="1">
          <mxGeometry x="300" y="10" width="120" height="80" as="geometry" />
        </mxCell>
        <mxCell id="wPTKJEdPMzPVCPXyaWyH-3" value="&lt;b&gt;type_jeux_videos&lt;/b&gt;&lt;b&gt;&amp;nbsp;: Jeu_de_sport&amp;nbsp;&lt;/b&gt;" style="ellipse;whiteSpace=wrap;html=1;fillColor=#dae8fc;strokeColor=#6c8ebf;" parent="wPTKJEdPMzPVCPXyaWyH-1" vertex="1">
          <mxGeometry x="-300" y="390" width="120" height="80" as="geometry" />
        </mxCell>
        <mxCell id="wPTKJEdPMzPVCPXyaWyH-4" value="&lt;b&gt;type_jeux_videos&lt;/b&gt;&lt;b&gt;: Jeu_d_aventure&amp;nbsp;&lt;/b&gt;" style="ellipse;whiteSpace=wrap;html=1;fillColor=#dae8fc;strokeColor=#6c8ebf;" parent="wPTKJEdPMzPVCPXyaWyH-1" vertex="1">
          <mxGeometry x="320" y="400" width="120" height="80" as="geometry" />
        </mxCell>
        <mxCell id="wPTKJEdPMzPVCPXyaWyH-5" value="&lt;b&gt;type_jeux_videos&lt;/b&gt;&lt;b&gt;&amp;nbsp;: Jeu_de_simulation&amp;nbsp;&lt;/b&gt;" style="ellipse;whiteSpace=wrap;html=1;fillColor=#dae8fc;strokeColor=#6c8ebf;" parent="wPTKJEdPMzPVCPXyaWyH-1" vertex="1">
          <mxGeometry x="1190" y="430" width="120" height="80" as="geometry" />
        </mxCell>
        <mxCell id="wPTKJEdPMzPVCPXyaWyH-6" value="&lt;b&gt;jeux&lt;/b&gt;&lt;b&gt;&amp;nbsp;: Football_Manager_2021&lt;/b&gt;" style="ellipse;whiteSpace=wrap;html=1;fillColor=#f8cecc;strokeColor=#b85450;" parent="wPTKJEdPMzPVCPXyaWyH-1" vertex="1">
          <mxGeometry x="1530" y="700" width="170" height="75" as="geometry" />
        </mxCell>
        <mxCell id="wPTKJEdPMzPVCPXyaWyH-7" value="&lt;b&gt;jeux :Jeux_videos&lt;/b&gt;" style="ellipse;whiteSpace=wrap;html=1;fillColor=#ffe6cc;strokeColor=#d79b00;" parent="wPTKJEdPMzPVCPXyaWyH-1" vertex="1">
          <mxGeometry x="305" y="210" width="120" height="80" as="geometry" />
        </mxCell>
        <mxCell id="wPTKJEdPMzPVCPXyaWyH-8" value="" style="endArrow=classic;html=1;entryX=0.5;entryY=1;entryDx=0;entryDy=0;exitX=0.45;exitY=-0.025;exitDx=0;exitDy=0;exitPerimeter=0;" parent="wPTKJEdPMzPVCPXyaWyH-1" source="wPTKJEdPMzPVCPXyaWyH-7" target="wPTKJEdPMzPVCPXyaWyH-2" edge="1">
          <mxGeometry width="50" height="50" relative="1" as="geometry">
            <mxPoint x="369.5" y="220" as="sourcePoint" />
            <mxPoint x="369.5" y="150" as="targetPoint" />
          </mxGeometry>
        </mxCell>
        <mxCell id="wPTKJEdPMzPVCPXyaWyH-9" value="&lt;b&gt;&lt;font color=&quot;#999999&quot;&gt;rdfs : SubClassOf&lt;/font&gt;&lt;/b&gt;" style="text;html=1;align=center;verticalAlign=middle;resizable=0;points=[];autosize=1;" parent="wPTKJEdPMzPVCPXyaWyH-1" vertex="1">
          <mxGeometry x="370" y="120" width="120" height="20" as="geometry" />
        </mxCell>
        <mxCell id="wPTKJEdPMzPVCPXyaWyH-10" value="" style="endArrow=classic;html=1;" parent="wPTKJEdPMzPVCPXyaWyH-1" edge="1">
          <mxGeometry width="50" height="50" relative="1" as="geometry">
            <mxPoint x="370" y="403" as="sourcePoint" />
            <mxPoint x="370" y="291" as="targetPoint" />
          </mxGeometry>
        </mxCell>
        <mxCell id="wPTKJEdPMzPVCPXyaWyH-11" value="&lt;b&gt;&lt;font color=&quot;#999999&quot;&gt;rdfs : SubClassOf&lt;/font&gt;&lt;/b&gt;" style="text;html=1;align=center;verticalAlign=middle;resizable=0;points=[];autosize=1;" parent="wPTKJEdPMzPVCPXyaWyH-1" vertex="1">
          <mxGeometry x="375" y="320" width="120" height="20" as="geometry" />
        </mxCell>
        <mxCell id="wPTKJEdPMzPVCPXyaWyH-12" value="" style="endArrow=classic;html=1;exitX=0.643;exitY=0.034;exitDx=0;exitDy=0;exitPerimeter=0;" parent="wPTKJEdPMzPVCPXyaWyH-1" source="wPTKJEdPMzPVCPXyaWyH-3" target="wPTKJEdPMzPVCPXyaWyH-7" edge="1">
          <mxGeometry width="50" height="50" relative="1" as="geometry">
            <mxPoint x="120" y="411" as="sourcePoint" />
            <mxPoint x="120" y="300" as="targetPoint" />
          </mxGeometry>
        </mxCell>
        <mxCell id="wPTKJEdPMzPVCPXyaWyH-13" value="" style="endArrow=classic;html=1;exitX=0.242;exitY=0.088;exitDx=0;exitDy=0;exitPerimeter=0;" parent="wPTKJEdPMzPVCPXyaWyH-1" source="wPTKJEdPMzPVCPXyaWyH-5" target="wPTKJEdPMzPVCPXyaWyH-7" edge="1">
          <mxGeometry width="50" height="50" relative="1" as="geometry">
            <mxPoint x="659" y="411" as="sourcePoint" />
            <mxPoint x="659" y="300" as="targetPoint" />
          </mxGeometry>
        </mxCell>
        <mxCell id="wPTKJEdPMzPVCPXyaWyH-14" value="&lt;b&gt;&lt;font color=&quot;#999999&quot;&gt;rdfs : SubClassOf&lt;/font&gt;&lt;/b&gt;" style="text;html=1;align=center;verticalAlign=middle;resizable=0;points=[];autosize=1;" parent="wPTKJEdPMzPVCPXyaWyH-1" vertex="1">
          <mxGeometry x="630" y="330" width="120" height="20" as="geometry" />
        </mxCell>
        <mxCell id="wPTKJEdPMzPVCPXyaWyH-15" value="&lt;span style=&quot;color: rgba(0 , 0 , 0 , 0) ; font-family: monospace ; font-size: 0px&quot;&gt;%3CmxGraphModel%3E%3Croot%3E%3CmxCell%20id%3D%220%22%2F%3E%3CmxCell%20id%3D%221%22%20parent%3D%220%22%2F%3E%3CmxCell%20id%3D%222%22%20value%3D%22%22%20style%3D%22endArrow%3Dclassic%3Bhtml%3D1%3BexitX%3D0.675%3BexitY%3D0.057%3BexitDx%3D0%3BexitDy%3D0%3BexitPerimeter%3D0%3B%22%20edge%3D%221%22%20parent%3D%221%22%3E%3CmxGeometry%20width%3D%2250%22%20height%3D%2250%22%20relative%3D%221%22%20as%3D%22geometry%22%3E%3CmxPoint%20x%3D%22-625.7499999999998%22%20y%3D%22691.7750000000001%22%20as%3D%22sourcePoint%22%2F%3E%3CmxPoint%20x%3D%22-510%22%20y%3D%22600%22%20as%3D%22targetPoint%22%2F%3E%3C%2FmxGeometry%3E%3C%2FmxCell%3E%3C%2Froot%3E%3C%2FmxGraphModel%3E&lt;/span&gt;" style="text;html=1;align=center;verticalAlign=middle;resizable=0;points=[];autosize=1;" parent="wPTKJEdPMzPVCPXyaWyH-1" vertex="1">
          <mxGeometry x="90" y="320" width="20" height="20" as="geometry" />
        </mxCell>
        <mxCell id="wPTKJEdPMzPVCPXyaWyH-16" value="&lt;b&gt;jeux&lt;/b&gt;&lt;b&gt;&amp;nbsp;: Sims_Animaux_&lt;br&gt;et_Cie&lt;/b&gt;" style="ellipse;whiteSpace=wrap;html=1;fillColor=#f8cecc;strokeColor=#b85450;" parent="wPTKJEdPMzPVCPXyaWyH-1" vertex="1">
          <mxGeometry x="970" y="697.5" width="110" height="75" as="geometry" />
        </mxCell>
        <mxCell id="wPTKJEdPMzPVCPXyaWyH-17" value="&lt;b&gt;jeux&lt;/b&gt;&lt;b&gt;&amp;nbsp;: Super_Mario_Run&lt;/b&gt;" style="ellipse;whiteSpace=wrap;html=1;fillColor=#f8cecc;strokeColor=#b85450;" parent="wPTKJEdPMzPVCPXyaWyH-1" vertex="1">
          <mxGeometry x="600" y="705" width="110" height="75" as="geometry" />
        </mxCell>
        <mxCell id="wPTKJEdPMzPVCPXyaWyH-18" value="&lt;b&gt;jeux&lt;/b&gt;&lt;b&gt;&amp;nbsp;:Call_Of_Duty_Cold_War&amp;nbsp;&lt;/b&gt;" style="ellipse;whiteSpace=wrap;html=1;fillColor=#f8cecc;strokeColor=#b85450;" parent="wPTKJEdPMzPVCPXyaWyH-1" vertex="1">
          <mxGeometry x="140.5" y="705" width="209" height="75" as="geometry" />
        </mxCell>
        <mxCell id="wPTKJEdPMzPVCPXyaWyH-19" value="&lt;b&gt;jeux : NBA2K21&amp;nbsp;&lt;/b&gt;" style="ellipse;whiteSpace=wrap;html=1;fillColor=#f8cecc;strokeColor=#b85450;" parent="wPTKJEdPMzPVCPXyaWyH-1" vertex="1">
          <mxGeometry x="-700" y="687.5" width="110" height="75" as="geometry" />
        </mxCell>
        <mxCell id="wPTKJEdPMzPVCPXyaWyH-20" value="&lt;b&gt;jeux&lt;/b&gt;&lt;b&gt;&amp;nbsp;: Fifa21&amp;nbsp;&lt;/b&gt;" style="ellipse;whiteSpace=wrap;html=1;fillColor=#f8cecc;strokeColor=#b85450;" parent="wPTKJEdPMzPVCPXyaWyH-1" vertex="1">
          <mxGeometry x="-115" y="705" width="110" height="75" as="geometry" />
        </mxCell>
        <mxCell id="wPTKJEdPMzPVCPXyaWyH-21" value="" style="endArrow=classic;html=1;exitX=0.364;exitY=0.036;exitDx=0;exitDy=0;exitPerimeter=0;entryX=0.333;entryY=0.875;entryDx=0;entryDy=0;entryPerimeter=0;" parent="wPTKJEdPMzPVCPXyaWyH-1" source="wPTKJEdPMzPVCPXyaWyH-20" target="IKS38-O2-NW5O7pU6Ddy-2" edge="1">
          <mxGeometry width="50" height="50" relative="1" as="geometry">
            <mxPoint x="199.5" y="551" as="sourcePoint" />
            <mxPoint x="-50" y="620" as="targetPoint" />
          </mxGeometry>
        </mxCell>
        <mxCell id="wPTKJEdPMzPVCPXyaWyH-22" value="" style="endArrow=classic;html=1;exitX=0.675;exitY=0.057;exitDx=0;exitDy=0;exitPerimeter=0;" parent="wPTKJEdPMzPVCPXyaWyH-1" source="wPTKJEdPMzPVCPXyaWyH-19" edge="1">
          <mxGeometry width="50" height="50" relative="1" as="geometry">
            <mxPoint x="30" y="550" as="sourcePoint" />
            <mxPoint x="-510" y="600" as="targetPoint" />
          </mxGeometry>
        </mxCell>
        <mxCell id="wPTKJEdPMzPVCPXyaWyH-23" value="" style="endArrow=classic;html=1;exitX=0.5;exitY=0;exitDx=0;exitDy=0;entryX=0.5;entryY=1;entryDx=0;entryDy=0;" parent="wPTKJEdPMzPVCPXyaWyH-1" source="wPTKJEdPMzPVCPXyaWyH-18" target="IKS38-O2-NW5O7pU6Ddy-20" edge="1">
          <mxGeometry width="50" height="50" relative="1" as="geometry">
            <mxPoint x="340" y="550" as="sourcePoint" />
            <mxPoint x="290" y="600" as="targetPoint" />
          </mxGeometry>
        </mxCell>
        <mxCell id="wPTKJEdPMzPVCPXyaWyH-24" value="" style="endArrow=classic;html=1;exitX=0;exitY=0;exitDx=0;exitDy=0;entryX=0.733;entryY=0.95;entryDx=0;entryDy=0;entryPerimeter=0;" parent="wPTKJEdPMzPVCPXyaWyH-1" source="wPTKJEdPMzPVCPXyaWyH-17" target="IKS38-O2-NW5O7pU6Ddy-19" edge="1">
          <mxGeometry width="50" height="50" relative="1" as="geometry">
            <mxPoint x="514.5" y="547" as="sourcePoint" />
            <mxPoint x="530" y="620" as="targetPoint" />
          </mxGeometry>
        </mxCell>
        <mxCell id="wPTKJEdPMzPVCPXyaWyH-25" value="" style="endArrow=classic;html=1;exitX=0.5;exitY=0;exitDx=0;exitDy=0;" parent="wPTKJEdPMzPVCPXyaWyH-1" source="wPTKJEdPMzPVCPXyaWyH-16" edge="1">
          <mxGeometry width="50" height="50" relative="1" as="geometry">
            <mxPoint x="680" y="547" as="sourcePoint" />
            <mxPoint x="1090" y="610" as="targetPoint" />
          </mxGeometry>
        </mxCell>
        <mxCell id="wPTKJEdPMzPVCPXyaWyH-26" value="" style="endArrow=classic;html=1;" parent="wPTKJEdPMzPVCPXyaWyH-1" source="wPTKJEdPMzPVCPXyaWyH-6" edge="1">
          <mxGeometry width="50" height="50" relative="1" as="geometry">
            <mxPoint x="874.5" y="547" as="sourcePoint" />
            <mxPoint x="1500" y="600" as="targetPoint" />
          </mxGeometry>
        </mxCell>
        <mxCell id="wPTKJEdPMzPVCPXyaWyH-27" value="&lt;b&gt;&lt;font color=&quot;#67ab9f&quot;&gt;rdf:type&lt;/font&gt;&lt;/b&gt;" style="text;html=1;align=center;verticalAlign=middle;resizable=0;points=[];autosize=1;" parent="wPTKJEdPMzPVCPXyaWyH-1" vertex="1">
          <mxGeometry x="-570" y="660" width="60" height="20" as="geometry" />
        </mxCell>
        <mxCell id="wPTKJEdPMzPVCPXyaWyH-28" value="&lt;b&gt;&lt;font color=&quot;#67ab9f&quot;&gt;rdf : type&lt;/font&gt;&lt;/b&gt;" style="text;html=1;align=center;verticalAlign=middle;resizable=0;points=[];autosize=1;" parent="wPTKJEdPMzPVCPXyaWyH-1" vertex="1">
          <mxGeometry x="-155" y="675" width="70" height="20" as="geometry" />
        </mxCell>
        <mxCell id="wPTKJEdPMzPVCPXyaWyH-29" value="&lt;b&gt;&lt;font color=&quot;#67ab9f&quot;&gt;rdf: type&lt;/font&gt;&lt;/b&gt;" style="text;html=1;align=center;verticalAlign=middle;resizable=0;points=[];autosize=1;" parent="wPTKJEdPMzPVCPXyaWyH-1" vertex="1">
          <mxGeometry x="170" y="660" width="60" height="20" as="geometry" />
        </mxCell>
        <mxCell id="wPTKJEdPMzPVCPXyaWyH-30" value="&lt;b&gt;&lt;font color=&quot;#67ab9f&quot;&gt;rdf: type&lt;/font&gt;&lt;/b&gt;" style="text;html=1;align=center;verticalAlign=middle;resizable=0;points=[];autosize=1;" parent="wPTKJEdPMzPVCPXyaWyH-1" vertex="1">
          <mxGeometry x="610" y="667.5" width="60" height="20" as="geometry" />
        </mxCell>
        <mxCell id="wPTKJEdPMzPVCPXyaWyH-31" value="&lt;b&gt;&lt;font color=&quot;#67ab9f&quot;&gt;rdf: type&lt;/font&gt;&lt;/b&gt;" style="text;html=1;align=center;verticalAlign=middle;resizable=0;points=[];autosize=1;" parent="wPTKJEdPMzPVCPXyaWyH-1" vertex="1">
          <mxGeometry x="1530" y="610" width="60" height="20" as="geometry" />
        </mxCell>
        <mxCell id="wPTKJEdPMzPVCPXyaWyH-32" value="&lt;b&gt;&lt;font color=&quot;#67ab9f&quot;&gt;rdf: type&lt;/font&gt;&lt;/b&gt;" style="text;html=1;align=center;verticalAlign=middle;resizable=0;points=[];autosize=1;" parent="wPTKJEdPMzPVCPXyaWyH-1" vertex="1">
          <mxGeometry x="980" y="655" width="60" height="20" as="geometry" />
        </mxCell>
        <mxCell id="wPTKJEdPMzPVCPXyaWyH-33" value="" style="endArrow=classic;html=1;entryX=0;entryY=1;entryDx=0;entryDy=0;exitX=0.5;exitY=0;exitDx=0;exitDy=0;" parent="wPTKJEdPMzPVCPXyaWyH-1" source="wPTKJEdPMzPVCPXyaWyH-59" target="wPTKJEdPMzPVCPXyaWyH-20" edge="1">
          <mxGeometry width="50" height="50" relative="1" as="geometry">
            <mxPoint x="70" y="770" as="sourcePoint" />
            <mxPoint x="149.99924568113929" y="639.8008874339534" as="targetPoint" />
          </mxGeometry>
        </mxCell>
        <mxCell id="wPTKJEdPMzPVCPXyaWyH-34" value="" style="endArrow=classic;html=1;exitX=0.417;exitY=-0.05;exitDx=0;exitDy=0;exitPerimeter=0;entryX=1;entryY=1;entryDx=0;entryDy=0;" parent="wPTKJEdPMzPVCPXyaWyH-1" source="wPTKJEdPMzPVCPXyaWyH-60" target="wPTKJEdPMzPVCPXyaWyH-20" edge="1">
          <mxGeometry width="50" height="50" relative="1" as="geometry">
            <mxPoint x="200" y="760" as="sourcePoint" />
            <mxPoint x="170" y="622" as="targetPoint" />
          </mxGeometry>
        </mxCell>
        <mxCell id="wPTKJEdPMzPVCPXyaWyH-35" value="" style="endArrow=classic;html=1;exitX=0.75;exitY=0;exitDx=0;exitDy=0;" parent="wPTKJEdPMzPVCPXyaWyH-1" source="wPTKJEdPMzPVCPXyaWyH-63" target="wPTKJEdPMzPVCPXyaWyH-17" edge="1">
          <mxGeometry width="50" height="50" relative="1" as="geometry">
            <mxPoint x="460" y="780" as="sourcePoint" />
            <mxPoint x="495.4192456811393" y="640.0008874339535" as="targetPoint" />
          </mxGeometry>
        </mxCell>
        <mxCell id="wPTKJEdPMzPVCPXyaWyH-36" value="" style="endArrow=classic;html=1;exitX=0.25;exitY=0;exitDx=0;exitDy=0;" parent="wPTKJEdPMzPVCPXyaWyH-1" source="wPTKJEdPMzPVCPXyaWyH-64" target="wPTKJEdPMzPVCPXyaWyH-17" edge="1">
          <mxGeometry width="50" height="50" relative="1" as="geometry">
            <mxPoint x="570" y="770" as="sourcePoint" />
            <mxPoint x="675.4192456811393" y="639.8008874339534" as="targetPoint" />
          </mxGeometry>
        </mxCell>
        <mxCell id="wPTKJEdPMzPVCPXyaWyH-37" value="" style="endArrow=classic;html=1;entryX=0.309;entryY=0.973;entryDx=0;entryDy=0;entryPerimeter=0;exitX=0.333;exitY=-0.033;exitDx=0;exitDy=0;exitPerimeter=0;" parent="wPTKJEdPMzPVCPXyaWyH-1" source="wPTKJEdPMzPVCPXyaWyH-67" target="wPTKJEdPMzPVCPXyaWyH-6" edge="1">
          <mxGeometry width="50" height="50" relative="1" as="geometry">
            <mxPoint x="891" y="770" as="sourcePoint" />
            <mxPoint x="855.4192456811393" y="639.8008874339534" as="targetPoint" />
          </mxGeometry>
        </mxCell>
        <mxCell id="wPTKJEdPMzPVCPXyaWyH-38" value="" style="endArrow=classic;html=1;entryX=0.773;entryY=0.92;entryDx=0;entryDy=0;entryPerimeter=0;exitX=0.25;exitY=0;exitDx=0;exitDy=0;" parent="wPTKJEdPMzPVCPXyaWyH-1" source="wPTKJEdPMzPVCPXyaWyH-68" target="wPTKJEdPMzPVCPXyaWyH-6" edge="1">
          <mxGeometry width="50" height="50" relative="1" as="geometry">
            <mxPoint x="1000" y="780" as="sourcePoint" />
            <mxPoint x="1035.4192456811393" y="639.8008874339534" as="targetPoint" />
          </mxGeometry>
        </mxCell>
        <mxCell id="wPTKJEdPMzPVCPXyaWyH-39" value="&lt;b&gt;jeux :&lt;br&gt;&lt;/b&gt;&lt;b&gt;developpé_par&lt;/b&gt;" style="text;html=1;align=center;verticalAlign=middle;resizable=0;points=[];autosize=1;" parent="wPTKJEdPMzPVCPXyaWyH-1" vertex="1">
          <mxGeometry x="-215" y="775" width="100" height="30" as="geometry" />
        </mxCell>
        <mxCell id="wPTKJEdPMzPVCPXyaWyH-40" value="&lt;b&gt;jeux&lt;/b&gt;&lt;b&gt;&amp;nbsp;:&lt;br&gt;&lt;/b&gt;&lt;b&gt;&amp;nbsp;annee_de_sortie&lt;/b&gt;&lt;b&gt;&lt;br&gt;&lt;/b&gt;" style="text;html=1;align=center;verticalAlign=middle;resizable=0;points=[];autosize=1;" parent="wPTKJEdPMzPVCPXyaWyH-1" vertex="1">
          <mxGeometry x="-20" y="780" width="110" height="30" as="geometry" />
        </mxCell>
        <mxCell id="wPTKJEdPMzPVCPXyaWyH-41" value="&lt;b&gt;jeux:&amp;nbsp;&lt;br&gt;&lt;/b&gt;&lt;b&gt;developpé_par&lt;/b&gt;" style="text;html=1;align=center;verticalAlign=middle;resizable=0;points=[];autosize=1;" parent="wPTKJEdPMzPVCPXyaWyH-1" vertex="1">
          <mxGeometry x="520" y="880" width="100" height="30" as="geometry" />
        </mxCell>
        <mxCell id="wPTKJEdPMzPVCPXyaWyH-42" value="&lt;b&gt;jeux:&lt;br&gt;&lt;/b&gt;&lt;b&gt;&amp;nbsp;annee_de_sortie&lt;/b&gt;" style="text;html=1;align=center;verticalAlign=middle;resizable=0;points=[];autosize=1;" parent="wPTKJEdPMzPVCPXyaWyH-1" vertex="1">
          <mxGeometry x="750" y="890" width="110" height="30" as="geometry" />
        </mxCell>
        <mxCell id="wPTKJEdPMzPVCPXyaWyH-43" value="&lt;b&gt;jeux :&lt;br&gt;&lt;/b&gt;&lt;b&gt;developpé_par&lt;/b&gt;" style="text;html=1;align=center;verticalAlign=middle;resizable=0;points=[];autosize=1;" parent="wPTKJEdPMzPVCPXyaWyH-1" vertex="1">
          <mxGeometry x="1080" y="820" width="100" height="30" as="geometry" />
        </mxCell>
        <mxCell id="wPTKJEdPMzPVCPXyaWyH-44" value="&lt;b&gt;jeux:&lt;br&gt;&lt;/b&gt;&lt;b&gt;&amp;nbsp;annee_de_sortie&lt;/b&gt;&lt;b&gt;&lt;br&gt;&lt;/b&gt;" style="text;html=1;align=center;verticalAlign=middle;resizable=0;points=[];autosize=1;" parent="wPTKJEdPMzPVCPXyaWyH-1" vertex="1">
          <mxGeometry x="860" y="820" width="110" height="30" as="geometry" />
        </mxCell>
        <mxCell id="wPTKJEdPMzPVCPXyaWyH-45" value="" style="endArrow=classic;html=1;entryX=0;entryY=1;entryDx=0;entryDy=0;exitX=0.658;exitY=-0.033;exitDx=0;exitDy=0;exitPerimeter=0;" parent="wPTKJEdPMzPVCPXyaWyH-1" source="wPTKJEdPMzPVCPXyaWyH-57" target="wPTKJEdPMzPVCPXyaWyH-19" edge="1">
          <mxGeometry width="50" height="50" relative="1" as="geometry">
            <mxPoint x="-180" y="780" as="sourcePoint" />
            <mxPoint x="-98.40270331849806" y="620.0029022705517" as="targetPoint" />
            <Array as="points" />
          </mxGeometry>
        </mxCell>
        <mxCell id="wPTKJEdPMzPVCPXyaWyH-46" value="" style="endArrow=classic;html=1;exitX=0.65;exitY=0;exitDx=0;exitDy=0;exitPerimeter=0;entryX=0.6;entryY=0.987;entryDx=0;entryDy=0;entryPerimeter=0;" parent="wPTKJEdPMzPVCPXyaWyH-1" source="wPTKJEdPMzPVCPXyaWyH-58" target="wPTKJEdPMzPVCPXyaWyH-19" edge="1">
          <mxGeometry width="50" height="50" relative="1" as="geometry">
            <mxPoint x="-20" y="780" as="sourcePoint" />
            <mxPoint x="-40" y="622" as="targetPoint" />
          </mxGeometry>
        </mxCell>
        <mxCell id="wPTKJEdPMzPVCPXyaWyH-47" value="&lt;b&gt;jeux :&lt;br&gt;developpé_par&lt;/b&gt;" style="text;html=1;align=center;verticalAlign=middle;resizable=0;points=[];autosize=1;" parent="wPTKJEdPMzPVCPXyaWyH-1" vertex="1">
          <mxGeometry x="-810" y="805" width="100" height="30" as="geometry" />
        </mxCell>
        <mxCell id="wPTKJEdPMzPVCPXyaWyH-48" value="" style="endArrow=classic;html=1;" parent="wPTKJEdPMzPVCPXyaWyH-1" edge="1">
          <mxGeometry width="50" height="50" relative="1" as="geometry">
            <mxPoint x="198" y="946" as="sourcePoint" />
            <mxPoint x="209" y="780" as="targetPoint" />
          </mxGeometry>
        </mxCell>
        <mxCell id="wPTKJEdPMzPVCPXyaWyH-49" value="" style="endArrow=classic;html=1;entryX=0.7;entryY=1.027;entryDx=0;entryDy=0;exitX=0.5;exitY=0;exitDx=0;exitDy=0;entryPerimeter=0;" parent="wPTKJEdPMzPVCPXyaWyH-1" source="wPTKJEdPMzPVCPXyaWyH-62" target="wPTKJEdPMzPVCPXyaWyH-18" edge="1">
          <mxGeometry width="50" height="50" relative="1" as="geometry">
            <mxPoint x="320" y="930" as="sourcePoint" />
            <mxPoint x="304.9972966814953" y="615.0029022705564" as="targetPoint" />
          </mxGeometry>
        </mxCell>
        <mxCell id="wPTKJEdPMzPVCPXyaWyH-50" value="" style="endArrow=classic;html=1;entryX=0.74;entryY=0.955;entryDx=0;entryDy=0;exitX=0.25;exitY=0;exitDx=0;exitDy=0;entryPerimeter=0;" parent="wPTKJEdPMzPVCPXyaWyH-1" source="wPTKJEdPMzPVCPXyaWyH-65" target="wPTKJEdPMzPVCPXyaWyH-16" edge="1">
          <mxGeometry width="50" height="50" relative="1" as="geometry">
            <mxPoint x="650" y="760" as="sourcePoint" />
            <mxPoint x="676.1772966814951" y="617.0329022705564" as="targetPoint" />
          </mxGeometry>
        </mxCell>
        <mxCell id="wPTKJEdPMzPVCPXyaWyH-51" value="" style="endArrow=classic;html=1;exitX=0.25;exitY=0;exitDx=0;exitDy=0;" parent="wPTKJEdPMzPVCPXyaWyH-1" source="wPTKJEdPMzPVCPXyaWyH-66" edge="1">
          <mxGeometry width="50" height="50" relative="1" as="geometry">
            <mxPoint x="765" y="770" as="sourcePoint" />
            <mxPoint x="1000" y="770" as="targetPoint" />
          </mxGeometry>
        </mxCell>
        <mxCell id="wPTKJEdPMzPVCPXyaWyH-52" value="&lt;b&gt;jeux:&lt;br&gt;&lt;/b&gt;&lt;b&gt;&amp;nbsp;annee_de_sortie&lt;/b&gt;" style="text;html=1;align=center;verticalAlign=middle;resizable=0;points=[];autosize=1;" parent="wPTKJEdPMzPVCPXyaWyH-1" vertex="1">
          <mxGeometry x="-600" y="840" width="110" height="30" as="geometry" />
        </mxCell>
        <mxCell id="wPTKJEdPMzPVCPXyaWyH-53" value="&lt;b&gt;jeux :&lt;br&gt;&lt;/b&gt;&lt;b&gt;developpé_par&lt;/b&gt;" style="text;html=1;align=center;verticalAlign=middle;resizable=0;points=[];autosize=1;" parent="wPTKJEdPMzPVCPXyaWyH-1" vertex="1">
          <mxGeometry x="100" y="900" width="100" height="30" as="geometry" />
        </mxCell>
        <mxCell id="wPTKJEdPMzPVCPXyaWyH-54" value="&lt;b&gt;jeux&lt;/b&gt;&lt;b&gt;&amp;nbsp;&lt;br&gt;&lt;/b&gt;&lt;b&gt;&amp;nbsp;annee_de_sortie&lt;/b&gt;&lt;b&gt;&lt;br&gt;&lt;/b&gt;" style="text;html=1;align=center;verticalAlign=middle;resizable=0;points=[];autosize=1;" parent="wPTKJEdPMzPVCPXyaWyH-1" vertex="1">
          <mxGeometry x="315" y="870" width="110" height="30" as="geometry" />
        </mxCell>
        <mxCell id="wPTKJEdPMzPVCPXyaWyH-55" value="&lt;b&gt;jeux:&amp;nbsp;&lt;br&gt;&lt;/b&gt;&lt;b&gt;developpé_par&lt;/b&gt;" style="text;html=1;align=center;verticalAlign=middle;resizable=0;points=[];autosize=1;" parent="wPTKJEdPMzPVCPXyaWyH-1" vertex="1">
          <mxGeometry x="1460" y="850" width="100" height="30" as="geometry" />
        </mxCell>
        <mxCell id="wPTKJEdPMzPVCPXyaWyH-56" value="&lt;b&gt;jeux:&lt;br&gt;&lt;/b&gt;&lt;b&gt;&amp;nbsp;annee_de_sortie&lt;/b&gt;" style="text;html=1;align=center;verticalAlign=middle;resizable=0;points=[];autosize=1;" parent="wPTKJEdPMzPVCPXyaWyH-1" vertex="1">
          <mxGeometry x="1680" y="850" width="110" height="30" as="geometry" />
        </mxCell>
        <mxCell id="wPTKJEdPMzPVCPXyaWyH-57" value="&quot;2K_Sports&quot;@en" style="rounded=0;whiteSpace=wrap;html=1;" parent="wPTKJEdPMzPVCPXyaWyH-1" vertex="1">
          <mxGeometry x="-810" y="950" width="100" height="60" as="geometry" />
        </mxCell>
        <mxCell id="wPTKJEdPMzPVCPXyaWyH-58" value="&quot;2020&quot;^^xsd:int" style="rounded=0;whiteSpace=wrap;html=1;" parent="wPTKJEdPMzPVCPXyaWyH-1" vertex="1">
          <mxGeometry x="-650" y="950" width="100" height="60" as="geometry" />
        </mxCell>
        <mxCell id="wPTKJEdPMzPVCPXyaWyH-59" value="&quot;EA_Sports&quot;@en" style="rounded=0;whiteSpace=wrap;html=1;" parent="wPTKJEdPMzPVCPXyaWyH-1" vertex="1">
          <mxGeometry x="-200" y="950" width="110" height="60" as="geometry" />
        </mxCell>
        <mxCell id="wPTKJEdPMzPVCPXyaWyH-60" value="&quot;2020&quot;^^xsd:int" style="rounded=0;whiteSpace=wrap;html=1;" parent="wPTKJEdPMzPVCPXyaWyH-1" vertex="1">
          <mxGeometry x="-40" y="950" width="95" height="60" as="geometry" />
        </mxCell>
        <mxCell id="wPTKJEdPMzPVCPXyaWyH-61" value="&quot;Treyarch&quot;&lt;br&gt;@en" style="rounded=0;whiteSpace=wrap;html=1;" parent="wPTKJEdPMzPVCPXyaWyH-1" vertex="1">
          <mxGeometry x="150" y="950" width="95" height="60" as="geometry" />
        </mxCell>
        <mxCell id="wPTKJEdPMzPVCPXyaWyH-62" value="&quot;2020&quot;^^xsd:int" style="rounded=0;whiteSpace=wrap;html=1;" parent="wPTKJEdPMzPVCPXyaWyH-1" vertex="1">
          <mxGeometry x="285" y="950" width="90" height="60" as="geometry" />
        </mxCell>
        <mxCell id="wPTKJEdPMzPVCPXyaWyH-63" value="&quot;Nitendo_&lt;br&gt;Entertainment&quot; &lt;br&gt;@en" style="rounded=0;whiteSpace=wrap;html=1;" parent="wPTKJEdPMzPVCPXyaWyH-1" vertex="1">
          <mxGeometry x="545" y="940" width="100" height="60" as="geometry" />
        </mxCell>
        <mxCell id="wPTKJEdPMzPVCPXyaWyH-64" value="&quot;2017&quot;^^xsd:int" style="rounded=0;whiteSpace=wrap;html=1;" parent="wPTKJEdPMzPVCPXyaWyH-1" vertex="1">
          <mxGeometry x="740" y="940" width="95" height="60" as="geometry" />
        </mxCell>
        <mxCell id="wPTKJEdPMzPVCPXyaWyH-65" value="&quot;Maxis&quot;@en" style="rounded=0;whiteSpace=wrap;html=1;" parent="wPTKJEdPMzPVCPXyaWyH-1" vertex="1">
          <mxGeometry x="1060" y="940" width="85" height="60" as="geometry" />
        </mxCell>
        <mxCell id="wPTKJEdPMzPVCPXyaWyH-66" value="&quot;2011&quot;^^xsd:int" style="rounded=0;whiteSpace=wrap;html=1;" parent="wPTKJEdPMzPVCPXyaWyH-1" vertex="1">
          <mxGeometry x="930" y="940" width="90" height="60" as="geometry" />
        </mxCell>
        <mxCell id="wPTKJEdPMzPVCPXyaWyH-67" value="&quot;Sport_interactive&quot;&lt;br&gt;@en" style="rounded=0;whiteSpace=wrap;html=1;" parent="wPTKJEdPMzPVCPXyaWyH-1" vertex="1">
          <mxGeometry x="1504" y="940" width="112" height="60" as="geometry" />
        </mxCell>
        <mxCell id="wPTKJEdPMzPVCPXyaWyH-68" value="&quot;2020&quot;^^xsd:int" style="rounded=0;whiteSpace=wrap;html=1;" parent="wPTKJEdPMzPVCPXyaWyH-1" vertex="1">
          <mxGeometry x="1670" y="940" width="120" height="60" as="geometry" />
        </mxCell>
        <mxCell id="wPTKJEdPMzPVCPXyaWyH-69" value="&lt;p class=&quot;p1&quot; style=&quot;text-align: left ; margin: 0px ; font-stretch: normal ; line-height: normal ; font-family: &amp;#34;menlo&amp;#34;&quot;&gt;&lt;b&gt;@prefix type_jeux_videos&lt;/b&gt;:&amp;nbsp;&lt;font color=&quot;#ea6b66&quot;&gt;&lt;b&gt;&amp;lt;http://www.type_jeux_videos.fr/jeux#&amp;gt; .&lt;/b&gt;&lt;/font&gt;&lt;/p&gt;&lt;p class=&quot;p1&quot; style=&quot;text-align: left ; margin: 0px ; font-stretch: normal ; line-height: normal ; font-family: &amp;#34;menlo&amp;#34;&quot;&gt;&lt;b&gt;@prefix rdf:&amp;nbsp;&lt;/b&gt;&lt;span class=&quot;Apple-converted-space&quot;&gt;&amp;nbsp;&amp;nbsp;&lt;/span&gt;&lt;font color=&quot;#ea6b66&quot;&gt;&lt;b&gt;&amp;lt;http://www.w3.org/1999/02/22-rdf-syntax-ns#&amp;gt; .&lt;/b&gt;&lt;/font&gt;&lt;/p&gt;&lt;p class=&quot;p1&quot; style=&quot;text-align: left ; margin: 0px ; font-stretch: normal ; line-height: normal ; font-family: &amp;#34;menlo&amp;#34;&quot;&gt;&lt;b&gt;@prefix xsd:&lt;/b&gt;&amp;nbsp;&lt;span class=&quot;Apple-converted-space&quot;&gt;&amp;nbsp;&amp;nbsp;&lt;/span&gt;&lt;font color=&quot;#ea6b66&quot;&gt;&lt;b&gt;&amp;lt;http://www.w3.org/2001/XMLSchema#&amp;gt; .&lt;/b&gt;&lt;/font&gt;&lt;/p&gt;&lt;p class=&quot;p1&quot; style=&quot;text-align: left ; margin: 0px ; font-stretch: normal ; line-height: normal ; font-family: &amp;#34;menlo&amp;#34;&quot;&gt;&lt;b&gt;@prefix rdfs:&lt;/b&gt;&lt;span class=&quot;Apple-converted-space&quot;&gt;&amp;nbsp;&amp;nbsp;&lt;/span&gt;&lt;font color=&quot;#ea6b66&quot;&gt;&lt;b&gt;&amp;lt;http://www.w3.org/2000/01/rdf-schema#&amp;gt; .&lt;/b&gt;&lt;/font&gt;&lt;/p&gt;&lt;p class=&quot;p1&quot; style=&quot;text-align: left ; margin: 0px ; font-stretch: normal ; line-height: normal ; font-family: &amp;#34;menlo&amp;#34;&quot;&gt;&lt;b&gt;@prefix jeux:&lt;/b&gt;&lt;span class=&quot;Apple-converted-space&quot;&gt;&amp;nbsp;&amp;nbsp;&lt;/span&gt;&lt;font color=&quot;#ea6b66&quot;&gt;&lt;b&gt;&amp;lt;http://www.jeux.fr/jeux#&amp;gt; .&lt;/b&gt;&lt;/font&gt;&lt;/p&gt;" style="text;html=1;align=center;verticalAlign=middle;resizable=0;points=[];autosize=1;" parent="wPTKJEdPMzPVCPXyaWyH-1" vertex="1">
          <mxGeometry x="750" y="-50" width="490" height="80" as="geometry" />
        </mxCell>
        <mxCell id="IKS38-O2-NW5O7pU6Ddy-2" value="&lt;b&gt;type_jeux_videos&lt;/b&gt;&lt;b&gt;&amp;nbsp;:&amp;nbsp;Football&amp;nbsp;&lt;/b&gt;" style="ellipse;whiteSpace=wrap;html=1;fillColor=#dae8fc;strokeColor=#6c8ebf;" parent="wPTKJEdPMzPVCPXyaWyH-1" vertex="1">
          <mxGeometry x="-120" y="540" width="120" height="80" as="geometry" />
        </mxCell>
        <mxCell id="IKS38-O2-NW5O7pU6Ddy-3" value="&lt;b&gt;type_jeux_videos&lt;/b&gt;&lt;b&gt;&amp;nbsp;: Basketball&amp;nbsp;&lt;/b&gt;" style="ellipse;whiteSpace=wrap;html=1;fillColor=#dae8fc;strokeColor=#6c8ebf;" parent="wPTKJEdPMzPVCPXyaWyH-1" vertex="1">
          <mxGeometry x="-533" y="530" width="120" height="80" as="geometry" />
        </mxCell>
        <mxCell id="IKS38-O2-NW5O7pU6Ddy-4" value="" style="endArrow=classic;html=1;exitX=0.675;exitY=0.057;exitDx=0;exitDy=0;exitPerimeter=0;" parent="wPTKJEdPMzPVCPXyaWyH-1" edge="1">
          <mxGeometry width="50" height="50" relative="1" as="geometry">
            <mxPoint x="-429.9999999999998" y="541.7750000000001" as="sourcePoint" />
            <mxPoint x="-290" y="453" as="targetPoint" />
          </mxGeometry>
        </mxCell>
        <mxCell id="IKS38-O2-NW5O7pU6Ddy-5" value="" style="endArrow=classic;html=1;exitX=0;exitY=0;exitDx=0;exitDy=0;entryX=1;entryY=1;entryDx=0;entryDy=0;" parent="wPTKJEdPMzPVCPXyaWyH-1" source="IKS38-O2-NW5O7pU6Ddy-2" target="wPTKJEdPMzPVCPXyaWyH-3" edge="1">
          <mxGeometry width="50" height="50" relative="1" as="geometry">
            <mxPoint x="-125.74999999999977" y="529.9950000000001" as="sourcePoint" />
            <mxPoint x="-10" y="438.22" as="targetPoint" />
          </mxGeometry>
        </mxCell>
        <mxCell id="IKS38-O2-NW5O7pU6Ddy-7" value="&lt;b style=&quot;color: rgb(0, 0, 0); font-family: helvetica; font-size: 12px; font-style: normal; letter-spacing: normal; text-align: center; text-indent: 0px; text-transform: none; word-spacing: 0px; text-decoration: none;&quot;&gt;&lt;font color=&quot;#999999&quot;&gt;rdfs : SubClassOf&lt;/font&gt;&lt;/b&gt;" style="text;whiteSpace=wrap;html=1;" parent="wPTKJEdPMzPVCPXyaWyH-1" vertex="1">
          <mxGeometry x="60" y="330" width="130" height="30" as="geometry" />
        </mxCell>
        <mxCell id="IKS38-O2-NW5O7pU6Ddy-8" value="&lt;b style=&quot;color: rgb(0, 0, 0); font-family: helvetica; font-size: 12px; font-style: normal; letter-spacing: normal; text-align: center; text-indent: 0px; text-transform: none; word-spacing: 0px; text-decoration: none;&quot;&gt;&lt;font color=&quot;#999999&quot;&gt;rdfs : SubClassOf&lt;/font&gt;&lt;/b&gt;" style="text;whiteSpace=wrap;html=1;" parent="wPTKJEdPMzPVCPXyaWyH-1" vertex="1">
          <mxGeometry x="-155" y="480" width="130" height="30" as="geometry" />
        </mxCell>
        <mxCell id="IKS38-O2-NW5O7pU6Ddy-9" value="&lt;b style=&quot;color: rgb(0, 0, 0); font-family: helvetica; font-size: 12px; font-style: normal; letter-spacing: normal; text-align: center; text-indent: 0px; text-transform: none; word-spacing: 0px; text-decoration: none;&quot;&gt;&lt;font color=&quot;#999999&quot;&gt;rdfs : SubClassOf&lt;/font&gt;&lt;/b&gt;" style="text;whiteSpace=wrap;html=1;" parent="wPTKJEdPMzPVCPXyaWyH-1" vertex="1">
          <mxGeometry x="-478" y="480" width="130" height="30" as="geometry" />
        </mxCell>
        <mxCell id="IKS38-O2-NW5O7pU6Ddy-10" value="&lt;b&gt;type_jeux_videos&lt;/b&gt;&lt;b&gt;&amp;nbsp;: Gestion&amp;nbsp;&lt;/b&gt;" style="ellipse;whiteSpace=wrap;html=1;fillColor=#dae8fc;strokeColor=#6c8ebf;" parent="wPTKJEdPMzPVCPXyaWyH-1" vertex="1">
          <mxGeometry x="1400" y="530" width="120" height="80" as="geometry" />
        </mxCell>
        <mxCell id="IKS38-O2-NW5O7pU6Ddy-11" value="&lt;b&gt;type_jeux_videos : Simulation_de_vie&lt;/b&gt;" style="ellipse;whiteSpace=wrap;html=1;fillColor=#dae8fc;strokeColor=#6c8ebf;" parent="wPTKJEdPMzPVCPXyaWyH-1" vertex="1">
          <mxGeometry x="1002.5" y="530" width="220" height="80" as="geometry" />
        </mxCell>
        <mxCell id="IKS38-O2-NW5O7pU6Ddy-14" value="" style="endArrow=classic;html=1;entryX=0.975;entryY=0.75;entryDx=0;entryDy=0;entryPerimeter=0;" parent="wPTKJEdPMzPVCPXyaWyH-1" target="wPTKJEdPMzPVCPXyaWyH-5" edge="1">
          <mxGeometry width="50" height="50" relative="1" as="geometry">
            <mxPoint x="1430.0038355139777" y="532.9395432131068" as="sourcePoint" />
            <mxPoint x="1366.35" y="430" as="targetPoint" />
          </mxGeometry>
        </mxCell>
        <mxCell id="IKS38-O2-NW5O7pU6Ddy-15" value="" style="endArrow=classic;html=1;" parent="wPTKJEdPMzPVCPXyaWyH-1" target="wPTKJEdPMzPVCPXyaWyH-5" edge="1">
          <mxGeometry width="50" height="50" relative="1" as="geometry">
            <mxPoint x="1103.6538355139778" y="529.9995432131068" as="sourcePoint" />
            <mxPoint x="1040" y="427.06" as="targetPoint" />
          </mxGeometry>
        </mxCell>
        <mxCell id="IKS38-O2-NW5O7pU6Ddy-17" value="&lt;b style=&quot;color: rgb(0, 0, 0); font-family: helvetica; font-size: 12px; font-style: normal; letter-spacing: normal; text-align: center; text-indent: 0px; text-transform: none; word-spacing: 0px; text-decoration: none;&quot;&gt;&lt;font color=&quot;#999999&quot;&gt;rdfs : SubClassOf&lt;/font&gt;&lt;/b&gt;" style="text;whiteSpace=wrap;html=1;" parent="wPTKJEdPMzPVCPXyaWyH-1" vertex="1">
          <mxGeometry x="1040" y="480" width="130" height="30" as="geometry" />
        </mxCell>
        <mxCell id="IKS38-O2-NW5O7pU6Ddy-18" value="&lt;b style=&quot;color: rgb(0, 0, 0); font-family: helvetica; font-size: 12px; font-style: normal; letter-spacing: normal; text-align: center; text-indent: 0px; text-transform: none; word-spacing: 0px; text-decoration: none;&quot;&gt;&lt;font color=&quot;#999999&quot;&gt;rdfs : SubClassOf&lt;/font&gt;&lt;/b&gt;" style="text;whiteSpace=wrap;html=1;" parent="wPTKJEdPMzPVCPXyaWyH-1" vertex="1">
          <mxGeometry x="1374" y="480" width="130" height="30" as="geometry" />
        </mxCell>
        <mxCell id="IKS38-O2-NW5O7pU6Ddy-19" value="&lt;b&gt;type_jeux_videos&lt;/b&gt;&lt;b&gt;: Plateforme&amp;nbsp;&lt;/b&gt;" style="ellipse;whiteSpace=wrap;html=1;fillColor=#dae8fc;strokeColor=#6c8ebf;" parent="wPTKJEdPMzPVCPXyaWyH-1" vertex="1">
          <mxGeometry x="465" y="530" width="120" height="80" as="geometry" />
        </mxCell>
        <mxCell id="IKS38-O2-NW5O7pU6Ddy-20" value="&lt;b&gt;type_jeux_videos&lt;/b&gt;&lt;b&gt;: FPS&amp;nbsp;&lt;/b&gt;" style="ellipse;whiteSpace=wrap;html=1;fillColor=#dae8fc;strokeColor=#6c8ebf;" parent="wPTKJEdPMzPVCPXyaWyH-1" vertex="1">
          <mxGeometry x="185" y="530" width="120" height="80" as="geometry" />
        </mxCell>
        <mxCell id="IKS38-O2-NW5O7pU6Ddy-22" value="" style="endArrow=classic;html=1;exitX=0.5;exitY=0;exitDx=0;exitDy=0;entryX=0;entryY=1;entryDx=0;entryDy=0;" parent="wPTKJEdPMzPVCPXyaWyH-1" target="wPTKJEdPMzPVCPXyaWyH-4" edge="1">
          <mxGeometry width="50" height="50" relative="1" as="geometry">
            <mxPoint x="260" y="530" as="sourcePoint" />
            <mxPoint x="270" y="435" as="targetPoint" />
          </mxGeometry>
        </mxCell>
        <mxCell id="IKS38-O2-NW5O7pU6Ddy-23" value="" style="endArrow=classic;html=1;exitX=0.5;exitY=0;exitDx=0;exitDy=0;entryX=1;entryY=1;entryDx=0;entryDy=0;" parent="wPTKJEdPMzPVCPXyaWyH-1" target="wPTKJEdPMzPVCPXyaWyH-4" edge="1">
          <mxGeometry width="50" height="50" relative="1" as="geometry">
            <mxPoint x="520" y="530" as="sourcePoint" />
            <mxPoint x="530" y="435" as="targetPoint" />
          </mxGeometry>
        </mxCell>
        <mxCell id="IKS38-O2-NW5O7pU6Ddy-24" value="&lt;b style=&quot;color: rgb(0, 0, 0); font-size: 12px; font-style: normal; letter-spacing: normal; text-indent: 0px; text-transform: none; word-spacing: 0px; text-decoration: none; font-family: helvetica; text-align: center;&quot;&gt;&lt;font color=&quot;#999999&quot;&gt;rdfs : SubClassOf&lt;/font&gt;&lt;/b&gt;" style="text;whiteSpace=wrap;html=1;" parent="wPTKJEdPMzPVCPXyaWyH-1" vertex="1">
          <mxGeometry x="170" y="480" width="130" height="30" as="geometry" />
        </mxCell>
        <mxCell id="IKS38-O2-NW5O7pU6Ddy-25" value="&lt;b style=&quot;color: rgb(0, 0, 0); font-size: 12px; font-style: normal; letter-spacing: normal; text-indent: 0px; text-transform: none; word-spacing: 0px; text-decoration: none; font-family: helvetica; text-align: center;&quot;&gt;&lt;font color=&quot;#999999&quot;&gt;rdfs : SubClassOf&lt;/font&gt;&lt;/b&gt;" style="text;whiteSpace=wrap;html=1;" parent="wPTKJEdPMzPVCPXyaWyH-1" vertex="1">
          <mxGeometry x="490" y="480" width="130" height="30" as="geometry" />
        </mxCell>
        <mxCell id="5Q7PdIdejQ3w4Bc5Mc9u-0" value="&lt;b&gt;jeux : NBA2K20&lt;/b&gt;" style="ellipse;whiteSpace=wrap;html=1;fillColor=#f8cecc;strokeColor=#b85450;" parent="wPTKJEdPMzPVCPXyaWyH-1" vertex="1">
          <mxGeometry x="-1000" y="687.5" width="110" height="75" as="geometry" />
        </mxCell>
        <mxCell id="5Q7PdIdejQ3w4Bc5Mc9u-1" value="" style="endArrow=classic;html=1;exitX=0.675;exitY=0.057;exitDx=0;exitDy=0;exitPerimeter=0;" parent="wPTKJEdPMzPVCPXyaWyH-1" source="5Q7PdIdejQ3w4Bc5Mc9u-0" edge="1">
          <mxGeometry width="50" height="50" relative="1" as="geometry">
            <mxPoint x="-270" y="550" as="sourcePoint" />
            <mxPoint x="-540" y="570" as="targetPoint" />
          </mxGeometry>
        </mxCell>
        <mxCell id="5Q7PdIdejQ3w4Bc5Mc9u-2" value="&lt;b&gt;&lt;font color=&quot;#67ab9f&quot;&gt;rdf:type&lt;/font&gt;&lt;/b&gt;" style="text;html=1;align=center;verticalAlign=middle;resizable=0;points=[];autosize=1;" parent="wPTKJEdPMzPVCPXyaWyH-1" vertex="1">
          <mxGeometry x="-850" y="630" width="60" height="20" as="geometry" />
        </mxCell>
        <mxCell id="5Q7PdIdejQ3w4Bc5Mc9u-3" value="" style="endArrow=classic;html=1;entryX=0;entryY=1;entryDx=0;entryDy=0;exitX=0.658;exitY=-0.033;exitDx=0;exitDy=0;exitPerimeter=0;" parent="wPTKJEdPMzPVCPXyaWyH-1" source="5Q7PdIdejQ3w4Bc5Mc9u-7" target="5Q7PdIdejQ3w4Bc5Mc9u-0" edge="1">
          <mxGeometry width="50" height="50" relative="1" as="geometry">
            <mxPoint x="-480" y="780" as="sourcePoint" />
            <mxPoint x="-398.4027033184981" y="620.0029022705517" as="targetPoint" />
            <Array as="points" />
          </mxGeometry>
        </mxCell>
        <mxCell id="5Q7PdIdejQ3w4Bc5Mc9u-4" value="" style="endArrow=classic;html=1;exitX=0.65;exitY=0;exitDx=0;exitDy=0;exitPerimeter=0;entryX=0.6;entryY=0.987;entryDx=0;entryDy=0;entryPerimeter=0;" parent="wPTKJEdPMzPVCPXyaWyH-1" source="5Q7PdIdejQ3w4Bc5Mc9u-8" target="5Q7PdIdejQ3w4Bc5Mc9u-0" edge="1">
          <mxGeometry width="50" height="50" relative="1" as="geometry">
            <mxPoint x="-320" y="780" as="sourcePoint" />
            <mxPoint x="-340" y="622" as="targetPoint" />
          </mxGeometry>
        </mxCell>
        <mxCell id="5Q7PdIdejQ3w4Bc5Mc9u-5" value="&lt;b&gt;jeux :&lt;br&gt;developpé_par&lt;/b&gt;" style="text;html=1;align=center;verticalAlign=middle;resizable=0;points=[];autosize=1;" parent="wPTKJEdPMzPVCPXyaWyH-1" vertex="1">
          <mxGeometry x="-1120" y="830" width="100" height="30" as="geometry" />
        </mxCell>
        <mxCell id="5Q7PdIdejQ3w4Bc5Mc9u-6" value="&lt;b&gt;jeux:&lt;br&gt;&lt;/b&gt;&lt;b&gt;&amp;nbsp;annee_de_sortie&lt;/b&gt;" style="text;html=1;align=center;verticalAlign=middle;resizable=0;points=[];autosize=1;" parent="wPTKJEdPMzPVCPXyaWyH-1" vertex="1">
          <mxGeometry x="-900" y="840" width="110" height="30" as="geometry" />
        </mxCell>
        <mxCell id="5Q7PdIdejQ3w4Bc5Mc9u-7" value="&quot;2K_Sports&quot;@en" style="rounded=0;whiteSpace=wrap;html=1;" parent="wPTKJEdPMzPVCPXyaWyH-1" vertex="1">
          <mxGeometry x="-1110" y="950" width="100" height="60" as="geometry" />
        </mxCell>
        <mxCell id="5Q7PdIdejQ3w4Bc5Mc9u-8" value="&quot;2019&quot;^^xsd:int" style="rounded=0;whiteSpace=wrap;html=1;" parent="wPTKJEdPMzPVCPXyaWyH-1" vertex="1">
          <mxGeometry x="-950" y="950" width="100" height="60" as="geometry" />
        </mxCell>
        <mxCell id="5Q7PdIdejQ3w4Bc5Mc9u-9" value="&lt;b&gt;jeux&lt;/b&gt;&lt;b&gt;&amp;nbsp;: Fifa20&lt;/b&gt;" style="ellipse;whiteSpace=wrap;html=1;fillColor=#f8cecc;strokeColor=#b85450;" parent="wPTKJEdPMzPVCPXyaWyH-1" vertex="1">
          <mxGeometry x="-400" y="705" width="110" height="75" as="geometry" />
        </mxCell>
        <mxCell id="5Q7PdIdejQ3w4Bc5Mc9u-10" value="" style="endArrow=classic;html=1;exitX=0.364;exitY=0.036;exitDx=0;exitDy=0;exitPerimeter=0;entryX=0;entryY=0.625;entryDx=0;entryDy=0;entryPerimeter=0;" parent="wPTKJEdPMzPVCPXyaWyH-1" source="5Q7PdIdejQ3w4Bc5Mc9u-9" target="IKS38-O2-NW5O7pU6Ddy-2" edge="1">
          <mxGeometry width="50" height="50" relative="1" as="geometry">
            <mxPoint x="-85.5" y="551" as="sourcePoint" />
            <mxPoint x="-365.03999999999996" y="610" as="targetPoint" />
          </mxGeometry>
        </mxCell>
        <mxCell id="5Q7PdIdejQ3w4Bc5Mc9u-11" value="&lt;b&gt;&lt;font color=&quot;#67ab9f&quot;&gt;rdf : type&lt;/font&gt;&lt;/b&gt;" style="text;html=1;align=center;verticalAlign=middle;resizable=0;points=[];autosize=1;" parent="wPTKJEdPMzPVCPXyaWyH-1" vertex="1">
          <mxGeometry x="-440" y="675" width="70" height="20" as="geometry" />
        </mxCell>
        <mxCell id="5Q7PdIdejQ3w4Bc5Mc9u-12" value="" style="endArrow=classic;html=1;entryX=0;entryY=1;entryDx=0;entryDy=0;exitX=0.5;exitY=0;exitDx=0;exitDy=0;" parent="wPTKJEdPMzPVCPXyaWyH-1" source="5Q7PdIdejQ3w4Bc5Mc9u-16" target="5Q7PdIdejQ3w4Bc5Mc9u-9" edge="1">
          <mxGeometry width="50" height="50" relative="1" as="geometry">
            <mxPoint x="-215" y="770" as="sourcePoint" />
            <mxPoint x="-135.00075431886071" y="639.8008874339534" as="targetPoint" />
          </mxGeometry>
        </mxCell>
        <mxCell id="5Q7PdIdejQ3w4Bc5Mc9u-13" value="" style="endArrow=classic;html=1;exitX=0.417;exitY=-0.05;exitDx=0;exitDy=0;exitPerimeter=0;entryX=1;entryY=1;entryDx=0;entryDy=0;" parent="wPTKJEdPMzPVCPXyaWyH-1" source="5Q7PdIdejQ3w4Bc5Mc9u-17" target="5Q7PdIdejQ3w4Bc5Mc9u-9" edge="1">
          <mxGeometry width="50" height="50" relative="1" as="geometry">
            <mxPoint x="-85" y="760" as="sourcePoint" />
            <mxPoint x="-115" y="622" as="targetPoint" />
          </mxGeometry>
        </mxCell>
        <mxCell id="5Q7PdIdejQ3w4Bc5Mc9u-14" value="&lt;b&gt;jeux :&lt;br&gt;&lt;/b&gt;&lt;b&gt;developpé_par&lt;/b&gt;" style="text;html=1;align=center;verticalAlign=middle;resizable=0;points=[];autosize=1;" parent="wPTKJEdPMzPVCPXyaWyH-1" vertex="1">
          <mxGeometry x="-500" y="790" width="100" height="30" as="geometry" />
        </mxCell>
        <mxCell id="5Q7PdIdejQ3w4Bc5Mc9u-15" value="&lt;b&gt;jeux&lt;/b&gt;&lt;b&gt;&amp;nbsp;:&lt;br&gt;&lt;/b&gt;&lt;b&gt;&amp;nbsp;annee_de_sortie&lt;/b&gt;&lt;b&gt;&lt;br&gt;&lt;/b&gt;" style="text;html=1;align=center;verticalAlign=middle;resizable=0;points=[];autosize=1;" parent="wPTKJEdPMzPVCPXyaWyH-1" vertex="1">
          <mxGeometry x="-300" y="840" width="110" height="30" as="geometry" />
        </mxCell>
        <mxCell id="5Q7PdIdejQ3w4Bc5Mc9u-16" value="&quot;EA_Sports&quot;@en" style="rounded=0;whiteSpace=wrap;html=1;" parent="wPTKJEdPMzPVCPXyaWyH-1" vertex="1">
          <mxGeometry x="-485" y="950" width="110" height="60" as="geometry" />
        </mxCell>
        <mxCell id="5Q7PdIdejQ3w4Bc5Mc9u-17" value="&quot;2019&quot;^^xsd:int" style="rounded=0;whiteSpace=wrap;html=1;" parent="wPTKJEdPMzPVCPXyaWyH-1" vertex="1">
          <mxGeometry x="-325" y="950" width="95" height="60" as="geometry" />
        </mxCell>
        <mxCell id="oNv_2AcVSlbC6w7N84mN-0" value="&lt;b&gt;jeux : Tennis_World_Tour&lt;/b&gt;" style="ellipse;whiteSpace=wrap;html=1;fillColor=#f8cecc;strokeColor=#b85450;" parent="wPTKJEdPMzPVCPXyaWyH-1" vertex="1">
          <mxGeometry x="-822.9" y="325" width="110" height="75" as="geometry" />
        </mxCell>
        <mxCell id="oNv_2AcVSlbC6w7N84mN-1" value="" style="endArrow=classic;html=1;exitX=1;exitY=0.5;exitDx=0;exitDy=0;entryX=0;entryY=1;entryDx=0;entryDy=0;" parent="wPTKJEdPMzPVCPXyaWyH-1" source="oNv_2AcVSlbC6w7N84mN-0" target="oNv_2AcVSlbC6w7N84mN-9" edge="1">
          <mxGeometry width="50" height="50" relative="1" as="geometry">
            <mxPoint x="-72.9" y="330" as="sourcePoint" />
            <mxPoint x="-612.9" y="380" as="targetPoint" />
          </mxGeometry>
        </mxCell>
        <mxCell id="oNv_2AcVSlbC6w7N84mN-2" value="&lt;b&gt;&lt;font color=&quot;#67ab9f&quot;&gt;rdf:type&lt;/font&gt;&lt;/b&gt;" style="text;html=1;align=center;verticalAlign=middle;resizable=0;points=[];autosize=1;" parent="wPTKJEdPMzPVCPXyaWyH-1" vertex="1">
          <mxGeometry x="-650" y="325" width="60" height="20" as="geometry" />
        </mxCell>
        <mxCell id="oNv_2AcVSlbC6w7N84mN-3" value="" style="endArrow=classic;html=1;entryX=0;entryY=0;entryDx=0;entryDy=0;exitX=1;exitY=0.5;exitDx=0;exitDy=0;" parent="wPTKJEdPMzPVCPXyaWyH-1" source="oNv_2AcVSlbC6w7N84mN-7" target="oNv_2AcVSlbC6w7N84mN-0" edge="1">
          <mxGeometry width="50" height="50" relative="1" as="geometry">
            <mxPoint x="-282.9" y="560" as="sourcePoint" />
            <mxPoint x="-201.30270331849803" y="400.00290227055166" as="targetPoint" />
            <Array as="points" />
          </mxGeometry>
        </mxCell>
        <mxCell id="oNv_2AcVSlbC6w7N84mN-4" value="" style="endArrow=classic;html=1;exitX=1;exitY=0.5;exitDx=0;exitDy=0;entryX=0;entryY=1;entryDx=0;entryDy=0;" parent="wPTKJEdPMzPVCPXyaWyH-1" source="oNv_2AcVSlbC6w7N84mN-8" target="oNv_2AcVSlbC6w7N84mN-0" edge="1">
          <mxGeometry width="50" height="50" relative="1" as="geometry">
            <mxPoint x="-122.9" y="560" as="sourcePoint" />
            <mxPoint x="-142.9" y="402" as="targetPoint" />
          </mxGeometry>
        </mxCell>
        <mxCell id="oNv_2AcVSlbC6w7N84mN-5" value="&lt;b&gt;jeux :&lt;br&gt;developpé_par&lt;/b&gt;" style="text;html=1;align=center;verticalAlign=middle;resizable=0;points=[];autosize=1;" parent="wPTKJEdPMzPVCPXyaWyH-1" vertex="1">
          <mxGeometry x="-937" y="260" width="100" height="30" as="geometry" />
        </mxCell>
        <mxCell id="oNv_2AcVSlbC6w7N84mN-6" value="&lt;b&gt;jeux:&lt;br&gt;&lt;/b&gt;&lt;b&gt;&amp;nbsp;annee_de_sortie&lt;/b&gt;" style="text;html=1;align=center;verticalAlign=middle;resizable=0;points=[];autosize=1;" parent="wPTKJEdPMzPVCPXyaWyH-1" vertex="1">
          <mxGeometry x="-937" y="440" width="110" height="30" as="geometry" />
        </mxCell>
        <mxCell id="oNv_2AcVSlbC6w7N84mN-7" value="&quot;Breakpoint_Studio&quot;@en" style="rounded=0;whiteSpace=wrap;html=1;" parent="wPTKJEdPMzPVCPXyaWyH-1" vertex="1">
          <mxGeometry x="-1070" y="270" width="100" height="60" as="geometry" />
        </mxCell>
        <mxCell id="oNv_2AcVSlbC6w7N84mN-8" value="&quot;2018&quot;^^xsd:int" style="rounded=0;whiteSpace=wrap;html=1;" parent="wPTKJEdPMzPVCPXyaWyH-1" vertex="1">
          <mxGeometry x="-1070" y="410" width="100" height="60" as="geometry" />
        </mxCell>
        <mxCell id="oNv_2AcVSlbC6w7N84mN-9" value="&lt;b&gt;type_jeux_videos&lt;/b&gt;&lt;b&gt;&amp;nbsp;: Tennis&amp;nbsp;&lt;/b&gt;" style="ellipse;whiteSpace=wrap;html=1;fillColor=#dae8fc;strokeColor=#6c8ebf;" parent="wPTKJEdPMzPVCPXyaWyH-1" vertex="1">
          <mxGeometry x="-550" y="170" width="120" height="80" as="geometry" />
        </mxCell>
        <mxCell id="oNv_2AcVSlbC6w7N84mN-10" value="" style="endArrow=classic;html=1;exitX=1;exitY=0.5;exitDx=0;exitDy=0;" parent="wPTKJEdPMzPVCPXyaWyH-1" source="oNv_2AcVSlbC6w7N84mN-9" target="wPTKJEdPMzPVCPXyaWyH-3" edge="1">
          <mxGeometry width="50" height="50" relative="1" as="geometry">
            <mxPoint x="-532.9" y="321.7750000000001" as="sourcePoint" />
            <mxPoint x="-392.9" y="233" as="targetPoint" />
          </mxGeometry>
        </mxCell>
        <mxCell id="oNv_2AcVSlbC6w7N84mN-11" value="&lt;b style=&quot;color: rgb(0, 0, 0); font-family: helvetica; font-size: 12px; font-style: normal; letter-spacing: normal; text-align: center; text-indent: 0px; text-transform: none; word-spacing: 0px; text-decoration: none;&quot;&gt;&lt;font color=&quot;#999999&quot;&gt;rdfs : SubClassOf&lt;/font&gt;&lt;/b&gt;" style="text;whiteSpace=wrap;html=1;" parent="wPTKJEdPMzPVCPXyaWyH-1" vertex="1">
          <mxGeometry x="-360" y="250" width="130" height="30" as="geometry" />
        </mxCell>
        <mxCell id="oNv_2AcVSlbC6w7N84mN-12" value="&lt;b&gt;jeux : AO_Tennis_2&lt;/b&gt;" style="ellipse;whiteSpace=wrap;html=1;fillColor=#f8cecc;strokeColor=#b85450;" parent="wPTKJEdPMzPVCPXyaWyH-1" vertex="1">
          <mxGeometry x="-829.9999999999999" y="75" width="110" height="75" as="geometry" />
        </mxCell>
        <mxCell id="oNv_2AcVSlbC6w7N84mN-13" value="" style="endArrow=classic;html=1;exitX=1;exitY=0.5;exitDx=0;exitDy=0;" parent="wPTKJEdPMzPVCPXyaWyH-1" source="oNv_2AcVSlbC6w7N84mN-12" target="oNv_2AcVSlbC6w7N84mN-9" edge="1">
          <mxGeometry width="50" height="50" relative="1" as="geometry">
            <mxPoint x="-372.9" y="330" as="sourcePoint" />
            <mxPoint x="-642.9" y="350" as="targetPoint" />
          </mxGeometry>
        </mxCell>
        <mxCell id="oNv_2AcVSlbC6w7N84mN-14" value="&lt;b&gt;&lt;font color=&quot;#67ab9f&quot;&gt;rdf:type&lt;/font&gt;&lt;/b&gt;" style="text;html=1;align=center;verticalAlign=middle;resizable=0;points=[];autosize=1;" parent="wPTKJEdPMzPVCPXyaWyH-1" vertex="1">
          <mxGeometry x="-660" y="110" width="60" height="20" as="geometry" />
        </mxCell>
        <mxCell id="oNv_2AcVSlbC6w7N84mN-15" value="" style="endArrow=classic;html=1;entryX=0.068;entryY=0.75;entryDx=0;entryDy=0;exitX=1;exitY=0.5;exitDx=0;exitDy=0;entryPerimeter=0;" parent="wPTKJEdPMzPVCPXyaWyH-1" source="oNv_2AcVSlbC6w7N84mN-19" target="oNv_2AcVSlbC6w7N84mN-12" edge="1">
          <mxGeometry width="50" height="50" relative="1" as="geometry">
            <mxPoint x="-1147.1" y="728.02" as="sourcePoint" />
            <mxPoint x="-501.30270331849806" y="400.00290227055166" as="targetPoint" />
            <Array as="points" />
          </mxGeometry>
        </mxCell>
        <mxCell id="oNv_2AcVSlbC6w7N84mN-16" value="" style="endArrow=classic;html=1;exitX=0.65;exitY=0;exitDx=0;exitDy=0;exitPerimeter=0;" parent="wPTKJEdPMzPVCPXyaWyH-1" source="oNv_2AcVSlbC6w7N84mN-18" target="oNv_2AcVSlbC6w7N84mN-12" edge="1">
          <mxGeometry width="50" height="50" relative="1" as="geometry">
            <mxPoint x="-422.9" y="560" as="sourcePoint" />
            <mxPoint x="-442.9" y="402" as="targetPoint" />
          </mxGeometry>
        </mxCell>
        <mxCell id="oNv_2AcVSlbC6w7N84mN-17" value="&lt;b&gt;jeux:&lt;br&gt;&lt;/b&gt;&lt;b&gt;&amp;nbsp;annee_de_sortie&lt;/b&gt;" style="text;html=1;align=center;verticalAlign=middle;resizable=0;points=[];autosize=1;" parent="wPTKJEdPMzPVCPXyaWyH-1" vertex="1">
          <mxGeometry x="-940" y="10" width="110" height="30" as="geometry" />
        </mxCell>
        <mxCell id="oNv_2AcVSlbC6w7N84mN-18" value="&quot;2020&quot;^^xsd:int" style="rounded=0;whiteSpace=wrap;html=1;" parent="wPTKJEdPMzPVCPXyaWyH-1" vertex="1">
          <mxGeometry x="-1069.9999999999998" y="30" width="100" height="60" as="geometry" />
        </mxCell>
        <mxCell id="oNv_2AcVSlbC6w7N84mN-19" value="&quot;Big_Ant_Studios&quot;@en" style="rounded=0;whiteSpace=wrap;html=1;" parent="wPTKJEdPMzPVCPXyaWyH-1" vertex="1">
          <mxGeometry x="-1070" y="160" width="100" height="60" as="geometry" />
        </mxCell>
        <mxCell id="oNv_2AcVSlbC6w7N84mN-21" value="&lt;b&gt;jeux :&lt;br&gt;developpé_par&lt;/b&gt;" style="text;html=1;align=center;verticalAlign=middle;resizable=0;points=[];autosize=1;" parent="wPTKJEdPMzPVCPXyaWyH-1" vertex="1">
          <mxGeometry x="-922.9" y="175" width="100" height="30" as="geometry" />
        </mxCell>
        <mxCell id="oNv_2AcVSlbC6w7N84mN-22" value="&lt;b&gt;jeux&lt;/b&gt;&lt;b&gt;&amp;nbsp;: Dofus&lt;br&gt;&lt;/b&gt;" style="ellipse;whiteSpace=wrap;html=1;fillColor=#f8cecc;strokeColor=#b85450;" parent="wPTKJEdPMzPVCPXyaWyH-1" vertex="1">
          <mxGeometry x="1490" y="15" width="110" height="75" as="geometry" />
        </mxCell>
        <mxCell id="oNv_2AcVSlbC6w7N84mN-23" value="" style="endArrow=classic;html=1;exitX=0;exitY=0.5;exitDx=0;exitDy=0;entryX=0.964;entryY=0.296;entryDx=0;entryDy=0;entryPerimeter=0;" parent="wPTKJEdPMzPVCPXyaWyH-1" source="oNv_2AcVSlbC6w7N84mN-22" target="oNv_2AcVSlbC6w7N84mN-31" edge="1">
          <mxGeometry width="50" height="50" relative="1" as="geometry">
            <mxPoint x="820" y="177" as="sourcePoint" />
            <mxPoint x="1230" y="240" as="targetPoint" />
          </mxGeometry>
        </mxCell>
        <mxCell id="oNv_2AcVSlbC6w7N84mN-24" value="&lt;b&gt;&lt;font color=&quot;#67ab9f&quot;&gt;rdf: type&lt;/font&gt;&lt;/b&gt;" style="text;html=1;align=center;verticalAlign=middle;resizable=0;points=[];autosize=1;" parent="wPTKJEdPMzPVCPXyaWyH-1" vertex="1">
          <mxGeometry x="1400" y="170" width="60" height="20" as="geometry" />
        </mxCell>
        <mxCell id="oNv_2AcVSlbC6w7N84mN-25" value="&lt;b&gt;jeux :&lt;br&gt;&lt;/b&gt;&lt;b&gt;developpé_par&lt;/b&gt;" style="text;html=1;align=center;verticalAlign=middle;resizable=0;points=[];autosize=1;" parent="wPTKJEdPMzPVCPXyaWyH-1" vertex="1">
          <mxGeometry x="1610" y="-70" width="100" height="30" as="geometry" />
        </mxCell>
        <mxCell id="oNv_2AcVSlbC6w7N84mN-26" value="&lt;b&gt;jeux:&lt;br&gt;&lt;/b&gt;&lt;b&gt;&amp;nbsp;annee_de_sortie&lt;/b&gt;&lt;b&gt;&lt;br&gt;&lt;/b&gt;" style="text;html=1;align=center;verticalAlign=middle;resizable=0;points=[];autosize=1;" parent="wPTKJEdPMzPVCPXyaWyH-1" vertex="1">
          <mxGeometry x="1650" y="50" width="110" height="30" as="geometry" />
        </mxCell>
        <mxCell id="oNv_2AcVSlbC6w7N84mN-27" value="" style="endArrow=classic;html=1;exitX=0.25;exitY=0;exitDx=0;exitDy=0;" parent="wPTKJEdPMzPVCPXyaWyH-1" source="oNv_2AcVSlbC6w7N84mN-29" target="oNv_2AcVSlbC6w7N84mN-22" edge="1">
          <mxGeometry width="50" height="50" relative="1" as="geometry">
            <mxPoint x="810" y="310" as="sourcePoint" />
            <mxPoint x="836.1772966814951" y="167.0329022705564" as="targetPoint" />
          </mxGeometry>
        </mxCell>
        <mxCell id="oNv_2AcVSlbC6w7N84mN-28" value="" style="endArrow=classic;html=1;exitX=0.25;exitY=0;exitDx=0;exitDy=0;entryX=0.964;entryY=0.745;entryDx=0;entryDy=0;entryPerimeter=0;" parent="wPTKJEdPMzPVCPXyaWyH-1" source="oNv_2AcVSlbC6w7N84mN-30" target="oNv_2AcVSlbC6w7N84mN-22" edge="1">
          <mxGeometry width="50" height="50" relative="1" as="geometry">
            <mxPoint x="925" y="320" as="sourcePoint" />
            <mxPoint x="1160" y="320" as="targetPoint" />
          </mxGeometry>
        </mxCell>
        <mxCell id="oNv_2AcVSlbC6w7N84mN-29" value="&quot;Ankama&quot;@en" style="rounded=0;whiteSpace=wrap;html=1;" parent="wPTKJEdPMzPVCPXyaWyH-1" vertex="1">
          <mxGeometry x="1750" y="-70" width="85" height="60" as="geometry" />
        </mxCell>
        <mxCell id="oNv_2AcVSlbC6w7N84mN-30" value="&quot;2004&quot;^^xsd:int" style="rounded=0;whiteSpace=wrap;html=1;" parent="wPTKJEdPMzPVCPXyaWyH-1" vertex="1">
          <mxGeometry x="1750" y="110" width="90" height="60" as="geometry" />
        </mxCell>
        <mxCell id="oNv_2AcVSlbC6w7N84mN-31" value="&lt;b&gt;type_jeux_videos : MMORPG&lt;/b&gt;" style="ellipse;whiteSpace=wrap;html=1;fillColor=#dae8fc;strokeColor=#6c8ebf;" parent="wPTKJEdPMzPVCPXyaWyH-1" vertex="1">
          <mxGeometry x="1142.5" y="160" width="220" height="80" as="geometry" />
        </mxCell>
        <mxCell id="oNv_2AcVSlbC6w7N84mN-32" value="" style="endArrow=classic;html=1;exitX=0;exitY=0.5;exitDx=0;exitDy=0;entryX=1;entryY=0.5;entryDx=0;entryDy=0;" parent="wPTKJEdPMzPVCPXyaWyH-1" source="oNv_2AcVSlbC6w7N84mN-31" target="oNv_2AcVSlbC6w7N84mN-43" edge="1">
          <mxGeometry width="50" height="50" relative="1" as="geometry">
            <mxPoint x="1243.6538355139783" y="159.9995432131068" as="sourcePoint" />
            <mxPoint x="1030" y="210" as="targetPoint" />
          </mxGeometry>
        </mxCell>
        <mxCell id="oNv_2AcVSlbC6w7N84mN-33" value="&lt;b style=&quot;color: rgb(0, 0, 0); font-family: helvetica; font-size: 12px; font-style: normal; letter-spacing: normal; text-align: center; text-indent: 0px; text-transform: none; word-spacing: 0px; text-decoration: none;&quot;&gt;&lt;font color=&quot;#999999&quot;&gt;rdfs : SubClassOf&lt;/font&gt;&lt;/b&gt;" style="text;whiteSpace=wrap;html=1;" parent="wPTKJEdPMzPVCPXyaWyH-1" vertex="1">
          <mxGeometry x="970" y="175" width="130" height="30" as="geometry" />
        </mxCell>
        <mxCell id="oNv_2AcVSlbC6w7N84mN-34" value="&lt;b&gt;jeux&lt;/b&gt;&lt;b&gt;&amp;nbsp;: Flyff&lt;br&gt;&lt;/b&gt;" style="ellipse;whiteSpace=wrap;html=1;fillColor=#f8cecc;strokeColor=#b85450;" parent="wPTKJEdPMzPVCPXyaWyH-1" vertex="1">
          <mxGeometry x="1477.92" y="365" width="110" height="75" as="geometry" />
        </mxCell>
        <mxCell id="oNv_2AcVSlbC6w7N84mN-35" value="" style="endArrow=classic;html=1;exitX=0;exitY=0.5;exitDx=0;exitDy=0;entryX=0.951;entryY=0.761;entryDx=0;entryDy=0;entryPerimeter=0;" parent="wPTKJEdPMzPVCPXyaWyH-1" source="oNv_2AcVSlbC6w7N84mN-34" target="oNv_2AcVSlbC6w7N84mN-31" edge="1">
          <mxGeometry width="50" height="50" relative="1" as="geometry">
            <mxPoint x="827.92" y="447" as="sourcePoint" />
            <mxPoint x="1362.5" y="453.68000000000006" as="targetPoint" />
          </mxGeometry>
        </mxCell>
        <mxCell id="oNv_2AcVSlbC6w7N84mN-36" value="&lt;b&gt;&lt;font color=&quot;#67ab9f&quot;&gt;rdf: type&lt;/font&gt;&lt;/b&gt;" style="text;html=1;align=center;verticalAlign=middle;resizable=0;points=[];autosize=1;" parent="wPTKJEdPMzPVCPXyaWyH-1" vertex="1">
          <mxGeometry x="1410" y="280" width="60" height="20" as="geometry" />
        </mxCell>
        <mxCell id="oNv_2AcVSlbC6w7N84mN-37" value="&lt;b&gt;jeux :&lt;br&gt;&lt;/b&gt;&lt;b&gt;developpé_par&lt;/b&gt;" style="text;html=1;align=center;verticalAlign=middle;resizable=0;points=[];autosize=1;" parent="wPTKJEdPMzPVCPXyaWyH-1" vertex="1">
          <mxGeometry x="1597.92" y="280" width="100" height="30" as="geometry" />
        </mxCell>
        <mxCell id="oNv_2AcVSlbC6w7N84mN-38" value="&lt;b&gt;jeux:&lt;br&gt;&lt;/b&gt;&lt;b&gt;&amp;nbsp;annee_de_sortie&lt;/b&gt;&lt;b&gt;&lt;br&gt;&lt;/b&gt;" style="text;html=1;align=center;verticalAlign=middle;resizable=0;points=[];autosize=1;" parent="wPTKJEdPMzPVCPXyaWyH-1" vertex="1">
          <mxGeometry x="1637.92" y="400" width="110" height="30" as="geometry" />
        </mxCell>
        <mxCell id="oNv_2AcVSlbC6w7N84mN-39" value="" style="endArrow=classic;html=1;exitX=0.25;exitY=0;exitDx=0;exitDy=0;" parent="wPTKJEdPMzPVCPXyaWyH-1" source="oNv_2AcVSlbC6w7N84mN-41" target="oNv_2AcVSlbC6w7N84mN-34" edge="1">
          <mxGeometry width="50" height="50" relative="1" as="geometry">
            <mxPoint x="797.92" y="660" as="sourcePoint" />
            <mxPoint x="824.0972966814951" y="517.0329022705564" as="targetPoint" />
          </mxGeometry>
        </mxCell>
        <mxCell id="oNv_2AcVSlbC6w7N84mN-40" value="" style="endArrow=classic;html=1;exitX=0.25;exitY=0;exitDx=0;exitDy=0;entryX=0.964;entryY=0.745;entryDx=0;entryDy=0;entryPerimeter=0;" parent="wPTKJEdPMzPVCPXyaWyH-1" source="oNv_2AcVSlbC6w7N84mN-42" target="oNv_2AcVSlbC6w7N84mN-34" edge="1">
          <mxGeometry width="50" height="50" relative="1" as="geometry">
            <mxPoint x="912.92" y="670" as="sourcePoint" />
            <mxPoint x="1147.92" y="670" as="targetPoint" />
          </mxGeometry>
        </mxCell>
        <mxCell id="oNv_2AcVSlbC6w7N84mN-41" value="&quot;Gala&quot;@en" style="rounded=0;whiteSpace=wrap;html=1;" parent="wPTKJEdPMzPVCPXyaWyH-1" vertex="1">
          <mxGeometry x="1737.92" y="280" width="85" height="60" as="geometry" />
        </mxCell>
        <mxCell id="oNv_2AcVSlbC6w7N84mN-42" value="&quot;2004&quot;^^xsd:int" style="rounded=0;whiteSpace=wrap;html=1;" parent="wPTKJEdPMzPVCPXyaWyH-1" vertex="1">
          <mxGeometry x="1737.92" y="460" width="90" height="60" as="geometry" />
        </mxCell>
        <mxCell id="oNv_2AcVSlbC6w7N84mN-43" value="&lt;b&gt;type_jeux_videos&lt;/b&gt;&lt;b&gt;&amp;nbsp;: Jeu_en_ligne&lt;/b&gt;" style="ellipse;whiteSpace=wrap;html=1;fillColor=#dae8fc;strokeColor=#6c8ebf;" parent="wPTKJEdPMzPVCPXyaWyH-1" vertex="1">
          <mxGeometry x="850" y="190" width="120" height="80" as="geometry" />
        </mxCell>
        <mxCell id="oNv_2AcVSlbC6w7N84mN-44" value="" style="endArrow=classic;html=1;exitX=0;exitY=0.5;exitDx=0;exitDy=0;entryX=0.958;entryY=0.375;entryDx=0;entryDy=0;entryPerimeter=0;" parent="wPTKJEdPMzPVCPXyaWyH-1" source="oNv_2AcVSlbC6w7N84mN-43" target="wPTKJEdPMzPVCPXyaWyH-7" edge="1">
          <mxGeometry width="50" height="50" relative="1" as="geometry">
            <mxPoint x="1240.01" y="399.99999999999994" as="sourcePoint" />
            <mxPoint x="443.0046012519699" y="225.37959491248918" as="targetPoint" />
          </mxGeometry>
        </mxCell>
        <mxCell id="oNv_2AcVSlbC6w7N84mN-45" value="&lt;b&gt;&lt;font color=&quot;#999999&quot;&gt;rdfs : SubClassOf&lt;/font&gt;&lt;/b&gt;" style="text;html=1;align=center;verticalAlign=middle;resizable=0;points=[];autosize=1;" parent="wPTKJEdPMzPVCPXyaWyH-1" vertex="1">
          <mxGeometry x="640" y="210" width="120" height="20" as="geometry" />
        </mxCell>
      </root>
    </mxGraphModel>
  </diagram>
  <diagram id="OSAGzB3ThBumoGxJr9UN" name="Diagramme de classe">
    <mxGraphModel dx="2680" dy="1715" grid="1" gridSize="10" guides="1" tooltips="1" connect="1" arrows="1" fold="1" page="1" pageScale="1" pageWidth="827" pageHeight="1169" math="0" shadow="0">
      <root>
        <mxCell id="P_d9Atb5PgXrXGLa9ZD_-0" />
        <mxCell id="P_d9Atb5PgXrXGLa9ZD_-1" parent="P_d9Atb5PgXrXGLa9ZD_-0" />
        <mxCell id="cNViEC5cEfzxhtSUNbJj-7" value="Jeux_videos" style="swimlane;fontStyle=0;childLayout=stackLayout;horizontal=1;startSize=26;horizontalStack=0;resizeParent=1;resizeParentMax=0;resizeLast=0;collapsible=1;marginBottom=0;gradientColor=#ffffff;swimlaneFillColor=#ffffff;" parent="P_d9Atb5PgXrXGLa9ZD_-1" vertex="1">
          <mxGeometry x="270" y="-40" width="160" height="80" as="geometry" />
        </mxCell>
        <mxCell id="9W80UaptJOBa6xSZPq3P-0" value="Jeu_de_sport" style="swimlane;fontStyle=0;childLayout=stackLayout;horizontal=1;startSize=26;horizontalStack=0;resizeParent=1;resizeParentMax=0;resizeLast=0;collapsible=1;marginBottom=0;gradientColor=#ffffff;swimlaneFillColor=#ffffff;" parent="P_d9Atb5PgXrXGLa9ZD_-1" vertex="1">
          <mxGeometry x="-540" y="230" width="160" height="80" as="geometry" />
        </mxCell>
        <mxCell id="WhipnHZC3KYHZu_fepRA-0" value="Basketball" style="swimlane;fontStyle=0;childLayout=stackLayout;horizontal=1;startSize=26;horizontalStack=0;resizeParent=1;resizeParentMax=0;resizeLast=0;collapsible=1;marginBottom=0;gradientColor=#ffffff;swimlaneFillColor=#ffffff;" parent="P_d9Atb5PgXrXGLa9ZD_-1" vertex="1">
          <mxGeometry x="-730" y="390" width="160" height="80" as="geometry" />
        </mxCell>
        <mxCell id="OnXXt8E1cCnwW26PxKJX-0" value="Extends" style="endArrow=block;endSize=16;endFill=0;html=1;exitX=0.5;exitY=0;exitDx=0;exitDy=0;entryX=0;entryY=0.5;entryDx=0;entryDy=0;" parent="P_d9Atb5PgXrXGLa9ZD_-1" source="9W80UaptJOBa6xSZPq3P-0" target="cNViEC5cEfzxhtSUNbJj-7" edge="1">
          <mxGeometry width="160" relative="1" as="geometry">
            <mxPoint x="210" y="230" as="sourcePoint" />
            <mxPoint x="290" y="100" as="targetPoint" />
          </mxGeometry>
        </mxCell>
        <mxCell id="OnXXt8E1cCnwW26PxKJX-1" value="Jeu_d_aventure" style="swimlane;fontStyle=0;childLayout=stackLayout;horizontal=1;startSize=26;horizontalStack=0;resizeParent=1;resizeParentMax=0;resizeLast=0;collapsible=1;marginBottom=0;gradientColor=#ffffff;swimlaneFillColor=#ffffff;" parent="P_d9Atb5PgXrXGLa9ZD_-1" vertex="1">
          <mxGeometry x="270" y="220" width="160" height="80" as="geometry" />
        </mxCell>
        <mxCell id="0hhy4MWSjZx7nquRbdWb-0" value="Jeu_simulation" style="swimlane;fontStyle=0;childLayout=stackLayout;horizontal=1;startSize=26;horizontalStack=0;resizeParent=1;resizeParentMax=0;resizeLast=0;collapsible=1;marginBottom=0;gradientColor=#ffffff;swimlaneFillColor=#ffffff;" parent="P_d9Atb5PgXrXGLa9ZD_-1" vertex="1">
          <mxGeometry x="950" y="220" width="160" height="80" as="geometry" />
        </mxCell>
        <mxCell id="5aWKPIjQ-ovxNuVGQUgL-0" value="Extends" style="endArrow=block;endSize=16;endFill=0;html=1;exitX=0.5;exitY=0;exitDx=0;exitDy=0;entryX=0.5;entryY=1;entryDx=0;entryDy=0;" parent="P_d9Atb5PgXrXGLa9ZD_-1" source="OnXXt8E1cCnwW26PxKJX-1" target="cNViEC5cEfzxhtSUNbJj-7" edge="1">
          <mxGeometry width="160" relative="1" as="geometry">
            <mxPoint x="220" y="200" as="sourcePoint" />
            <mxPoint x="370" y="120" as="targetPoint" />
          </mxGeometry>
        </mxCell>
        <mxCell id="5aWKPIjQ-ovxNuVGQUgL-1" value="Extends" style="endArrow=block;endSize=16;endFill=0;html=1;exitX=0.5;exitY=0;exitDx=0;exitDy=0;entryX=1;entryY=0.5;entryDx=0;entryDy=0;" parent="P_d9Atb5PgXrXGLa9ZD_-1" source="0hhy4MWSjZx7nquRbdWb-0" target="cNViEC5cEfzxhtSUNbJj-7" edge="1">
          <mxGeometry width="160" relative="1" as="geometry">
            <mxPoint x="490" y="160" as="sourcePoint" />
            <mxPoint x="640" y="80" as="targetPoint" />
          </mxGeometry>
        </mxCell>
        <mxCell id="5aWKPIjQ-ovxNuVGQUgL-2" value="Extends" style="endArrow=block;endSize=16;endFill=0;html=1;exitX=0.5;exitY=0;exitDx=0;exitDy=0;entryX=0.25;entryY=1;entryDx=0;entryDy=0;" parent="P_d9Atb5PgXrXGLa9ZD_-1" source="WhipnHZC3KYHZu_fepRA-0" target="9W80UaptJOBa6xSZPq3P-0" edge="1">
          <mxGeometry width="160" relative="1" as="geometry">
            <mxPoint x="-340" y="270" as="sourcePoint" />
            <mxPoint x="-190" y="190" as="targetPoint" />
          </mxGeometry>
        </mxCell>
        <mxCell id="5aWKPIjQ-ovxNuVGQUgL-3" value="Football" style="swimlane;fontStyle=0;childLayout=stackLayout;horizontal=1;startSize=26;horizontalStack=0;resizeParent=1;resizeParentMax=0;resizeLast=0;collapsible=1;marginBottom=0;gradientColor=#ffffff;swimlaneFillColor=#ffffff;" parent="P_d9Atb5PgXrXGLa9ZD_-1" vertex="1">
          <mxGeometry x="-370" y="390" width="160" height="80" as="geometry" />
        </mxCell>
        <mxCell id="5aWKPIjQ-ovxNuVGQUgL-4" value="Extends" style="endArrow=block;endSize=16;endFill=0;html=1;exitX=0.5;exitY=0;exitDx=0;exitDy=0;entryX=0.75;entryY=1;entryDx=0;entryDy=0;" parent="P_d9Atb5PgXrXGLa9ZD_-1" source="5aWKPIjQ-ovxNuVGQUgL-3" target="9W80UaptJOBa6xSZPq3P-0" edge="1">
          <mxGeometry width="160" relative="1" as="geometry">
            <mxPoint x="-120" y="270" as="sourcePoint" />
            <mxPoint x="-190" y="320" as="targetPoint" />
          </mxGeometry>
        </mxCell>
        <mxCell id="s391LWEuyuA0-WCMYQtn-0" value="Jeu_MMOFPS" style="swimlane;fontStyle=0;childLayout=stackLayout;horizontal=1;startSize=26;horizontalStack=0;resizeParent=1;resizeParentMax=0;resizeLast=0;collapsible=1;marginBottom=0;gradientColor=#ffffff;swimlaneFillColor=#ffffff;" parent="P_d9Atb5PgXrXGLa9ZD_-1" vertex="1">
          <mxGeometry x="130" y="390" width="160" height="80" as="geometry" />
        </mxCell>
        <mxCell id="s391LWEuyuA0-WCMYQtn-1" value="Extends" style="endArrow=block;endSize=16;endFill=0;html=1;exitX=0.5;exitY=0;exitDx=0;exitDy=0;entryX=0.25;entryY=1;entryDx=0;entryDy=0;" parent="P_d9Atb5PgXrXGLa9ZD_-1" source="s391LWEuyuA0-WCMYQtn-0" target="OnXXt8E1cCnwW26PxKJX-1" edge="1">
          <mxGeometry width="160" relative="1" as="geometry">
            <mxPoint x="600" y="240" as="sourcePoint" />
            <mxPoint x="530" y="290" as="targetPoint" />
          </mxGeometry>
        </mxCell>
        <mxCell id="XdYxMOYixrodx3gsoN6f-0" value="Jeu_de_gestion" style="swimlane;fontStyle=0;childLayout=stackLayout;horizontal=1;startSize=26;horizontalStack=0;resizeParent=1;resizeParentMax=0;resizeLast=0;collapsible=1;marginBottom=0;gradientColor=#ffffff;swimlaneFillColor=#ffffff;" parent="P_d9Atb5PgXrXGLa9ZD_-1" vertex="1">
          <mxGeometry x="1100" y="380" width="160" height="80" as="geometry" />
        </mxCell>
        <mxCell id="XdYxMOYixrodx3gsoN6f-1" value="Extends" style="endArrow=block;endSize=16;endFill=0;html=1;exitX=0.5;exitY=0;exitDx=0;exitDy=0;entryX=0.75;entryY=1;entryDx=0;entryDy=0;" parent="P_d9Atb5PgXrXGLa9ZD_-1" source="XdYxMOYixrodx3gsoN6f-0" target="0hhy4MWSjZx7nquRbdWb-0" edge="1">
          <mxGeometry width="160" relative="1" as="geometry">
            <mxPoint x="200" y="240" as="sourcePoint" />
            <mxPoint x="130" y="290" as="targetPoint" />
          </mxGeometry>
        </mxCell>
        <mxCell id="XdYxMOYixrodx3gsoN6f-2" value="Jeu_simulation_animal_et_Cie" style="swimlane;fontStyle=0;childLayout=stackLayout;horizontal=1;startSize=26;horizontalStack=0;resizeParent=1;resizeParentMax=0;resizeLast=0;collapsible=1;marginBottom=0;gradientColor=#ffffff;swimlaneFillColor=#ffffff;" parent="P_d9Atb5PgXrXGLa9ZD_-1" vertex="1">
          <mxGeometry x="780" y="390" width="170" height="80" as="geometry" />
        </mxCell>
        <mxCell id="XdYxMOYixrodx3gsoN6f-3" value="Extends" style="endArrow=block;endSize=16;endFill=0;html=1;exitX=0.5;exitY=0;exitDx=0;exitDy=0;entryX=0.25;entryY=1;entryDx=0;entryDy=0;" parent="P_d9Atb5PgXrXGLa9ZD_-1" source="XdYxMOYixrodx3gsoN6f-2" target="0hhy4MWSjZx7nquRbdWb-0" edge="1">
          <mxGeometry width="160" relative="1" as="geometry">
            <mxPoint x="210" y="250" as="sourcePoint" />
            <mxPoint x="140" y="300" as="targetPoint" />
          </mxGeometry>
        </mxCell>
        <mxCell id="XdYxMOYixrodx3gsoN6f-4" value="Jeu_de_plateforme" style="swimlane;fontStyle=0;childLayout=stackLayout;horizontal=1;startSize=26;horizontalStack=0;resizeParent=1;resizeParentMax=0;resizeLast=0;collapsible=1;marginBottom=0;gradientColor=#ffffff;swimlaneFillColor=#ffffff;" parent="P_d9Atb5PgXrXGLa9ZD_-1" vertex="1">
          <mxGeometry x="400" y="390" width="160" height="80" as="geometry" />
        </mxCell>
        <mxCell id="XdYxMOYixrodx3gsoN6f-5" value="Extends" style="endArrow=block;endSize=16;endFill=0;html=1;exitX=0.5;exitY=0;exitDx=0;exitDy=0;entryX=0.75;entryY=1;entryDx=0;entryDy=0;" parent="P_d9Atb5PgXrXGLa9ZD_-1" source="XdYxMOYixrodx3gsoN6f-4" target="OnXXt8E1cCnwW26PxKJX-1" edge="1">
          <mxGeometry width="160" relative="1" as="geometry">
            <mxPoint x="720" y="245" as="sourcePoint" />
            <mxPoint x="650" y="295" as="targetPoint" />
          </mxGeometry>
        </mxCell>
        <mxCell id="fs4DTPIZoyd-tox5etfJ-1" value="" style="endArrow=open;endSize=12;dashed=1;html=1;entryX=0.25;entryY=1;entryDx=0;entryDy=0;exitX=0.5;exitY=0;exitDx=0;exitDy=0;" parent="P_d9Atb5PgXrXGLa9ZD_-1" source="fs4DTPIZoyd-tox5etfJ-5" target="WhipnHZC3KYHZu_fepRA-0" edge="1">
          <mxGeometry width="160" relative="1" as="geometry">
            <mxPoint x="-680" y="520" as="sourcePoint" />
            <mxPoint x="-730" y="555" as="targetPoint" />
          </mxGeometry>
        </mxCell>
        <mxCell id="fs4DTPIZoyd-tox5etfJ-5" value="&lt;u&gt;NBA2K20 : Basketball&lt;/u&gt;" style="html=1;gradientColor=#ffffff;" parent="P_d9Atb5PgXrXGLa9ZD_-1" vertex="1">
          <mxGeometry x="-860" y="555" width="140" height="50" as="geometry" />
        </mxCell>
        <mxCell id="HT46jLb-vMUpY4_soG09-0" value="" style="endArrow=open;endSize=12;dashed=1;html=1;entryX=0.75;entryY=1;entryDx=0;entryDy=0;exitX=0.5;exitY=0;exitDx=0;exitDy=0;" parent="P_d9Atb5PgXrXGLa9ZD_-1" source="HT46jLb-vMUpY4_soG09-1" target="WhipnHZC3KYHZu_fepRA-0" edge="1">
          <mxGeometry width="160" relative="1" as="geometry">
            <mxPoint x="-520" y="520" as="sourcePoint" />
            <mxPoint x="-530" y="470" as="targetPoint" />
          </mxGeometry>
        </mxCell>
        <mxCell id="HT46jLb-vMUpY4_soG09-1" value="&lt;u&gt;NBA2K21 : Basketball&lt;/u&gt;" style="html=1;gradientColor=#ffffff;" parent="P_d9Atb5PgXrXGLa9ZD_-1" vertex="1">
          <mxGeometry x="-650" y="550" width="140" height="50" as="geometry" />
        </mxCell>
        <mxCell id="HT46jLb-vMUpY4_soG09-4" value="" style="endArrow=open;endSize=12;dashed=1;html=1;entryX=0.25;entryY=1;entryDx=0;entryDy=0;exitX=0.5;exitY=0;exitDx=0;exitDy=0;" parent="P_d9Atb5PgXrXGLa9ZD_-1" source="HT46jLb-vMUpY4_soG09-5" target="5aWKPIjQ-ovxNuVGQUgL-3" edge="1">
          <mxGeometry width="160" relative="1" as="geometry">
            <mxPoint x="-260" y="530" as="sourcePoint" />
            <mxPoint x="-270" y="480" as="targetPoint" />
          </mxGeometry>
        </mxCell>
        <mxCell id="HT46jLb-vMUpY4_soG09-5" value="&lt;u&gt;Fifa20 : Football&lt;/u&gt;" style="html=1;gradientColor=#ffffff;" parent="P_d9Atb5PgXrXGLa9ZD_-1" vertex="1">
          <mxGeometry x="-440" y="550" width="140" height="50" as="geometry" />
        </mxCell>
        <mxCell id="HT46jLb-vMUpY4_soG09-6" value="" style="endArrow=open;endSize=12;dashed=1;html=1;entryX=0.75;entryY=1;entryDx=0;entryDy=0;exitX=0.5;exitY=0;exitDx=0;exitDy=0;" parent="P_d9Atb5PgXrXGLa9ZD_-1" source="HT46jLb-vMUpY4_soG09-7" target="5aWKPIjQ-ovxNuVGQUgL-3" edge="1">
          <mxGeometry width="160" relative="1" as="geometry">
            <mxPoint x="-180" y="537" as="sourcePoint" />
            <mxPoint x="-190" y="487" as="targetPoint" />
          </mxGeometry>
        </mxCell>
        <mxCell id="HT46jLb-vMUpY4_soG09-7" value="&lt;u&gt;Fifa21 : Football&lt;/u&gt;" style="html=1;gradientColor=#ffffff;" parent="P_d9Atb5PgXrXGLa9ZD_-1" vertex="1">
          <mxGeometry x="-260" y="550" width="140" height="50" as="geometry" />
        </mxCell>
        <mxCell id="Fkqo6ZSx4qDvwS_fyB6s-0" value="" style="endArrow=open;endSize=12;dashed=1;html=1;exitX=0.5;exitY=0;exitDx=0;exitDy=0;" parent="P_d9Atb5PgXrXGLa9ZD_-1" source="Fkqo6ZSx4qDvwS_fyB6s-1" edge="1">
          <mxGeometry width="160" relative="1" as="geometry">
            <mxPoint x="350" y="580" as="sourcePoint" />
            <mxPoint x="190" y="470" as="targetPoint" />
          </mxGeometry>
        </mxCell>
        <mxCell id="Fkqo6ZSx4qDvwS_fyB6s-1" value="&lt;u&gt;Call_Of_Duty_Cold_War : Jeu_MMOFPS&lt;/u&gt;" style="html=1;gradientColor=#ffffff;" parent="P_d9Atb5PgXrXGLa9ZD_-1" vertex="1">
          <mxGeometry x="70" y="580" width="240" height="50" as="geometry" />
        </mxCell>
        <mxCell id="09HQtplfAo7zhogmJRi6-0" value="" style="endArrow=open;endSize=12;dashed=1;html=1;entryX=0.5;entryY=1;entryDx=0;entryDy=0;exitX=0.5;exitY=0;exitDx=0;exitDy=0;" parent="P_d9Atb5PgXrXGLa9ZD_-1" source="09HQtplfAo7zhogmJRi6-1" target="XdYxMOYixrodx3gsoN6f-4" edge="1">
          <mxGeometry width="160" relative="1" as="geometry">
            <mxPoint x="520" y="560" as="sourcePoint" />
            <mxPoint x="510" y="510" as="targetPoint" />
          </mxGeometry>
        </mxCell>
        <mxCell id="09HQtplfAo7zhogmJRi6-1" value="&lt;u&gt;Super_Mario_Run : Jeu_de_plateforme&lt;/u&gt;" style="html=1;gradientColor=#ffffff;" parent="P_d9Atb5PgXrXGLa9ZD_-1" vertex="1">
          <mxGeometry x="370" y="580" width="220" height="50" as="geometry" />
        </mxCell>
        <mxCell id="m0URwfsSu9b_S9Z-Dvym-0" value="" style="endArrow=open;endSize=12;dashed=1;html=1;exitX=0.48;exitY=-0.017;exitDx=0;exitDy=0;entryX=0.5;entryY=1;entryDx=0;entryDy=0;exitPerimeter=0;" parent="P_d9Atb5PgXrXGLa9ZD_-1" source="m0URwfsSu9b_S9Z-Dvym-1" target="XdYxMOYixrodx3gsoN6f-2" edge="1">
          <mxGeometry width="160" relative="1" as="geometry">
            <mxPoint x="760" y="597" as="sourcePoint" />
            <mxPoint x="710" y="520" as="targetPoint" />
          </mxGeometry>
        </mxCell>
        <mxCell id="m0URwfsSu9b_S9Z-Dvym-1" value="&lt;u&gt;Sims_animaux_et_Cie : Jeu_simulation_animal_et_Cie&lt;/u&gt;" style="html=1;gradientColor=#ffffff;" parent="P_d9Atb5PgXrXGLa9ZD_-1" vertex="1">
          <mxGeometry x="720" y="572" width="300" height="58" as="geometry" />
        </mxCell>
        <mxCell id="tsDbRqFaC4c2E94XwNcW-1" value="" style="endArrow=open;endSize=12;dashed=1;html=1;entryX=0.5;entryY=1;entryDx=0;entryDy=0;exitX=0.5;exitY=0;exitDx=0;exitDy=0;" parent="P_d9Atb5PgXrXGLa9ZD_-1" source="tsDbRqFaC4c2E94XwNcW-2" target="XdYxMOYixrodx3gsoN6f-0" edge="1">
          <mxGeometry width="160" relative="1" as="geometry">
            <mxPoint x="1040" y="570" as="sourcePoint" />
            <mxPoint x="980" y="510" as="targetPoint" />
          </mxGeometry>
        </mxCell>
        <mxCell id="tsDbRqFaC4c2E94XwNcW-2" value="&lt;u&gt;Football_Manager_2021 : Jeu_de_gestion&lt;/u&gt;" style="html=1;gradientColor=#ffffff;" parent="P_d9Atb5PgXrXGLa9ZD_-1" vertex="1">
          <mxGeometry x="1060" y="576" width="240" height="50" as="geometry" />
        </mxCell>
        <mxCell id="v1paOpEMVESitvhbNiFm-0" value="Jeu_en_ligne" style="swimlane;fontStyle=0;childLayout=stackLayout;horizontal=1;startSize=26;horizontalStack=0;resizeParent=1;resizeParentMax=0;resizeLast=0;collapsible=1;marginBottom=0;gradientColor=#ffffff;swimlaneFillColor=#ffffff;" vertex="1" parent="P_d9Atb5PgXrXGLa9ZD_-1">
          <mxGeometry x="1370" y="220" width="160" height="80" as="geometry" />
        </mxCell>
        <mxCell id="v1paOpEMVESitvhbNiFm-1" value="Extends" style="endArrow=block;endSize=16;endFill=0;html=1;exitX=0.5;exitY=0;exitDx=0;exitDy=0;" edge="1" parent="P_d9Atb5PgXrXGLa9ZD_-1">
          <mxGeometry width="160" relative="1" as="geometry">
            <mxPoint x="1470" y="220" as="sourcePoint" />
            <mxPoint x="430" y="30" as="targetPoint" />
          </mxGeometry>
        </mxCell>
        <mxCell id="v1paOpEMVESitvhbNiFm-2" value="Jeu_MMORPG" style="swimlane;fontStyle=0;childLayout=stackLayout;horizontal=1;startSize=26;horizontalStack=0;resizeParent=1;resizeParentMax=0;resizeLast=0;collapsible=1;marginBottom=0;gradientColor=#ffffff;swimlaneFillColor=#ffffff;" vertex="1" parent="P_d9Atb5PgXrXGLa9ZD_-1">
          <mxGeometry x="1380" y="380" width="160" height="80" as="geometry" />
        </mxCell>
        <mxCell id="v1paOpEMVESitvhbNiFm-3" value="&lt;u&gt;Dofus : Jeu_MMORPG&lt;/u&gt;" style="html=1;gradientColor=#ffffff;" vertex="1" parent="P_d9Atb5PgXrXGLa9ZD_-1">
          <mxGeometry x="1320" y="576" width="160" height="50" as="geometry" />
        </mxCell>
        <mxCell id="_hfmEck8uMmToAoYqQkj-0" value="&lt;u&gt;Flyff : Jeu_MMORPG&lt;/u&gt;" style="html=1;gradientColor=#ffffff;" vertex="1" parent="P_d9Atb5PgXrXGLa9ZD_-1">
          <mxGeometry x="1500" y="576" width="160" height="50" as="geometry" />
        </mxCell>
        <mxCell id="_hfmEck8uMmToAoYqQkj-1" value="" style="endArrow=open;endSize=12;dashed=1;html=1;entryX=0.5;entryY=1;entryDx=0;entryDy=0;exitX=0.5;exitY=0;exitDx=0;exitDy=0;" edge="1" parent="P_d9Atb5PgXrXGLa9ZD_-1">
          <mxGeometry width="160" relative="1" as="geometry">
            <mxPoint x="1420" y="576" as="sourcePoint" />
            <mxPoint x="1420" y="460" as="targetPoint" />
          </mxGeometry>
        </mxCell>
        <mxCell id="_hfmEck8uMmToAoYqQkj-2" value="" style="endArrow=open;endSize=12;dashed=1;html=1;entryX=0.5;entryY=1;entryDx=0;entryDy=0;exitX=0.5;exitY=0;exitDx=0;exitDy=0;" edge="1" parent="P_d9Atb5PgXrXGLa9ZD_-1">
          <mxGeometry width="160" relative="1" as="geometry">
            <mxPoint x="1530" y="576" as="sourcePoint" />
            <mxPoint x="1530" y="460" as="targetPoint" />
          </mxGeometry>
        </mxCell>
        <mxCell id="_hfmEck8uMmToAoYqQkj-3" value="Tennis" style="swimlane;fontStyle=0;childLayout=stackLayout;horizontal=1;startSize=26;horizontalStack=0;resizeParent=1;resizeParentMax=0;resizeLast=0;collapsible=1;marginBottom=0;gradientColor=#ffffff;swimlaneFillColor=#ffffff;" vertex="1" parent="P_d9Atb5PgXrXGLa9ZD_-1">
          <mxGeometry x="-1100" y="400" width="160" height="80" as="geometry" />
        </mxCell>
        <mxCell id="_hfmEck8uMmToAoYqQkj-4" value="Extends" style="endArrow=block;endSize=16;endFill=0;html=1;exitX=0.5;exitY=0;exitDx=0;exitDy=0;" edge="1" parent="P_d9Atb5PgXrXGLa9ZD_-1">
          <mxGeometry width="160" relative="1" as="geometry">
            <mxPoint x="-1000" y="400" as="sourcePoint" />
            <mxPoint x="-540" y="280" as="targetPoint" />
          </mxGeometry>
        </mxCell>
        <mxCell id="_hfmEck8uMmToAoYqQkj-5" value="&lt;u&gt;AO_TENNIS2 : Tennis&lt;/u&gt;" style="html=1;gradientColor=#ffffff;" vertex="1" parent="P_d9Atb5PgXrXGLa9ZD_-1">
          <mxGeometry x="-1240" y="555" width="140" height="50" as="geometry" />
        </mxCell>
        <mxCell id="YHNx696kt5YyYyhBSGSa-0" value="&lt;u&gt;Tennis_world_Tour : Tennis&lt;/u&gt;" style="html=1;gradientColor=#ffffff;" vertex="1" parent="P_d9Atb5PgXrXGLa9ZD_-1">
          <mxGeometry x="-1060" y="555" width="150" height="50" as="geometry" />
        </mxCell>
        <mxCell id="YHNx696kt5YyYyhBSGSa-1" value="" style="endArrow=open;endSize=12;dashed=1;html=1;exitX=0.5;exitY=0;exitDx=0;exitDy=0;" edge="1" parent="P_d9Atb5PgXrXGLa9ZD_-1">
          <mxGeometry width="160" relative="1" as="geometry">
            <mxPoint x="-1190" y="555" as="sourcePoint" />
            <mxPoint x="-1100" y="480" as="targetPoint" />
          </mxGeometry>
        </mxCell>
        <mxCell id="YHNx696kt5YyYyhBSGSa-2" value="" style="endArrow=open;endSize=12;dashed=1;html=1;exitX=0.5;exitY=0;exitDx=0;exitDy=0;" edge="1" parent="P_d9Atb5PgXrXGLa9ZD_-1">
          <mxGeometry width="160" relative="1" as="geometry">
            <mxPoint x="-990" y="555" as="sourcePoint" />
            <mxPoint x="-1010" y="480" as="targetPoint" />
          </mxGeometry>
        </mxCell>
      </root>
    </mxGraphModel>
  </diagram>
</mxfile>
